<svg xmlns="http://www.w3.org/2000/svg" width="50" height="50" viewBox="0 0 50 50">
  <g id="Audit_Logging" data-name="Audit Logging" transform="translate(0.5 0.5)">
    <path id="Path_188854" data-name="Path 188854" d="M7.048,2.814c5.6-1.66.6,29.476-4.239,25.417-3.083-2.584,7.236-6.7,14.658-7.695C11.155,14.917,3.37,3.9,7.048,2.814Z" transform="translate(4.712 6.058)" fill="none" stroke="#00e5ff" stroke-linejoin="round" stroke-width="2"/>
    <path id="Path_188855" data-name="Path 188855" d="M15.269,44.808H4.192A3.692,3.692,0,0,1,.5,41.115V4.192A3.692,3.692,0,0,1,4.192.5H22.971a3.692,3.692,0,0,1,2.611,1.081l10.76,10.76a3.693,3.693,0,0,1,1.081,2.611v7.7" fill="none" stroke="#00e5ff" stroke-linecap="round" stroke-linejoin="round" stroke-width="2"/>
    <path id="Path_188856" data-name="Path 188856" d="M35.038,17.731s-7.385,9.231-14.769,9.231S5.5,17.731,5.5,17.731,12.885,8.5,20.269,8.5,35.038,17.731,35.038,17.731Z" transform="translate(13.462 21.538)" fill="none" stroke="#00e5ff" stroke-linecap="round" stroke-linejoin="round" stroke-width="2"/>
    <path id="Path_188857" data-name="Path 188857" d="M10.846,14.192A1.846,1.846,0,1,0,9,12.346,1.846,1.846,0,0,0,10.846,14.192Z" transform="translate(22.885 26.923)" fill="none" stroke="#00e5ff" stroke-linecap="round" stroke-linejoin="round" stroke-width="2"/>
  </g>
</svg>
