<svg xmlns="http://www.w3.org/2000/svg" width="50" height="49.999" viewBox="0 0 50 49.999">
  <g id="Chat" transform="translate(4128 -4049)">
    <g id="Chat-2" data-name="Chat" transform="translate(-4127 4050)">
      <path id="Path_172566" data-name="Path 172566" d="M12.95,30.65a3.2,3.2,0,0,1-3.2-3.2v-16a3.2,3.2,0,0,1,3.2-3.2h22.4a3.2,3.2,0,0,1,3.2,3.2v16a3.2,3.2,0,0,1-3.2,3.2h-3.2v9.6l-9.6-9.6Z" transform="translate(9.45 7.749)" fill="none" stroke="#00e5ff" stroke-linecap="round" stroke-linejoin="round" stroke-width="2"/>
      <path id="Path_172567" data-name="Path 172567" d="M13.55,26.35l-6.4,6.4v-9.6H3.95a3.2,3.2,0,0,1-3.2-3.2v-16A3.2,3.2,0,0,1,3.95.75h22.4a3.2,3.2,0,0,1,3.2,3.2v6.4" transform="translate(-0.75 -0.75)" fill="none" stroke="#00e5ff" stroke-linecap="round" stroke-linejoin="round" stroke-width="2"/>
    </g>
  </g>
</svg>
