<svg xmlns="http://www.w3.org/2000/svg" width="50" height="50" viewBox="0 0 50 50">
  <g id="File_Management" data-name="File Management" transform="translate(-725 -2805)">
    <g id="Group_192333" data-name="Group 192333" transform="translate(725.5 2805.5)">
      <path id="Path_188886" data-name="Path 188886" d="M25.543,17.187v17.27a2.087,2.087,0,0,1-2.087,2.087H2.587A2.087,2.087,0,0,1,.5,34.457V13.587A2.087,2.087,0,0,1,2.587,11.5H19.861" transform="translate(0 11.957)" fill="none" stroke="#00e5ff" stroke-linecap="round" stroke-linejoin="round" stroke-width="2"/>
      <circle id="Ellipse_9315" data-name="Ellipse 9315" cx="4.174" cy="4.174" r="4.174" transform="translate(19.283 21.37)" fill="none" stroke="#00e5ff" stroke-linecap="round" stroke-linejoin="round" stroke-width="2"/>
      <path id="Path_188887" data-name="Path 188887" d="M5.5,16.935V8.587A2.087,2.087,0,0,1,7.587,6.5H24.852" transform="translate(5.435 6.522)" fill="none" stroke="#00e5ff" stroke-linecap="round" stroke-linejoin="round" stroke-width="2"/>
      <path id="Path_188888" data-name="Path 188888" d="M22.935,9.225v17.27a2.087,2.087,0,0,1-2.087,2.087H12.5" transform="translate(13.043 9.484)" fill="none" stroke="#00e5ff" stroke-linecap="round" stroke-linejoin="round" stroke-width="2"/>
      <circle id="Ellipse_9316" data-name="Ellipse 9316" cx="4.174" cy="4.174" r="4.174" transform="translate(29.717 10.935)" fill="none" stroke="#00e5ff" stroke-linecap="round" stroke-linejoin="round" stroke-width="2"/>
      <path id="Path_188889" data-name="Path 188889" d="M10.5,11.935V3.587A2.087,2.087,0,0,1,12.587,1.5h17.27" transform="translate(10.87 1.087)" fill="none" stroke="#00e5ff" stroke-linecap="round" stroke-linejoin="round" stroke-width="2"/>
      <path id="Path_188890" data-name="Path 188890" d="M27.935,4.223V21.5a2.087,2.087,0,0,1-2.087,2.087H17.5" transform="translate(18.478 4.047)" fill="none" stroke="#00e5ff" stroke-linecap="round" stroke-linejoin="round" stroke-width="2"/>
      <circle id="Ellipse_9317" data-name="Ellipse 9317" cx="4.174" cy="4.174" r="4.174" transform="translate(40.152 0.5)" fill="none" stroke="#00e5ff" stroke-linecap="round" stroke-linejoin="round" stroke-width="2"/>
    </g>
  </g>
</svg>
