<svg xmlns="http://www.w3.org/2000/svg" width="50" height="50.081" viewBox="0 0 50 50.081">
  <g id="GDPR" transform="translate(-685 -2692)">
    <g id="Group_192319" data-name="Group 192319" transform="translate(685.5 2692.348)">
      <rect id="Rectangle_151641" data-name="Rectangle 151641" width="35.21" height="35.21" rx="0.858" transform="translate(0.5 13.442)" fill="none" stroke="#00e5ff" stroke-linecap="round" stroke-linejoin="round" stroke-width="2"/>
      <path id="Path_188858" data-name="Path 188858" d="M3.964,12.263V3.82A3.167,3.167,0,0,1,7.131.653H36.006A3.167,3.167,0,0,1,39.173,3.82V32.7a3.167,3.167,0,0,1-3.167,3.167H26.414" transform="translate(9.327 0)" fill="none" stroke="#00e5ff" stroke-linecap="round" stroke-linejoin="round" stroke-width="2"/>
      <path id="Path_188859" data-name="Path 188859" d="M3.514,12.386A6.475,6.475,0,1,0,9.989,5.912,6.475,6.475,0,0,0,3.514,12.386Z" transform="translate(8.116 14.804)" fill="none" stroke="#00e5ff" stroke-linecap="round" stroke-linejoin="round" stroke-width="2"/>
      <path id="Path_188860" data-name="Path 188860" d="M24.627,20.841a11.236,11.236,0,0,0-22.391,0" transform="translate(4.673 27.812)" fill="none" stroke="#00e5ff" stroke-linecap="round" stroke-linejoin="round" stroke-width="2"/>
    </g>
  </g>
</svg>
