<svg xmlns="http://www.w3.org/2000/svg" width="50" height="50.004" viewBox="0 0 50 50.004">
  <g id="Language_Management" data-name="Language Management" transform="translate(-588 -2462)">
    <g id="Group_192329" data-name="Group 192329" transform="translate(588.5 2462.502)">
      <line id="Line_88986" data-name="Line 88986" x2="16.631" transform="translate(4.739 8.846)" fill="none" stroke="#00e5ff" stroke-linecap="round" stroke-linejoin="round" stroke-width="2"/>
      <line id="Line_88987" data-name="Line 88987" y2="4.174" transform="translate(13.022 4.672)" fill="none" stroke="#00e5ff" stroke-linecap="round" stroke-linejoin="round" stroke-width="2"/>
      <path id="Path_188873" data-name="Path 188873" d="M15.522,4.5A17.975,17.975,0,0,1,3,17.022" transform="translate(2.717 4.35)" fill="none" stroke="#00e5ff" stroke-linecap="round" stroke-linejoin="round" stroke-width="2"/>
      <path id="Path_188874" data-name="Path 188874" d="M4,4.5A17.975,17.975,0,0,0,16.522,17.022" transform="translate(3.804 4.35)" fill="none" stroke="#00e5ff" stroke-linecap="round" stroke-linejoin="round" stroke-width="2"/>
      <path id="Path_188875" data-name="Path 188875" d="M14.5,29.19,19.784,15.1a1.043,1.043,0,0,1,1.953,0L27.022,29.19" transform="translate(15.217 15.138)" fill="none" stroke="#00e5ff" stroke-linecap="round" stroke-linejoin="round" stroke-width="2"/>
      <line id="Line_88988" data-name="Line 88988" x2="9.416" transform="translate(31.283 40.15)" fill="none" stroke="#00e5ff" stroke-linecap="round" stroke-linejoin="round" stroke-width="2"/>
      <rect id="Rectangle_151643" data-name="Rectangle 151643" width="25.043" height="25.043" rx="1" transform="translate(0.5 0.498)" fill="none" stroke="#00e5ff" stroke-linecap="round" stroke-linejoin="round" stroke-width="2"/>
      <path id="Path_188876" data-name="Path 188876" d="M18.8,11.5H34.457a2.087,2.087,0,0,1,2.087,2.087v20.87a2.087,2.087,0,0,1-2.087,2.087H13.587A2.087,2.087,0,0,1,11.5,34.457V18.8" transform="translate(11.957 11.959)" fill="none" stroke="#00e5ff" stroke-linecap="round" stroke-linejoin="round" stroke-width="2"/>
      <path id="Path_188877" data-name="Path 188877" d="M6,27.346l4.174-4.174L6,19" transform="translate(5.978 20.109)" fill="none" stroke="#00e5ff" stroke-linecap="round" stroke-linejoin="round" stroke-width="2"/>
      <path id="Path_188878" data-name="Path 188878" d="M2,16A10.435,10.435,0,0,0,12.435,26.435h2.087" transform="translate(1.63 16.85)" fill="none" stroke="#00e5ff" stroke-linecap="round" stroke-linejoin="round" stroke-width="2"/>
      <path id="Path_188879" data-name="Path 188879" d="M20.174,1,16,5.172l4.174,4.174" transform="translate(16.848 0.543)" fill="none" stroke="#00e5ff" stroke-linecap="round" stroke-linejoin="round" stroke-width="2"/>
      <path id="Path_188880" data-name="Path 188880" d="M28.522,13.435A10.435,10.435,0,0,0,18.087,3H16" transform="translate(16.848 2.72)" fill="none" stroke="#00e5ff" stroke-linecap="round" stroke-linejoin="round" stroke-width="2"/>
    </g>
  </g>
</svg>
