<svg xmlns="http://www.w3.org/2000/svg" xmlns:xlink="http://www.w3.org/1999/xlink" width="48" height="47.996" viewBox="0 0 48 47.996">
  <defs>
    <clipPath id="clip-path">
      <rect id="Rectangle_148806" data-name="Rectangle 148806" width="48" height="47.995" fill="none" stroke="#00e5ff" stroke-width="2"/>
    </clipPath>
  </defs>
  <g id="Payment" transform="translate(1781 -4041)">
    <g id="Group_192601" data-name="Group 192601" transform="translate(-1781 4041)">
      <g id="Group_173758" data-name="Group 173758" transform="translate(0 0)" clip-path="url(#clip-path)">
        <path id="Path_172572" data-name="Path 172572" d="M40.939,17.2V10.167a3.515,3.515,0,0,0-3.515-3.515H4.015A3.514,3.514,0,0,0,.5,10.167V34.782A3.516,3.516,0,0,0,4.015,38.3H37.423a3.517,3.517,0,0,0,3.515-3.518V25.991" transform="translate(0.643 8.553)" fill="none" stroke="#00e5ff" stroke-linecap="round" stroke-linejoin="round" stroke-width="2"/>
        <path id="Path_172573" data-name="Path 172573" d="M5.639,5.769,25.575.565A1.724,1.724,0,0,1,27.7,1.756l.018.075.985,3.938" transform="translate(7.25 0.643)" fill="none" stroke="#00e5ff" stroke-linecap="round" stroke-linejoin="round" stroke-width="2"/>
        <rect id="Rectangle_148805" data-name="Rectangle 148805" width="12.306" height="8.791" rx="0.769" transform="translate(34.55 25.754)" fill="none" stroke="#00e5ff" stroke-linecap="round" stroke-linejoin="round" stroke-width="2"/>
      </g>
    </g>
  </g>
</svg>
