<svg width="29" height="28" viewBox="0 0 29 28" fill="none" xmlns="http://www.w3.org/2000/svg">
  <path d="M11.1402 25.4964C9.69784 25.4966 8.28781 25.0691 7.08845 24.2679C5.88909 23.4667 4.95429 22.3278 4.40229 20.9953C3.85029 19.6627 3.70589 18.1964 3.98735 16.7818C4.26882 15.3672 4.9635 14.0678 5.98353 13.048L15.2644 3.76719C16.2489 2.78262 17.5843 2.22949 18.9767 2.22949C20.3691 2.22949 21.7045 2.78262 22.689 3.76719C23.6736 4.75176 24.2267 6.08713 24.2267 7.47952C24.2267 8.87192 23.6736 10.2073 22.689 11.1919L14.6449 19.2349C14.0336 19.8187 13.2209 20.1444 12.3757 20.1444C11.5305 20.1444 10.7178 19.8187 10.1065 19.2349C9.50555 18.6329 9.16819 17.817 9.16863 16.9664C9.16907 16.1158 9.50726 15.3002 10.1089 14.6989L16.0892 8.71736C16.1968 8.60593 16.3256 8.51705 16.4679 8.45591C16.6102 8.39476 16.7633 8.36258 16.9182 8.36123C17.0731 8.35989 17.2268 8.38941 17.3701 8.44807C17.5135 8.50673 17.6438 8.59336 17.7533 8.7029C17.8629 8.81244 17.9495 8.9427 18.0082 9.08608C18.0668 9.22946 18.0963 9.38308 18.095 9.53799C18.0936 9.6929 18.0615 9.84599 18.0003 9.98833C17.9392 10.1307 17.8503 10.2594 17.7389 10.367L11.7585 16.3485C11.5947 16.5126 11.5026 16.735 11.5026 16.9669C11.5026 17.1987 11.5947 17.4211 11.7585 17.5852C11.9252 17.7441 12.1466 17.8327 12.3769 17.8327C12.6071 17.8327 12.8286 17.7441 12.9952 17.5852L21.0394 9.54219C21.5853 8.99478 21.8919 8.25322 21.8919 7.48011C21.8919 6.707 21.5853 5.96543 21.0394 5.41802C20.4837 4.88742 19.745 4.59135 18.9767 4.59135C18.2084 4.59135 17.4697 4.88742 16.914 5.41802L7.6332 14.6989C7.16397 15.1573 6.79037 15.7043 6.53404 16.3081C6.27772 16.912 6.14377 17.5607 6.13995 18.2167C6.13613 18.8726 6.26252 19.5229 6.51179 20.1297C6.76106 20.7364 7.12827 21.2877 7.59213 21.7516C8.05599 22.2155 8.60728 22.5827 9.21407 22.8319C9.82086 23.0812 10.4711 23.2076 11.1271 23.2038C11.7831 23.2 12.4318 23.066 13.0356 22.8097C13.6395 22.5534 14.1864 22.1798 14.6449 21.7105L21.8642 14.4924C21.9718 14.3809 22.1006 14.2921 22.2429 14.2309C22.3852 14.1698 22.5383 14.1376 22.6932 14.1362C22.8481 14.1349 23.0018 14.1644 23.1451 14.2231C23.2885 14.2817 23.4188 14.3684 23.5283 14.4779C23.6379 14.5874 23.7245 14.7177 23.7832 14.8611C23.8418 15.0045 23.8713 15.1581 23.87 15.313C23.8686 15.4679 23.8365 15.621 23.7753 15.7633C23.7142 15.9057 23.6253 16.0344 23.5139 16.142L16.2957 23.359C15.6204 24.0388 14.8168 24.5777 13.9316 24.9446C13.0464 25.3115 12.0972 25.499 11.139 25.4964H11.1402Z" fill="url(#paint0_linear_15691_59202)"/>
  <defs>
    <linearGradient id="paint0_linear_15691_59202" x1="14.0369" y1="2.22949" x2="14.0369" y2="25.4964" gradientUnits="userSpaceOnUse">
      <stop stop-color="#FF37DF"/>
      <stop offset="1" stop-color="#6E00FF"/>
    </linearGradient>
  </defs>
</svg>