<svg xmlns="http://www.w3.org/2000/svg" id="a" viewBox="0 0 19 21"><defs></defs><path id="b" class="icon" d="M14,2.038h2.7c.937-.051,1.742,.637,1.8,1.539v15.382c-.059,.902-.863,1.589-1.8,1.539H2.3c-.937,.051-1.742-.637-1.8-1.539V3.577c.059-.902,.863-1.589,1.8-1.539h2.7"/><path id="c" class="icon" d="M6.443,.5h6.116c.796,0,1.442,.621,1.442,1.388v1.07c0,.767-.646,1.388-1.442,1.388H6.443c-.796,0-1.442-.621-1.442-1.388V1.888c0-.767,.646-1.388,1.442-1.388Z"/><path class="icon" d="M5.253,12.864l1.784,2.735c.122,.189,.31,.301,.51,.304,.197,.003,.384-.1,.51-.281L13.747,7.408"/></svg>