<svg xmlns="http://www.w3.org/2000/svg" id="a" viewBox="0 0 19 21"><path id="b" class="icon" d="M6.83,3.192l.648-1.708c.224-.592,.781-.983,1.403-.984h1.237c.622,.002,1.179,.393,1.402,.985l.648,1.708,2.203,1.291,1.779-.277c.606-.084,1.201,.214,1.507,.754l.603,1.077c.316,.549,.268,1.239-.121,1.737l-1.101,1.43v2.584l1.133,1.435c.389,.498,.437,1.189,.121,1.738l-.603,1.077c-.306,.54-.901,.838-1.507,.754l-1.779-.277-2.202,1.292-.648,1.708c-.224,.592-.781,.983-1.402,.985h-1.268c-.622-.002-1.179-.393-1.402-.985l-.648-1.708-2.203-1.296-1.779,.277c-.606,.084-1.201-.214-1.507-.754l-.603-1.077c-.315-.548-.267-1.236,.12-1.733l1.1-1.435v-2.584l-1.13-1.43c-.389-.498-.437-1.189-.121-1.738l.602-1.077c.306-.54,.901-.838,1.507-.754l1.779,.277,2.234-1.291Zm-.347,7.305c0,1.698,1.35,3.074,3.014,3.074s3.014-1.376,3.014-3.074-1.35-3.074-3.014-3.074-3.014,1.376-3.014,3.074h0Z"/></svg>