<svg xmlns="http://www.w3.org/2000/svg" id="a" viewBox="0 0 21 21"><path class="icon" d="M20.056,15.089c-.36,.39-.86,.6-1.39,.58l-1.24-.07h-.02c-.27-.28-.53-.56-.8-.84-.67-.7-1.34-1.4-2.009-2.11-.16-.16-.31-.32-.46-.48,1.01-1.989,.22-4.429-1.769-5.439-1.09-.55-2.369-.58-3.479-.09l1.23,1.31c.48,.56,.42,1.41-.14,1.889-.52,.46-1.31,.44-1.809-.04l-1.24-1.29c-1,1.989-.2,4.419,1.789,5.429,1.08,.55,2.359,.58,3.469,.08,.17,.18,.35,.37,.52,.55,.86,.9,1.709,1.79,2.559,2.689,.11,.12,.23,.24,.34,.36l.05,1.06c.05,.96-.7,1.77-1.659,1.81-.52,.03-1.01-.18-1.36-.56l-.84-.93c-.64-.71-1.749-.77-2.459-.12-.04,.04-.09,.08-.13,.12l-.84,.93c-.64,.71-1.739,.77-2.459,.12-.38-.35-.59-.85-.57-1.38l.07-1.24c.05-.96-.69-1.78-1.649-1.83h-.18l-1.25,.07c-.96,.05-1.779-.69-1.829-1.65-.03-.52,.18-1.03,.57-1.38l.93-.84c.71-.64,.77-1.75,.12-2.459-.04-.04-.08-.09-.12-.12l-.93-.85c-.71-.64-.76-1.74-.12-2.459,.35-.38,.86-.59,1.38-.56l1.24,.06c.96,.05,1.779-.69,1.829-1.65,.01-.06,.01-.12,0-.19l-.06-1.24c-.04-.96,.7-1.78,1.659-1.819,.52-.03,1.02,.18,1.37,.56l.84,.93c.64,.71,1.739,.77,2.459,.13,.04-.04,.08-.08,.12-.13l.85-.92c.64-.72,1.739-.78,2.459-.14,.39,.35,.6,.87,.57,1.39l-.06,1.24c-.05,.96,.69,1.78,1.649,1.829h.17l1.24-.06c.96-.05,1.779,.69,1.829,1.65,.03,.53-.18,1.03-.57,1.38l-.93,.84c-.71,.65-.77,1.75-.12,2.459,.04,.05,.08,.09,.12,.13l.93,.83c.71,.65,.77,1.75,.13,2.459Z"/></svg>