<svg xmlns="http://www.w3.org/2000/svg" width="120" height="100" viewBox="0 0 120 100">
  <g id="ABP" transform="translate(245 2710)">
    <rect id="Rectangle_153323" data-name="Rectangle 153323" width="120" height="100" transform="translate(-245 -2710)" fill="#fff" opacity="0"/>
    <path id="Path_188915" data-name="Path 188915" d="M23.3,31.407A8.292,8.292,0,1,0,15,23.115,8.292,8.292,0,0,0,23.3,31.407Z" transform="translate(-208.296 -2683.618)" fill="#b84297"/>
    <path id="Path_188916" data-name="Path 188916" d="M31.979,0A49.824,49.824,0,0,0,10.123,5.026V15.761A40.633,40.633,0,0,1,72.608,48.953V79.147A50,50,0,0,0,31.979,0Z" transform="translate(-216.983 -2710)" fill="#f5f7fa"/>
    <path id="Path_188917" data-name="Path 188917" d="M49.986,77.321A40.644,40.644,0,0,1,9.39,38.606H9.343V7.5A50.03,50.03,0,0,0,85.427,71.973V56.578A40.639,40.639,0,0,1,49.986,77.321Z" transform="translate(-235 -2696.649)" fill="#f5f7fa"/>
    <path id="Path_188918" data-name="Path 188918" d="M32,45.365a13.458,13.458,0,0,1-8.332-2.882v9.591a21.975,21.975,0,1,0-13.544-20.3v28.2a35.45,35.45,0,0,0,8.332,4.9V31.76A13.535,13.535,0,1,1,32,45.352Z" transform="translate(-216.983 -2692.465)" fill="#f5f7fa"/>
    <path id="Path_188919" data-name="Path 188919" d="M13.591,67.187V44.39a27.072,27.072,0,1,1,18.75,25.747v8.648a35.375,35.375,0,1,0-18.75-57.192V2.893A50.132,50.132,0,0,0,5.243,9.627V45.452A35.2,35.2,0,0,0,13.591,67.187Z" transform="translate(-225.67 -2704.851)" fill="#f5f7fa"/>
  </g>
</svg>
