<svg xmlns="http://www.w3.org/2000/svg" width="29.5" height="25.5" viewBox="0 0 29.5 25.5">
  <g id="Group_190547" data-name="Group 190547" transform="translate(-0.75 -3.25)">
    <path id="Path_180889" data-name="Path 180889" d="M9,14.25V7.5h5a3.2,3.2,0,0,1,3,3.375,3.2,3.2,0,0,1-3,3.375Z" transform="translate(2.5 1.75)" fill="none" stroke="#7e2eef" stroke-linejoin="round" stroke-width="1.5"/>
    <path id="Path_180890" data-name="Path 180890" d="M9,18.75V12h6.333a3.2,3.2,0,0,1,3,3.375,3.2,3.2,0,0,1-3,3.375Z" transform="translate(2.5 4)" fill="none" stroke="#7e2eef" stroke-linejoin="round" stroke-width="1.5"/>
    <path id="Path_180891" data-name="Path 180891" d="M4.833,10.461V5.5A1.424,1.424,0,0,1,6.167,4H24.833a1.424,1.424,0,0,1,1.333,1.5v4.961A6,6,0,0,0,29.5,16a6,6,0,0,0-3.333,5.539V26.5A1.424,1.424,0,0,1,24.833,28H6.167a1.424,1.424,0,0,1-1.333-1.5V21.539A6,6,0,0,0,1.5,16,6,6,0,0,0,4.833,10.461Z" fill="none" stroke="#7e2eef" stroke-linejoin="round" stroke-width="1.5"/>
  </g>
</svg>
