<svg id="Bootstrap" xmlns="http://www.w3.org/2000/svg" width="121" height="100" viewBox="0 0 121 100">
  <rect id="Rectangle_153324" data-name="Rectangle 153324" width="120" height="100" transform="translate(1)" fill="#fff" opacity="0"/>
  <path id="Path_180929" data-name="Path 180929" d="M13.238,13.069C13.011,6.27,18.077,0,24.924,0H95.085C101.932,0,107,6.27,106.771,13.069c-.217,6.531.065,14.991,2.1,21.89,2.043,6.92,5.487,11.293,11.128,11.855v6.373c-5.641.562-9.086,4.936-11.128,11.855-2.036,6.9-2.318,15.359-2.1,21.89C107,93.73,101.932,100,95.085,100H24.924c-6.847,0-11.913-6.27-11.686-13.068.217-6.531-.065-14.992-2.1-21.89C9.094,58.122,5.641,53.748,0,53.186V46.814c5.641-.562,9.094-4.936,11.137-11.855,2.036-6.9,2.319-15.359,2.1-21.89Z" fill="#eef2f8"/>
  <path id="Path_180930" data-name="Path 180930" d="M198.808,148.643c11.085,0,17.765-5.676,17.765-15.038,0-7.077-4.766-12.2-11.844-13.011V120.3c5.2-.885,9.28-5.934,9.28-11.573,0-8.035-6.066-13.269-15.31-13.269H177.9v53.186ZM185.989,102.2h10.76c5.85,0,9.171,2.727,9.171,7.666,0,5.271-3.863,8.219-10.868,8.219h-9.063Zm0,39.7V124.391h10.688c7.655,0,11.627,2.949,11.627,8.7s-3.863,8.809-11.157,8.809Z" transform="translate(-136.205 -72.061)" fill="#5a2ae3"/>
</svg>
