<svg xmlns="http://www.w3.org/2000/svg" width="29.5" height="29.5" viewBox="0 0 29.5 29.5">
  <g id="Group_190541" data-name="Group 190541" transform="translate(0.25 0.25)">
    <path id="Path_180871" data-name="Path 180871" d="M28.5,19.167a3.111,3.111,0,0,1-3.111,3.111H14.5L6.722,28.5V22.278H3.611A3.111,3.111,0,0,1,.5,19.167V3.611A3.111,3.111,0,0,1,3.611.5H25.389A3.111,3.111,0,0,1,28.5,3.611Z" fill="none" stroke="#7e2eef" stroke-linecap="round" stroke-linejoin="round" stroke-width="1.5"/>
    <path id="Path_180872" data-name="Path 180872" d="M4.028,5.306a.778.778,0,0,1,0-1.556" transform="translate(5.806 6.861)" fill="none" stroke="#7e2eef" stroke-linecap="round" stroke-linejoin="round" stroke-width="1.5"/>
    <path id="Path_180873" data-name="Path 180873" d="M3.5,3.75a.778.778,0,0,1,0,1.556" transform="translate(6.333 6.861)" fill="none" stroke="#7e2eef" stroke-linecap="round" stroke-linejoin="round" stroke-width="1.5"/>
    <path id="Path_180874" data-name="Path 180874" d="M7.028,5.306a.778.778,0,1,1,0-1.556" transform="translate(12.139 6.861)" fill="none" stroke="#7e2eef" stroke-linecap="round" stroke-linejoin="round" stroke-width="1.5"/>
    <path id="Path_180875" data-name="Path 180875" d="M6.5,3.75a.778.778,0,0,1,0,1.556" transform="translate(12.667 6.861)" fill="none" stroke="#7e2eef" stroke-linecap="round" stroke-linejoin="round" stroke-width="1.5"/>
  </g>
</svg>
