<svg xmlns="http://www.w3.org/2000/svg" width="29.921" height="30.058" viewBox="0 0 29.921 30.058">
  <g id="Group_190545" data-name="Group 190545" transform="translate(0.21 0.279)">
    <g id="Group_190542" data-name="Group 190542" transform="translate(19.603 0.75)">
      <path id="Path_180876" data-name="Path 180876" d="M20.567.75,15.9,3.55l2.8,4.667" transform="translate(-15.9 -0.75)" fill="none" stroke="#7e2eef" stroke-linecap="round" stroke-linejoin="round" stroke-width="1.5"/>
      <path id="Path_180877" data-name="Path 180877" d="M24.932,9.276a8.375,8.375,0,0,0-8.562-5.5" transform="translate(-15.785 -0.017)" fill="none" stroke="#7e2eef" stroke-linecap="round" stroke-linejoin="round" stroke-width="1.5"/>
    </g>
    <g id="Group_190543" data-name="Group 190543" transform="translate(0.75 19.491)">
      <path id="Path_180878" data-name="Path 180878" d="M4.35,24.717l4.667-2.8-2.8-4.667" transform="translate(0.13 -15.458)" fill="none" stroke="#7e2eef" stroke-linecap="round" stroke-linejoin="round" stroke-width="1.5"/>
      <path id="Path_180879" data-name="Path 180879" d="M.75,15.81a8.375,8.375,0,0,0,8.562,5.5" transform="translate(-0.75 -15.81)" fill="none" stroke="#7e2eef" stroke-linecap="round" stroke-linejoin="round" stroke-width="1.5"/>
    </g>
    <rect id="Rectangle_151356" data-name="Rectangle 151356" width="14.933" height="14.933" rx="1.5" transform="translate(0.75 0.75)" fill="none" stroke="#7e2eef" stroke-linecap="round" stroke-linejoin="round" stroke-width="1.5"/>
    <path id="Path_180880" data-name="Path 180880" d="M16.85,11.25h7.467a1.867,1.867,0,0,1,1.867,1.867v11.2a1.867,1.867,0,0,1-1.867,1.867h-11.2a1.867,1.867,0,0,1-1.867-1.867V16.85" transform="translate(2.567 2.567)" fill="none" stroke="#7e2eef" stroke-linecap="round" stroke-linejoin="round" stroke-width="1.5"/>
    <line id="Line_88859" data-name="Line 88859" x2="4.356" transform="translate(19.106 22.217)" fill="none" stroke="#7e2eef" stroke-linecap="round" stroke-linejoin="round" stroke-width="1.5"/>
    <g id="Group_190544" data-name="Group 190544" transform="translate(4.483 4.483)">
      <line id="Line_88860" data-name="Line 88860" y2="1.867" transform="translate(3.733)" fill="none" stroke="#7e2eef" stroke-linecap="round" stroke-linejoin="round" stroke-width="1.5"/>
      <line id="Line_88861" data-name="Line 88861" x2="7.467" transform="translate(0 1.867)" fill="none" stroke="#7e2eef" stroke-linecap="round" stroke-linejoin="round" stroke-width="1.5"/>
      <path id="Path_180881" data-name="Path 180881" d="M9.35,5.25s-1.867,5.6-5.6,5.6" transform="translate(-3.75 -3.383)" fill="none" stroke="#7e2eef" stroke-linecap="round" stroke-linejoin="round" stroke-width="1.5"/>
      <path id="Path_180882" data-name="Path 180882" d="M6.75,8a4.878,4.878,0,0,0,3.733,2.153" transform="translate(-3.017 -2.711)" fill="none" stroke="#7e2eef" stroke-linecap="round" stroke-linejoin="round" stroke-width="1.5"/>
    </g>
    <path id="Path_180883" data-name="Path 180883" d="M15.5,21.656V16.678a2.178,2.178,0,0,1,4.356,0v4.978" transform="translate(3.606 3.361)" fill="none" stroke="#7e2eef" stroke-linecap="round" stroke-linejoin="round" stroke-width="1.5"/>
  </g>
</svg>
