<svg xmlns="http://www.w3.org/2000/svg" width="624" height="693" viewBox="0 0 624 693">
  <g id="Group_172222" data-name="Group 172222" transform="translate(-960 -194)">
    <path id="Rectangle_147703" data-name="Rectangle 147703" d="M0,0H609a15,15,0,0,1,15,15V678a15,15,0,0,1-15,15H0a0,0,0,0,1,0,0V0A0,0,0,0,1,0,0Z" transform="translate(960 194)" fill="#1946ba"/>
    <g id="Group_171877" data-name="Group 171877">
      <path id="Path_94258" data-name="Path 94258" d="M0,0,91.416,39.343V179.631L0,140.288Z" transform="translate(1404.127 268.856)" fill="#01288e"/>
      <path id="Path_94259" data-name="Path 94259" d="M0,0,42.08,18.11V82.686L0,64.576Z" transform="translate(1500.544 227.513)" fill="#01288e"/>
      <path id="Path_94252" data-name="Path 94252" d="M0,0,91.236,39.266V179.278L0,140.012Z" transform="translate(1443.938 589.302)" fill="#01288e"/>
      <path id="Path_94253" data-name="Path 94253" d="M0,0,75.3,32.409V147.97L0,115.562Z" transform="translate(1339.724 490.307)" fill="#01288e"/>
      <path id="Path_94251" data-name="Path 94251" d="M0,0,192.644,82.909V258.543L0,258.634Z" transform="translate(1227.469 628.366)" fill="#01288e"/>
    </g>
  </g>
</svg>
