<svg xmlns="http://www.w3.org/2000/svg" width="102.627" height="27.459" viewBox="0 0 102.627 27.459">
  <path id="_Copyright_Trialog" data-name="© Copyright Trialog" d="M7.344-6.237c0-2.079,1.134-2.7,3.294-2.7h1.7v-6.4a6.33,6.33,0,0,0-5,2.916v-2.808H1.35V0H7.344Zm5.8-1.377c0,4.914,2.781,7.8,6.291,7.8a4.5,4.5,0,0,0,4.212-2.268V0h5.967V-15.228H23.652v2.079a4.5,4.5,0,0,0-4.212-2.268C15.93-15.417,13.149-12.528,13.149-7.614Zm10.5,0c0,1.674-.972,2.565-2.214,2.565s-2.214-.891-2.214-2.565.972-2.565,2.214-2.565S23.652-9.288,23.652-7.614Zm7.857,0c0,4.914,2.781,7.8,6.291,7.8a4.5,4.5,0,0,0,4.212-2.268V0h5.967V-15.228H42.012v2.079A4.5,4.5,0,0,0,37.8-15.417C34.29-15.417,31.509-12.528,31.509-7.614Zm10.5,0c0,1.674-.972,2.565-2.214,2.565s-2.214-.891-2.214-2.565.972-2.565,2.214-2.565S42.012-9.288,42.012-7.614Zm7.857,0c0,4.914,2.781,7.8,6.291,7.8a4.5,4.5,0,0,0,4.212-2.268V-.27c0,2.133-1.026,2.565-2.241,2.565-1.107,0-1.782-.405-1.944-1.188H50.3c.4,3.861,3.294,6.372,8.262,6.372,5.7,0,7.776-3.726,7.776-7.749V-15.228H60.372v2.079a4.5,4.5,0,0,0-4.212-2.268C52.65-15.417,49.869-12.528,49.869-7.614Zm10.5,0c0,1.674-.972,2.565-2.214,2.565s-2.214-.891-2.214-2.565.972-2.565,2.214-2.565S60.372-9.288,60.372-7.614ZM69.039,0h5.994V-8.073a2.078,2.078,0,0,1,2.133-2.349A2.091,2.091,0,0,1,79.3-8.073V0h5.967V-8.829c0-3.942-2.052-6.507-5.562-6.507a5.344,5.344,0,0,0-4.671,2.43V-19.98H69.039Zm34.938-15.228H97.983v8.073A2.078,2.078,0,0,1,95.85-4.806a2.091,2.091,0,0,1-2.133-2.349v-8.073H87.75V-6.4C87.75-2.457,89.8.108,93.312.108a5.344,5.344,0,0,0,4.671-2.43V0h5.994Z" transform="translate(-1.35 19.98)" fill="#212121"/>
</svg>
