<svg xmlns="http://www.w3.org/2000/svg" width="186.25" height="49.832" viewBox="0 0 186.25 49.832">
  <g id="Raaghu-white" transform="translate(-77.717 -8.443)">
    <path id="raaghu" d="M13.328-22.54A13.213,13.213,0,0,1,17.4-26.387a9.556,9.556,0,0,1,5-1.445v11.613H19.306a7.624,7.624,0,0,0-4.533,1.078q-1.446,1.078-1.446,3.822V0H2.45V-27.636H13.328Zm10.535,8.722a17.785,17.785,0,0,1,1.495-7.571,11.41,11.41,0,0,1,4.091-4.9,10.456,10.456,0,0,1,5.831-1.691,9.346,9.346,0,0,1,4.655,1.1,7.474,7.474,0,0,1,2.989,3.013v-3.773H53.753V0H42.924V-3.773A7.474,7.474,0,0,1,39.935-.76,9.346,9.346,0,0,1,35.28.343a10.456,10.456,0,0,1-5.831-1.691,11.41,11.41,0,0,1-4.091-4.9A17.785,17.785,0,0,1,23.863-13.818Zm19.061,0a4.878,4.878,0,0,0-1.127-3.43,3.752,3.752,0,0,0-2.891-1.225,3.752,3.752,0,0,0-2.891,1.225,4.878,4.878,0,0,0-1.127,3.43,4.878,4.878,0,0,0,1.127,3.43,3.752,3.752,0,0,0,2.891,1.225A3.752,3.752,0,0,0,41.8-10.388,4.878,4.878,0,0,0,42.924-13.818Zm14.259,0a17.785,17.785,0,0,1,1.494-7.571,11.41,11.41,0,0,1,4.091-4.9A10.456,10.456,0,0,1,68.6-27.979a9.346,9.346,0,0,1,4.655,1.1,7.474,7.474,0,0,1,2.989,3.013v-3.773H87.073V0H76.244V-3.773A7.474,7.474,0,0,1,73.255-.76,9.346,9.346,0,0,1,68.6.343a10.456,10.456,0,0,1-5.831-1.691,11.41,11.41,0,0,1-4.091-4.9A17.785,17.785,0,0,1,57.183-13.818Zm19.061,0a4.878,4.878,0,0,0-1.127-3.43,3.752,3.752,0,0,0-2.891-1.225,3.752,3.752,0,0,0-2.891,1.225,4.878,4.878,0,0,0-1.127,3.43,4.878,4.878,0,0,0,1.127,3.43,3.752,3.752,0,0,0,2.891,1.225,3.752,3.752,0,0,0,2.891-1.225A4.878,4.878,0,0,0,76.244-13.818ZM101.92-27.979a9.346,9.346,0,0,1,4.655,1.1,7.474,7.474,0,0,1,2.989,3.013v-3.773h10.829V-.49a17.126,17.126,0,0,1-1.421,7.056,11.21,11.21,0,0,1-4.582,5.1,15.482,15.482,0,0,1-8.11,1.911q-6.664,0-10.559-3.112a11.862,11.862,0,0,1-4.435-8.453h10.682q.441,2.156,3.528,2.156a4.28,4.28,0,0,0,2.989-.98q1.078-.98,1.078-3.675V-3.773A7.474,7.474,0,0,1,106.575-.76a9.346,9.346,0,0,1-4.655,1.1,10.456,10.456,0,0,1-5.831-1.691A11.41,11.41,0,0,1,92-6.248a17.786,17.786,0,0,1-1.494-7.57A17.786,17.786,0,0,1,92-21.389a11.41,11.41,0,0,1,4.091-4.9A10.456,10.456,0,0,1,101.92-27.979Zm7.644,14.161a4.878,4.878,0,0,0-1.127-3.43,3.752,3.752,0,0,0-2.891-1.225,3.752,3.752,0,0,0-2.891,1.225,4.878,4.878,0,0,0-1.127,3.43,4.878,4.878,0,0,0,1.127,3.43,3.752,3.752,0,0,0,2.891,1.225,3.752,3.752,0,0,0,2.891-1.225A4.878,4.878,0,0,0,109.564-13.818Zm35.084-14.014a9.16,9.16,0,0,1,7.424,3.185q2.671,3.185,2.671,8.624V0H143.913V-14.651a4.432,4.432,0,0,0-1.053-3.111,3.633,3.633,0,0,0-2.818-1.151,3.616,3.616,0,0,0-2.842,1.151,4.5,4.5,0,0,0-1.029,3.111V0H125.293V-36.26h10.878v12.838a9.823,9.823,0,0,1,3.406-3.185A10.009,10.009,0,0,1,144.648-27.832Zm44.051.2V0H177.821V-4.214a9.823,9.823,0,0,1-3.406,3.185A10.009,10.009,0,0,1,169.344.2a9.16,9.16,0,0,1-7.424-3.185q-2.671-3.185-2.671-8.624V-27.636h10.829v14.651a4.432,4.432,0,0,0,1.053,3.111,3.633,3.633,0,0,0,2.817,1.152,3.616,3.616,0,0,0,2.842-1.152,4.5,4.5,0,0,0,1.029-3.111V-27.636Z" transform="translate(75.268 44.703)" fill="#fff"/>
  </g>
</svg>
