<svg xmlns="http://www.w3.org/2000/svg" width="29" height="29.367" viewBox="0 0 29 29.367">
  <g id="Group_190551" data-name="Group 190551" transform="translate(0 1.282)">
    <ellipse id="Ellipse_8234" data-name="Ellipse 8234" cx="14" cy="4.985" rx="14" ry="4.985" transform="translate(0.5 8.417)" fill="none" stroke="#7e2eef" stroke-linecap="round" stroke-linejoin="round" stroke-width="1"/>
    <path id="Path_180904" data-name="Path 180904" d="M12.842.027c7.21.3,13.15,2.944,13.268,5.9s-5.631,5.11-12.84,4.809S.119,7.793,0,4.836,5.632-.275,12.842.027Z" transform="translate(3.312 22.017) rotate(-60)" fill="none" stroke="#7e2eef" stroke-linecap="round" stroke-width="1"/>
    <path id="Path_180905" data-name="Path 180905" d="M4.836,0c2.957.118,5.6,6.058,5.9,13.268S8.885,26.228,5.928,26.11s-5.6-6.058-5.9-13.268S1.878-.117,4.836,0Z" transform="translate(3.312 4.787) rotate(-30)" fill="none" stroke="#7e2eef" stroke-linecap="round" stroke-width="1"/>
    <ellipse id="Ellipse_8237" data-name="Ellipse 8237" cx="1.826" cy="1.662" rx="1.826" ry="1.662" transform="translate(12.674 11.74)" fill="none" stroke="#7e2eef" stroke-linecap="round" stroke-linejoin="round" stroke-width="1"/>
  </g>
</svg>
