<svg xmlns="http://www.w3.org/2000/svg" width="120" height="100" viewBox="0 0 120 100">
  <g id="Storybook" transform="translate(20)">
    <rect id="Rectangle_153329" data-name="Rectangle 153329" width="120" height="100" transform="translate(-20)" fill="#fff" opacity="0"/>
    <path id="Path_203230" data-name="Path 203230" d="M3.091,92.147,0,9.6A5.022,5.022,0,0,1,4.7,4.4L74.676.01a5.017,5.017,0,0,1,5.314,4.7q.01.157.01.314V94.972A5.019,5.019,0,0,1,74.989,100q-.113,0-.225-.005L7.874,96.981a5.019,5.019,0,0,1-4.783-4.834Z" transform="translate(0 0)" fill="#eef2f8"/>
    <path id="Path_203231" data-name="Path 203231" d="M104.269,12.292,104.747.758,114.357,0l.414,11.895a.747.747,0,0,1-1.21.615l-3.706-2.929-4.388,3.339a.748.748,0,0,1-1.2-.629Zm-12.29,25.4c0,1.956,13.133,1.019,14.9-.355,0-13.32-7.124-20.32-20.169-20.32S66.351,24.124,66.351,34.787c0,18.571,24.98,18.927,24.98,29.056,0,2.844-1.388,4.532-4.441,4.532-3.978,0-5.551-2.038-5.366-8.97,0-1.5-15.173-1.972-15.636,0-1.178,16.8,9.252,21.641,21.187,21.641,11.565,0,20.632-6.185,20.632-17.38,0-19.9-25.35-19.371-25.35-29.234,0-4,2.961-4.532,4.718-4.532C88.926,29.9,92.257,30.227,91.979,37.691Z" transform="translate(-45.195 0)" fill="#ff4785"/>
  </g>
</svg>
