<svg xmlns="http://www.w3.org/2000/svg" width="120" height="100" viewBox="0 0 120 100">
  <g id="Typescript" transform="translate(10)">
    <rect id="Rectangle_153326" data-name="Rectangle 153326" width="120" height="100" transform="translate(-10)" fill="#fff" opacity="0"/>
    <path id="Path_180933" data-name="Path 180933" d="M0,50V0H100V100H0" fill="#eef2f8"/>
    <path id="Path_180934" data-name="Path 180934" d="M87.7,186.695v4.075h13v37h9.225v-37h13v-4a31.172,31.172,0,0,0-.1-4.125c0-.075-7.925-.1-17.55-.1l-17.5.075v4.1Zm58.425-4.175a12.1,12.1,0,0,1,6.25,3.575,15.732,15.732,0,0,1,2.4,3.2c0,.15-4.325,3.075-6.95,4.7-.1.075-.5-.35-.9-1a5.717,5.717,0,0,0-4.7-2.8c-3-.2-5,1.375-5,4a3.951,3.951,0,0,0,.45,1.9c.675,1.375,1.925,2.2,5.8,3.9,7.15,3.075,10.25,5.1,12.125,8a14.567,14.567,0,0,1,1.175,12.175c-1.6,4.175-5.5,7-11.075,7.925a31.184,31.184,0,0,1-7.625-.075,18.874,18.874,0,0,1-10.175-5.325,17.869,17.869,0,0,1-2.6-3.85l.95-.6L130,216.07l2.825-1.65.65.875a13.6,13.6,0,0,0,3.75,3.65c3.25,1.675,7.6,1.45,9.75-.5a3.747,3.747,0,0,0,1.325-3,3.858,3.858,0,0,0-.75-2.55c-.8-1.1-2.4-2-6.9-4-5.175-2.2-7.375-3.6-9.425-5.75a14.2,14.2,0,0,1-2.75-5,19.147,19.147,0,0,1-.15-6.425c1.075-5,4.85-8.5,10.25-9.5a24.231,24.231,0,0,1,7.6.25l-.05.05Z" transform="translate(-65.775 -136.52)" fill="#007acc"/>
  </g>
</svg>
