<svg xmlns="http://www.w3.org/2000/svg" width="218.866" height="203.597" viewBox="0 0 218.866 203.597">
  <g id="Group_196390" data-name="Group 196390" transform="translate(-1950 -166.75)">
    <g id="Path_201975" data-name="Path 201975" transform="translate(1950 166.75)" fill="#f9a8d2">
      <path d="M 167.5392913818359 203.0966186523438 L 51.32707214355469 203.0966186523438 C 44.46523666381836 203.0966186523438 37.80893325805664 201.7528381347656 31.54304313659668 199.1025848388672 C 25.49065399169922 196.5426483154297 20.054931640625 192.8777313232422 15.38690376281738 188.2097015380859 C 10.71887588500977 183.5416717529297 7.053987503051758 178.1059722900391 4.494042873382568 172.0535888671875 C 1.843792915344238 165.7876739501953 0.5000150799751282 159.1313629150391 0.5000150799751282 152.26953125 L 0.5000150799751282 108.4647521972656 C 0.5000150799751282 101.1391448974609 1.238015055656433 93.81830596923828 2.693487405776978 86.70555877685547 C 4.111904144287109 79.77383422851562 6.228431701660156 72.95555877685547 8.984210014343262 66.44013977050781 C 11.69001483917236 60.04289245605469 15.03909873962402 53.87269973754883 18.93840408325195 48.10097503662109 C 22.80073738098145 42.38394927978516 27.23640441894531 37.00789260864258 32.12215423583984 32.12214279174805 C 37.00790405273438 27.23639297485352 42.38396072387695 22.80072593688965 48.10098648071289 18.93839263916016 C 53.87271118164062 15.03908729553223 60.04290390014648 11.69000339508057 66.44015502929688 8.984198570251465 C 72.95557403564453 6.228420257568359 79.77381896972656 4.111892700195312 86.70554351806641 2.693475961685181 C 93.81829071044922 1.238003730773926 101.1391525268555 0.5000037550926208 108.4647369384766 0.5000037550926208 C 115.9217376708984 0.5000037550926208 123.3739318847656 1.25122594833374 130.6142883300781 2.73280930519104 C 137.6703796386719 4.176698207855225 144.6109619140625 6.331170558929443 151.2432708740234 9.136420249938965 C 157.7552642822266 11.89075374603271 164.0361480712891 15.29992008209229 169.9114379882812 19.2691707611084 C 175.7310485839844 23.20080947875977 181.2035369873047 27.71603202819824 186.1769256591797 32.68944931030273 C 191.1503143310547 37.66283798217773 195.6655731201172 43.13533782958984 199.5972137451172 48.95492172241211 C 203.5664520263672 54.83019638061523 206.9756317138672 61.11108779907227 209.7299652099609 67.62308502197266 C 212.5351867675781 74.25539398193359 214.6896820068359 81.19600677490234 216.1335754394531 88.25209045410156 C 217.6151580810547 95.49242401123047 218.3663787841797 102.9446182250977 218.3663787841797 110.401611328125 L 218.3663787841797 152.26953125 C 218.3663787841797 159.1313629150391 217.0225982666016 165.7876739501953 214.3723449707031 172.0535888671875 C 211.8124084472656 178.1059722900391 208.1474914550781 183.5416717529297 203.4794616699219 188.2097015380859 C 198.8114318847656 192.8777313232422 193.375732421875 196.5426483154297 187.3233489990234 199.1025848388672 C 181.0574340820312 201.7528381347656 174.401123046875 203.0966186523438 167.5392913818359 203.0966186523438 Z" stroke="none"/>
      <path d="M 108.4647369384766 1 C 101.172737121582 1 93.88559722900391 1.734588623046875 86.80577087402344 3.183303833007812 C 79.9063720703125 4.595138549804688 73.11993408203125 6.7017822265625 66.63490295410156 9.4447021484375 C 60.26741027832031 12.13792419433594 54.1258544921875 15.47148132324219 48.38087463378906 19.35269165039062 C 42.69021606445312 23.19721984863281 37.33892822265625 27.61244201660156 32.47567749023438 32.47569274902344 C 27.6124267578125 37.33894348144531 23.19720458984375 42.69023132324219 19.35267639160156 48.38088989257812 C 15.47146606445312 54.12586975097656 12.13790893554688 60.26742553710938 9.444686889648438 66.63491821289062 C 6.701766967773438 73.11994934082031 4.595123291015625 79.90639495849609 3.18328857421875 86.80577850341797 C 1.734573364257812 93.88561248779297 0.9999847412109375 101.1727523803711 0.9999847412109375 108.4647521972656 L 0.9999847412109375 152.26953125 C 0.9999847412109375 159.0640869140625 2.330490112304688 165.6548614501953 4.954513549804688 171.8588104248047 C 7.4892578125 177.8515930175781 11.11817932128906 183.23388671875 15.74046325683594 187.8561401367188 C 20.36271667480469 192.4784240722656 25.74501037597656 196.1073303222656 31.73779296875 198.64208984375 C 37.94174194335938 201.26611328125 44.53251647949219 202.5966186523438 51.32707214355469 202.5966186523438 L 167.5392913818359 202.5966186523438 C 174.3338470458984 202.5966186523438 180.9246215820312 201.26611328125 187.1285400390625 198.64208984375 C 193.1213226318359 196.1073303222656 198.5036315917969 192.4784240722656 203.1259002685547 187.8561401367188 C 207.7481536865234 183.23388671875 211.3770751953125 177.8515930175781 213.9118194580078 171.8588104248047 C 216.5358428955078 165.6548614501953 217.8663482666016 159.0640869140625 217.8663482666016 152.26953125 L 217.8663482666016 110.401611328125 C 217.8663482666016 102.9781951904297 217.1185455322266 95.55975341796875 215.6436767578125 88.35231018066406 C 214.2064056396484 81.32855987548828 212.0618133544922 74.41978454589844 209.2694396972656 67.81787109375 C 206.5276489257812 61.33558654785156 203.1340484619141 55.08335876464844 199.1828765869141 49.23483276367188 C 195.26904296875 43.44161987304688 190.7742614746094 37.993896484375 185.8233795166016 33.04296875 C 180.8724670410156 28.09208679199219 175.4247436523438 23.59730529785156 169.6315155029297 19.6834716796875 C 163.7829895019531 15.73231506347656 157.53076171875 12.33869934082031 151.0484924316406 9.596923828125 C 144.4465637207031 6.804534912109375 137.5377960205078 4.659942626953125 130.5140380859375 3.222671508789062 C 123.3065948486328 1.747802734375 115.8881530761719 1 108.4647369384766 1 M 108.4647369384766 0 C 169.4378814697266 0 218.8663482666016 49.42848205566406 218.8663482666016 110.401611328125 L 218.8663482666016 152.26953125 C 218.8663482666016 180.61669921875 195.8864288330078 203.5966186523438 167.5392913818359 203.5966186523438 L 51.32707214355469 203.5966186523438 C 22.97990417480469 203.5966186523438 -1.52587890625e-05 180.61669921875 -1.52587890625e-05 152.26953125 L -1.52587890625e-05 108.4647521972656 C -1.52587890625e-05 48.56130981445312 48.56129455566406 0 108.4647369384766 0 Z" stroke="none" fill="#fff"/>
    </g>
    <g id="developer" transform="translate(1977.291 182.662)">
      <path id="Path_201744" data-name="Path 201744" d="M251.009,306.551c15.261,0,27.794-6.224,27.91-13.945v-.147c0-19.758-37.078-35.758-82.86-35.758s-82.86,16-82.86,35.758v.147c.058,7.721,12.591,13.945,27.91,13.945Z" transform="translate(-113.2 -119.404)" fill="#6378ff"/>
      <path id="Path_201746" data-name="Path 201746" d="M249.118,283.68A107.909,107.909,0,0,1,233.509,296.1,104.333,104.333,0,0,1,217.9,283.622l1.721-24.022h27.818Z" transform="translate(-150.824 -166.977)" fill="#e79e9c"/>
      <path id="Path_201854" data-name="Path 201854" d="M0,0" transform="matrix(0.999, -0.035, 0.035, 0.999, 56.852, 35.388)" fill="#ffb7b8"/>
      <path id="Path_201748" data-name="Path 201748" d="M188.789,212.947l-2.089-4.526,2.089-2.321,2.727,4.642Z" transform="translate(-144.052 -146.841)" fill="#ffd05b"/>
      <path id="Path_201896" data-name="Path 201896" d="M188.789,212.947l-2.089-4.526,2.089-2.321,2.727,4.642Z" transform="translate(-57.523 -170.712)" fill="#ffd05b"/>
      <path id="Path_201894" data-name="Path 201894" d="M1337.626,479.721s9.943,3.3,9.943,2.974,33.7-17.252,33.6-21.551-32.184-43.221-37.393-44.873-22.807-3.083-26.515-5.287a39.487,39.487,0,0,1-1.407-7.261l-27-1.623s.474,4.918-1.893,7.232c-3.636,1.3-20.834.331-27.936,3.966s-19.61,23.3-19.61,23.3-8.192,10.879-7.5,17c.97,8.56,3.638,6.954,5.328,7.544,2.841.991,25.331-24.549,25.331-24.549l14.427,45.323s29.843,8.378,59.672-4.18c1.894-12.558-.711-37.494.474-38l14.441,10.41Z" transform="translate(-1219.7 -297.509)" fill="#6378ff"/>
      <path id="Path_201751" data-name="Path 201751" d="M285.455,304.4H157.307c-5.683,0-9.337,4.044-8.119,8.934l14.682,59.4c.744,3.018,4.8,5.372,9.134,5.372H269.69c4.33,0,8.39-2.354,9.134-5.372l14.682-59.4C294.724,308.444,291.138,304.4,285.455,304.4Z" transform="translate(-136.775 -190.959)" fill="#e6e9ee"/>
      <ellipse id="Ellipse_10556" data-name="Ellipse 10556" cx="15.609" cy="7.079" rx="15.609" ry="7.079" transform="translate(67.251 142.409)" fill="#ced5e0"/>
      <g id="Group_196091" data-name="Group 196091" transform="translate(49.457)">
        <path id="Path_201855" data-name="Path 201855" d="M1336.474,341.2s-2.982-8.439-9.234-5.714c-6.451,4.593-.972,14.8.161,16.3s4.129,6.055,5.536,5.906S1336.474,341.2,1336.474,341.2Z" transform="translate(-1324.151 -286.907)" fill="none" stroke="#4f2524" stroke-width="0.37"/>
        <path id="Path_201856" data-name="Path 201856" d="M1336.474,341.2s-2.982-8.439-9.234-5.714c-6.451,4.593-.972,14.8.161,16.3s4.129,6.055,5.536,5.906S1336.474,341.2,1336.474,341.2Z" transform="translate(-1324.151 -286.907)" fill="#ffb7b8" stroke="#4f2524" stroke-width="0.889"/>
        <path id="Path_201857" data-name="Path 201857" d="M1337.039,349.22c-1.885-3.092-4.262-8.881-8.578-6.776a3.754,3.754,0,0,1,1.382-.764c3.934-.792,6.166,4.32,7.2,7.54" transform="translate(-1325.455 -288.654)" fill="#4f2524"/>
        <path id="Path_201858" data-name="Path 201858" d="M1333.8,349.15c-1.312-1.749-1.322-4.859.651-6.075-1.21,1.84-1.079,3.942-.651,6.075" transform="translate(-1326.793 -289.043)" fill="#4f2524"/>
        <path id="Path_201859" data-name="Path 201859" d="M1337.816,323.093c-.338-.565.026-19.005-.3-21.565s-1.389-21.661,4.214-18.195c1.679,1.039,1.676,3.874,1.676,3.874s-2.625-17.429,8.937-16.8c5.781.317,10.276,3.4,13.324,6.394,3.349,4.259,4.671,5.972,4.652,5.919-.1-.314-7.149-7.567-1.757-11.078,6.186-2.576,14.346,13.512,14.67,13.971s-2.874-6.641,2.284-4.666,11.37,9.012,11.3,14.359-3.474,33.721-5.088,33.95-53.913-6.168-53.913-6.168" transform="translate(-1327.998 -269.91)" fill="#2f2e40"/>
        <path id="Path_201860" data-name="Path 201860" d="M1338.01,322.679c.056.117.007-.029,0-.1-.008-.189-.026-.379-.036-.568-.027-.6-.035-1.207-.044-1.81-.024-1.817-.022-3.634-.02-5.451,0-3.832.056-7.669-.042-11.5-.147-5.726-1.084-11.64.419-17.269.261-.975.758-2.709,1.945-2.767,1.77-.088,2.518,2.312,2.528,3.818q.442-.065.884-.127a23.653,23.653,0,0,1,.852-11.058,7.378,7.378,0,0,1,5.409-5.008c4.366-.85,9.192,1.277,12.683,3.9a15.773,15.773,0,0,1,2.781,2.5c.853,1.048,1.671,2.129,2.5,3.193a18.747,18.747,0,0,0,1.932,2.454.439.439,0,0,0,.636,0v0a.52.52,0,0,0,.071-.575,10.219,10.219,0,0,0-1.21-1.549,15.774,15.774,0,0,1-1.916-3.2,5.154,5.154,0,0,1-.344-3.915,2.993,2.993,0,0,1,2.981-1.971c2.364.163,4.419,2.28,5.942,4a45.325,45.325,0,0,1,4.68,6.529c.538.883,1.056,1.782,1.56,2.687.168.3.5,1.22.973,1.028a.5.5,0,0,0,.331-.459,4.8,4.8,0,0,0-.381-1.335,5.9,5.9,0,0,1-.311-2.324c.362-2.523,5.014.8,5.877,1.443a20.738,20.738,0,0,1,6.6,8.071,12.14,12.14,0,0,1,.763,6.026c-.338,4.694-.9,9.375-1.5,14.038-.608,4.718-1.227,9.468-2.235,14.111-.156.715-.32,1.43-.533,2.13-.092.3-.38.867-.412,1.018-.01.043.142-.018.085-.025-.081-.011-.169,0-.25,0-.3-.016-.606-.038-.908-.061-2.7-.218-5.39-.533-8.079-.83-8.847-.981-17.687-2.036-26.525-3.094-5.919-.708-11.847-1.617-17.783-2.148-.1-.009-.2-.024-.3-.036-.574-.071-.569.88,0,.95q8.051.986,16.1,1.949c9.267,1.112,18.534,2.22,27.809,3.253,2.881.321,5.764.659,8.652.9a3.257,3.257,0,0,0,1.629-.013c.745-.405.962-1.979,1.145-2.723a132.976,132.976,0,0,0,2.349-14.212c.648-4.925,1.247-9.87,1.624-14.828a13.842,13.842,0,0,0-.427-5.78,20.377,20.377,0,0,0-5.883-8.314,18.652,18.652,0,0,0-4.082-2.821c-.985-.485-2.252-1.091-3.365-.768-1.668.484-1.323,2.747-.985,4.072.084.328.182.65.284.971.04.127.127.572.138.385l.331-.458,0,0c.146.04.292.08.438.122.116.1-.085-.163-.145-.268-.168-.3-.335-.6-.5-.906q-.812-1.441-1.681-2.843a40.649,40.649,0,0,0-5.323-7.053c-1.624-1.654-3.814-3.494-6.215-3.331-2.8.19-4.065,3.263-3.409,5.858a12.879,12.879,0,0,0,2.059,4.148,23.332,23.332,0,0,1,1.579,2.057c.024-.192.047-.384.071-.576h.635a16.772,16.772,0,0,1-1.735-2.2,32.556,32.556,0,0,0-4.785-5.395c-3.644-2.988-8.4-5.193-13.1-4.849a7.908,7.908,0,0,0-6.583,4.429,18.5,18.5,0,0,0-1.716,7.869,28.529,28.529,0,0,0,.257,5.09c.08.538.887.4.883-.125-.01-1.719-.652-3.671-2.2-4.453a2.219,2.219,0,0,0-2.857.551,8.677,8.677,0,0,0-1.492,4.04,39.434,39.434,0,0,0-.514,5.883,80.923,80.923,0,0,0,.308,8.641c.3,3.665.119,7.415.113,11.089,0,2.307-.013,4.615.011,6.923.008.768.014,1.537.05,2.3a3.014,3.014,0,0,0,.154,1.146c.265.545,1.042.065.777-.48" transform="translate(-1327.804 -269.736)" fill="#4f2524"/>
        <path id="Path_201861" data-name="Path 201861" d="M1410.256,349.749s4.674-7.533,10.2-3.414c5.329,5.987-2.149,14.659-3.569,15.856s-5.293,4.939-6.635,4.466,0-16.908,0-16.908" transform="translate(-1349.925 -289.584)" fill="#ffb7b8"/>
        <path id="Path_201862" data-name="Path 201862" d="M1410.256,349.749s4.674-7.533,10.2-3.414c5.329,5.987-2.149,14.659-3.569,15.856s-5.293,4.939-6.635,4.466S1410.256,349.749,1410.256,349.749Z" transform="translate(-1349.925 -289.584)" fill="none" stroke="#4f2524" stroke-width="0.37"/>
        <path id="Path_201863" data-name="Path 201863" d="M1410.256,349.749s4.674-7.533,10.2-3.414c5.329,5.987-2.149,14.659-3.569,15.856s-5.293,4.939-6.635,4.466S1410.256,349.749,1410.256,349.749Z" transform="translate(-1349.925 -289.584)" fill="none" stroke="#4f2524" stroke-width="0.889"/>
        <path id="Path_201864" data-name="Path 201864" d="M1409.667,357.784c1.677-2.9,4.927-7.365,8.6-5.672a3.862,3.862,0,0,1,1.188,1.068c-3.771-3.06-7.294,2.026-9.784,4.6" transform="translate(-1349.928 -291.327)" fill="#4f2524"/>
        <path id="Path_201865" data-name="Path 201865" d="M1416.2,358.616c.865-1.98,1.432-4,.637-6.076,1.67,1.647,1.009,4.677-.637,6.076" transform="translate(-1351.908 -291.537)" fill="#4f2524"/>
        <path id="Path_201866" data-name="Path 201866" d="M1339.29,308.935c.95-.518,1.055-9.957,13.558-12.574s24.67,3.549,24.67,3.549a16.341,16.341,0,0,1,9.379,15.6c-.337,11.617.223,48.546.223,48.546s2.22,11.57-9.5,18.34c-6.221,4.3-33.094,3.716-43.132-5.663-9.606-7.565-5.254-18.7-5.384-19.541s10.183-48.26,10.183-48.26" transform="translate(-1325.28 -276.604)" fill="#ffb7b8"/>
        <path id="Path_201867" data-name="Path 201867" d="M1339.29,308.935c.95-.518,1.055-9.957,13.558-12.574s24.67,3.549,24.67,3.549a16.341,16.341,0,0,1,9.379,15.6c-.337,11.617.223,48.546.223,48.546s2.22,11.57-9.5,18.34c-6.221,4.3-33.094,3.716-43.132-5.663-9.606-7.565-5.254-18.7-5.384-19.541S1339.29,308.935,1339.29,308.935Z" transform="translate(-1325.28 -276.604)" fill="none" stroke="#4f2524" stroke-width="0.37"/>
        <path id="Path_201868" data-name="Path 201868" d="M1356.166,314.256c4.229,2.922,3.309,8.793,2.229,13.986s-3.347,20.328-3.347,20.328-.838,2.282,2.223,4.044a24.638,24.638,0,0,0,7.837,2.327c2.617.309-7.593,1.622-10.427-.393s-3.9-3.262-3.21-4.721,3.327-13.889,3.327-13.889,3.213-10.873-.116-14.5-13.2,0-13.2,0v-4.887S1351.937,311.333,1356.166,314.256Z" transform="translate(-1323.711 -281.089)" fill="#e79e9c" opacity="0.46"/>
        <path id="Path_201869" data-name="Path 201869" d="M1350.64,376.166c.042.005.254.362.779.863.059.057,6.358,4.194,16.974,2.748,9.879-2.519,9.8-3.919,10.47-4.323,0,0-3.412,10.6-8.921,14-5.974,2.92-10.244,1.236-11.712-.161-1.19-1.048-1.519-1.45-3.458-5.563a33.607,33.607,0,0,0-4.133-7.561" transform="translate(-1332.062 -297.583)" fill="#833231"/>
        <path id="Path_201870" data-name="Path 201870" d="M1362.627,380.311s-1.173,4.985.748,5.892c1.144.543,8.7,1.346,12.939-2.64a12.641,12.641,0,0,0,3.484-5.754s-5.578,2.423-7.885,2.588c-2.865.855-9.287-.086-9.287-.086" transform="translate(-1335.585 -298.201)" fill="#fff"/>
        <path id="Path_201871" data-name="Path 201871" d="M1362.281,382.828c.022.273,4.587,1.565,15.973-1.9a14.612,14.612,0,0,0,1.467-3.537c.3-.7-7.165,4.771-17.089,3.069,0,0-.373,2.092-.352,2.366" transform="translate(-1335.585 -298.074)" fill="#becbce"/>
        <path id="Path_201872" data-name="Path 201872" d="M1349.436,377.657c0-.022.011-.092,0-.018s0,0,0-.024.01-.062.015-.093a4.2,4.2,0,0,1,.125-.518c.017-.052.033-.1.052-.154.009-.027.02-.053.029-.08l.015-.04c-.012.033-.019.046,0,.006a3.389,3.389,0,0,1,.157-.325c.031-.055.063-.108.1-.161.015-.023.031-.045.046-.069.031-.047,0,0-.005.007.015-.019.029-.038.044-.057a2.051,2.051,0,0,1,.266-.281c.012-.011.024-.021.037-.032-.051.042,0,0,.007,0,.031-.021.061-.044.092-.065.063-.042.131-.077.2-.113.051-.027.011-.006,0,0l.073-.03c.039-.015.077-.027.115-.039a1.836,1.836,0,0,1,.261-.06.324.324,0,0,0,.21-.392.307.307,0,0,0-.371-.222,2.755,2.755,0,0,0-2.017,2.4,3.627,3.627,0,0,0-.053.362.313.313,0,0,0,.3.318.317.317,0,0,0,.3-.318" transform="translate(-1331.515 -297.427)" fill="#4c1f1f"/>
        <path id="Path_201873" data-name="Path 201873" d="M1389.4,373.694c-.046-.021-.057-.031-.085-.046s-.034-.028-.017-.012c.051.049-.031-.054-.012-.018s.05.078.075.116a3.7,3.7,0,0,0,.3.414,3.752,3.752,0,0,0,1.351.951,7.028,7.028,0,0,0,1.45.452.307.307,0,0,0,.371-.222.324.324,0,0,0-.211-.391,5.341,5.341,0,0,1-2.1-.832l-.067-.051c-.014-.011-.079-.063-.035-.027-.044-.038-.089-.077-.131-.116a2.635,2.635,0,0,1-.211-.222c-.027-.031-.053-.063-.078-.1-.012-.015-.023-.032-.037-.049.036.047.025.035,0,0s-.067-.1-.1-.153a.7.7,0,0,0-.308-.314.3.3,0,0,0-.371.222.328.328,0,0,0,.211.391" transform="translate(-1343.728 -296.949)" fill="#4c1f1f"/>
        <path id="Path_201874" data-name="Path 201874" d="M1350.457,376.274c.4.323.646.8,1.1,1.065a14.973,14.973,0,0,0,1.535.768,25.067,25.067,0,0,0,6.737,1.843,26.343,26.343,0,0,0,10.708-.623,29.975,29.975,0,0,0,6.6-2.42c.656-.367,1.124-.959,1.739-1.344l-.295-.24a40.192,40.192,0,0,1-2.015,4.937,24.084,24.084,0,0,1-5.561,8.01,11.469,11.469,0,0,1-10.778,1.937c-2.117-.8-3.322-2.49-4.337-4.517-1.662-3.324-2.954-6.781-5.2-9.75-.161-.214-.444.088-.284.3,2.22,2.937,3.491,6.376,5.135,9.664a8.8,8.8,0,0,0,4.118,4.524,11.924,11.924,0,0,0,10.46-.974c2.757-1.7,4.7-4.89,6.194-7.775a41.477,41.477,0,0,0,2.653-6.243.206.206,0,0,0-.3-.24c-.452.282-.79.749-1.245,1.047a20.921,20.921,0,0,1-5.417,2.211,26.307,26.307,0,0,1-5.608,1.241,31.283,31.283,0,0,1-5.221-.017,25.9,25.9,0,0,1-7.3-1.694,16.167,16.167,0,0,1-2.046-.967c-.491-.281-.744-.762-1.181-1.11-.206-.165-.406.2-.2.366" transform="translate(-1331.979 -297.511)" fill="#4c1f1f"/>
        <path id="Path_201875" data-name="Path 201875" d="M1387.3,311.638s.469-2.9,3.252-2.41a10.167,10.167,0,0,1,5.546,2.82s2.154,1.688,1.515,3.618c-.853,2.164-2.075,1.675-2.176,1.605a16.1,16.1,0,0,0-6.411-2.736c-2.468-.263-1.727-2.9-1.727-2.9" transform="translate(-1343.128 -280.104)" fill="#552424"/>
        <path id="Path_201876" data-name="Path 201876" d="M1387.3,311.638s.469-2.9,3.252-2.41a10.167,10.167,0,0,1,5.546,2.82s2.154,1.688,1.515,3.618c-.853,2.164-2.075,1.675-2.176,1.605a16.1,16.1,0,0,0-6.411-2.736c-2.468-.263-1.727-2.9-1.727-2.9" transform="translate(-1343.128 -280.104)" fill="#2f2e40"/>
        <path id="Path_201877" data-name="Path 201877" d="M1387.3,311.638s.469-2.9,3.252-2.41a10.167,10.167,0,0,1,5.546,2.82s2.154,1.688,1.515,3.618c-.853,2.164-2.075,1.675-2.176,1.605a16.1,16.1,0,0,0-6.411-2.736C1386.56,314.274,1387.3,311.638,1387.3,311.638Z" transform="translate(-1343.128 -280.104)" fill="none" stroke="#4f2524" stroke-width="0.43"/>
        <path id="Path_201878" data-name="Path 201878" d="M1352.426,297.217s-6.882,14.682-6.736,21.047,6.465,9.026,6.465,9.026l-9.8,1.221s-10.363,27.759-8.305,37.1c.481,7.338,4.453,10.332,4.453,10.332s7.749,8.335,32.665,5.822c10.326-1.159,11.026-3.228,11.575-3.094s-3.693,7.177-22.312,6.865c-17.5-1.23-26.855-9.2-26.855-9.2s-7.647-4.93-3.9-20.765c4.011-16.927,10.321-47.368,10.321-47.368s1.648-5.547,3.073-6.5,6.112-3.9,9.356-4.494" transform="translate(-1325.402 -276.999)" fill="#e79e9c"/>
        <path id="Path_201879" data-name="Path 201879" d="M1358.95,312.351a2.724,2.724,0,0,0-2.528-2.935,9.414,9.414,0,0,0-5.682,1.369s-2.323,1.076-2.115,2.993c.36,2.178,1.586,2,1.694,1.958a14.956,14.956,0,0,1,6.462-1.1c2.331.3,2.169-2.284,2.169-2.284" transform="translate(-1331.447 -280.155)" fill="#552424"/>
        <path id="Path_201880" data-name="Path 201880" d="M1358.95,312.351a2.724,2.724,0,0,0-2.528-2.935,9.414,9.414,0,0,0-5.682,1.369s-2.323,1.076-2.115,2.993c.36,2.178,1.586,2,1.694,1.958a14.956,14.956,0,0,1,6.462-1.1c2.331.3,2.169-2.284,2.169-2.284" transform="translate(-1331.447 -280.155)" fill="#2f2e40"/>
        <path id="Path_201881" data-name="Path 201881" d="M1358.95,312.351a2.724,2.724,0,0,0-2.528-2.935,9.414,9.414,0,0,0-5.682,1.369s-2.323,1.076-2.115,2.993c.36,2.178,1.586,2,1.694,1.958a14.956,14.956,0,0,1,6.462-1.1C1359.112,314.938,1358.95,312.351,1358.95,312.351Z" transform="translate(-1331.447 -280.155)" fill="none" stroke="#4f2524" stroke-width="0.43"/>
        <path id="Path_201882" data-name="Path 201882" d="M1339.318,308.935c.634-1.29,1.054-9.957,13.558-12.574s24.671,3.549,24.671,3.549a16.34,16.34,0,0,1,9.379,15.6c-.337,11.617.366,47.2.375,48.748-.148,2.109,1.206,13.716-10.644,18.615-8.059,3.825-32.1,3.239-42.138-6.14-7.932-6.435-6.341-13.318-5.384-19.541S1339.318,308.935,1339.318,308.935Z" transform="translate(-1325.308 -276.604)" fill="none" stroke="#4f2524" stroke-width="0.889"/>
        <path id="Path_201883" data-name="Path 201883" d="M1361.428,335.574c-.457,3.487-1.828,8.412-2.578,11.9-.458,1.974-.919,3.951-1.339,5.927-.277,1.742-1.23,4.09.21,5.5,3.321,3.2,8.385,3.1,12.568,2.331a30.739,30.739,0,0,1-3.29.547c-3.247.306-7.165-.217-9.533-2.48-1.746-1.56-.91-4.081-.534-6.033,1.479-5.907,2.65-11.9,4.495-17.683" transform="translate(-1328.858 -287.088)" fill="#843616"/>
        <g id="Group_196092" data-name="Group 196092" transform="translate(15.545 43.089)">
          <path id="Path_201884" data-name="Path 201884" d="M1357.405,333.175a6.89,6.89,0,0,1-7.5,6.333,7.1,7.1,0,0,1-5.993-7.929,6.89,6.89,0,0,1,7.5-6.332,7.1,7.1,0,0,1,5.994,7.929" transform="translate(-1343.865 -325.201)" fill="#fff"/>
          <path id="Path_201885" data-name="Path 201885" d="M1357.405,333.175a6.89,6.89,0,0,1-7.5,6.333,7.1,7.1,0,0,1-5.993-7.929,6.89,6.89,0,0,1,7.5-6.332A7.1,7.1,0,0,1,1357.405,333.175Z" transform="translate(-1343.865 -325.201)" fill="none" stroke="#843616" stroke-width="0.445"/>
          <path id="Path_201886" data-name="Path 201886" d="M1350.974,335.387a3.617,3.617,0,0,1-3.94,3.325,3.725,3.725,0,0,1-3.146-4.164,3.617,3.617,0,0,1,3.94-3.325,3.725,3.725,0,0,1,3.146,4.164" transform="translate(-1341.347 -324.649)" fill="#642e2a"/>
          <path id="Path_201887" data-name="Path 201887" d="M1350.974,335.387a3.617,3.617,0,0,1-3.94,3.325,3.725,3.725,0,0,1-3.146-4.164,3.617,3.617,0,0,1,3.94-3.325A3.725,3.725,0,0,1,1350.974,335.387Z" transform="translate(-1341.347 -324.649)" fill="none" stroke="#4f2524" stroke-width="0.387"/>
          <path id="Path_201888" data-name="Path 201888" d="M1347.856,333.875a.944.944,0,0,1-1.028.867.972.972,0,0,1-.821-1.086.944.944,0,0,1,1.028-.867.972.972,0,0,1,.821,1.086" transform="translate(-1341.063 -322.463)" fill="#fff"/>
        </g>
        <path id="Path_201889" data-name="Path 201889" d="M1392.784,337.445a6.889,6.889,0,0,1-7.5,6.333,7.1,7.1,0,0,1-5.993-7.929,6.889,6.889,0,0,1,7.5-6.332,7.1,7.1,0,0,1,5.993,7.929" transform="translate(-1340.719 -285.46)" fill="#fff"/>
        <path id="Path_201890" data-name="Path 201890" d="M1392.784,337.445a6.889,6.889,0,0,1-7.5,6.333,7.1,7.1,0,0,1-5.993-7.929,6.889,6.889,0,0,1,7.5-6.332A7.1,7.1,0,0,1,1392.784,337.445Z" transform="translate(-1340.719 -285.46)" fill="none" stroke="#843616" stroke-width="0.445"/>
        <path id="Path_201891" data-name="Path 201891" d="M1386.216,338.879a3.617,3.617,0,0,1-3.941,3.325,3.725,3.725,0,0,1-3.146-4.164,3.617,3.617,0,0,1,3.94-3.325,3.725,3.725,0,0,1,3.147,4.163" transform="translate(-1337.534 -284.428)" fill="#642e2a"/>
        <path id="Path_201892" data-name="Path 201892" d="M1386.216,338.879a3.617,3.617,0,0,1-3.941,3.325,3.725,3.725,0,0,1-3.146-4.164,3.617,3.617,0,0,1,3.94-3.325A3.725,3.725,0,0,1,1386.216,338.879Z" transform="translate(-1337.534 -284.428)" fill="none" stroke="#4f2524" stroke-width="0.387"/>
        <path id="Path_201893" data-name="Path 201893" d="M1383.1,337.366a.943.943,0,0,1-1.028.867.972.972,0,0,1-.821-1.086.945.945,0,0,1,1.028-.867.972.972,0,0,1,.821,1.086" transform="translate(-1337.171 -282.037)" fill="#fff"/>
      </g>
    </g>
  </g>
</svg>
