<svg xmlns="http://www.w3.org/2000/svg" xmlns:xlink="http://www.w3.org/1999/xlink" width="303.179" height="189.681" viewBox="0 0 303.179 189.681">
  <defs>
    <linearGradient id="linear-gradient" x1="1.974" y1="2.303" x2="3.094" y2="3.003" gradientUnits="objectBoundingBox">
      <stop offset="0" stop-color="#f5cbfb"/>
      <stop offset="1" stop-color="#84d4ff"/>
    </linearGradient>
    <linearGradient id="linear-gradient-2" x1="1.895" y1="2.18" x2="2.947" y2="2.842" xlink:href="#linear-gradient"/>
    <linearGradient id="linear-gradient-3" x1="-3.023" y1="6.595" x2="-2.117" y2="7.819" xlink:href="#linear-gradient"/>
    <linearGradient id="linear-gradient-4" x1="-2.902" y1="5.624" x2="-2.02" y2="6.649" xlink:href="#linear-gradient"/>
    <linearGradient id="linear-gradient-5" x1="1.737" y1="1.607" x2="0.95" y2="2.789" xlink:href="#linear-gradient"/>
    <linearGradient id="linear-gradient-6" x1="1.85" y1="1.301" x2="1.064" y2="2.226" xlink:href="#linear-gradient"/>
    <linearGradient id="linear-gradient-7" y1="0.5" x2="1" y2="0.5" gradientUnits="objectBoundingBox">
      <stop offset="0" stop-color="#4f55b3"/>
      <stop offset="1" stop-color="#251978"/>
    </linearGradient>
    <linearGradient id="linear-gradient-8" y1="0.5" x2="1" y2="0.5" gradientUnits="objectBoundingBox">
      <stop offset="0" stop-color="#5d64c2"/>
      <stop offset="1" stop-color="#251978"/>
    </linearGradient>
    <linearGradient id="linear-gradient-12" x1="0" y1="0.5" x2="1" y2="0.5" xlink:href="#linear-gradient-8"/>
    <linearGradient id="linear-gradient-14" y1="0.5" x2="1" y2="0.5" gradientUnits="objectBoundingBox">
      <stop offset="0" stop-color="#ffdd4f"/>
      <stop offset="1" stop-color="#ff8f5c"/>
    </linearGradient>
    <linearGradient id="linear-gradient-16" y1="0.5" x2="1" y2="0.5" gradientUnits="objectBoundingBox">
      <stop offset="0" stop-color="#ff66ba"/>
      <stop offset="1" stop-color="#8a1988"/>
    </linearGradient>
    <linearGradient id="linear-gradient-17" y1="0.5" x2="1" y2="0.5" gradientUnits="objectBoundingBox">
      <stop offset="0" stop-color="#8a1988"/>
      <stop offset="1" stop-color="#ff66ba"/>
    </linearGradient>
    <linearGradient id="linear-gradient-19" y1="0.5" x2="1" y2="0.5" gradientUnits="objectBoundingBox">
      <stop offset="0" stop-color="#ad88ff"/>
      <stop offset="1" stop-color="#6038ba"/>
    </linearGradient>
    <linearGradient id="linear-gradient-20" x1="0" y1="0.5" x2="1" y2="0.5" xlink:href="#linear-gradient-8"/>
    <linearGradient id="linear-gradient-22" x1="0" y1="0.5" x2="1" y2="0.5" xlink:href="#linear-gradient-14"/>
    <linearGradient id="linear-gradient-26" x1="0" y1="0.5" x2="1" y2="0.5" xlink:href="#linear-gradient-14"/>
    <linearGradient id="linear-gradient-27" y1="0.5" x2="1" y2="0.5" gradientUnits="objectBoundingBox">
      <stop offset="0" stop-color="#ff7ace"/>
      <stop offset="1" stop-color="#ff2eb2"/>
    </linearGradient>
    <linearGradient id="linear-gradient-28" x1="0.001" y1="0.5" x2="1" y2="0.5" xlink:href="#linear-gradient-27"/>
    <linearGradient id="linear-gradient-29" x1="0.13" y1="0.11" x2="0.924" y2="0.945" xlink:href="#linear-gradient-14"/>
    <linearGradient id="linear-gradient-30" x1="0.13" y1="0.11" x2="0.924" y2="0.945" xlink:href="#linear-gradient-14"/>
    <linearGradient id="linear-gradient-32" x1="0" y1="0.5" x2="1" y2="0.5" xlink:href="#linear-gradient-8"/>
    <linearGradient id="linear-gradient-33" x1="0.145" y1="0.038" x2="0.912" y2="0.942" xlink:href="#linear-gradient-19"/>
    <linearGradient id="linear-gradient-35" x1="0" y1="0.5" x2="1" y2="0.5" xlink:href="#linear-gradient-27"/>
    <linearGradient id="linear-gradient-36" x1="0" y1="0.5" x2="1" y2="0.5" xlink:href="#linear-gradient-27"/>
    <linearGradient id="linear-gradient-37" x1="22.572" y1="-17.62" x2="23.737" y2="-17.62" xlink:href="#linear-gradient-27"/>
    <linearGradient id="linear-gradient-38" x1="7.074" y1="-4.306" x2="7.951" y2="-4.306" xlink:href="#linear-gradient-19"/>
    <linearGradient id="linear-gradient-39" x1="-2.279" y1="-5.933" x2="-1.282" y2="-5.933" xlink:href="#linear-gradient-14"/>
    <linearGradient id="linear-gradient-40" x1="-54.581" y1="-10.214" x2="-53.161" y2="-10.214" xlink:href="#linear-gradient-14"/>
    <linearGradient id="linear-gradient-41" x1="-15.712" y1="-10.178" x2="-14.71" y2="-10.178" xlink:href="#linear-gradient-14"/>
    <linearGradient id="linear-gradient-42" x1="-7.563" y1="-3.508" x2="-6.542" y2="-3.508" xlink:href="#linear-gradient-14"/>
    <linearGradient id="linear-gradient-43" x1="-52.413" y1="-10.178" x2="-51.036" y2="-10.178" xlink:href="#linear-gradient-14"/>
    <linearGradient id="linear-gradient-44" x1="-46.166" y1="-10.041" x2="-44.789" y2="-10.041" xlink:href="#linear-gradient-14"/>
    <linearGradient id="linear-gradient-45" x1="-40.926" y1="-9.926" x2="-39.549" y2="-9.926" xlink:href="#linear-gradient-14"/>
  </defs>
  <g id="Group_196389" data-name="Group 196389" transform="translate(-1189.83 -30)">
    <g id="user-login-error" transform="translate(1189.83 30)">
      <path id="Path_201976" data-name="Path 201976" d="M357.372,662.828l-1.577,1.608a27.771,27.771,0,0,0-1.073-6.088c-1.954-5.817-7.5-9.664-13.113-12.141s-11.682-4.051-16.8-7.436c-1.452-.959-2.955-2.375-2.769-4.1a2.839,2.839,0,0,1,.315-1.007,63.387,63.387,0,0,1,8.124,1.474,44.383,44.383,0,0,1,11.9,4.8,33.829,33.829,0,0,1,8.135,6.756,27.726,27.726,0,0,1,5.324,8.955,28.459,28.459,0,0,1,1.238,5.253C357.172,661.539,357.263,662.183,357.372,662.828Z" transform="translate(-251.373 -510.748)" fill="url(#linear-gradient)"/>
      <path id="Path_201977" data-name="Path 201977" d="M360.7,650.3l-2.136,2.18-.19.195c-.109-.645-.2-1.289-.3-1.933a28.46,28.46,0,0,0-1.238-5.253,27.722,27.722,0,0,0-5.324-8.955,33.822,33.822,0,0,0-8.135-6.756,44.382,44.382,0,0,0-11.9-4.8,63.413,63.413,0,0,0-8.123-1.474,2.153,2.153,0,0,1,.119-.21,5.034,5.034,0,0,1,1.5-1.5c2.894-1.962,6.709-1.9,10.139-1.21a33.834,33.834,0,0,1,24.263,20.053C360.618,643.7,361.408,647.076,360.7,650.3Z" transform="translate(-252.374 -500.594)" fill="url(#linear-gradient-2)"/>
      <path id="Path_201978" data-name="Path 201978" d="M358.563,662l-.19.195c-.109-.645-.2-1.289-.3-1.932a28.456,28.456,0,0,0-1.239-5.253,27.721,27.721,0,0,0-5.324-8.955,33.822,33.822,0,0,0-8.135-6.756,44.384,44.384,0,0,0-11.9-4.8,63.436,63.436,0,0,0-8.124-1.474,2.159,2.159,0,0,1,.119-.21,62.024,62.024,0,0,1,9.575,1.878,42.514,42.514,0,0,1,11.508,5.079,33.518,33.518,0,0,1,7.872,7.03,27.342,27.342,0,0,1,4.951,9.154,38.356,38.356,0,0,1,1.088,5.437C358.5,661.6,358.531,661.8,358.563,662Z" transform="translate(-252.374 -510.114)" fill="#fff"/>
      <path id="Path_201979" data-name="Path 201979" d="M339,726.922l-.817,2.1a27.759,27.759,0,0,0-3.383-5.174c-4.085-4.578-10.7-5.932-16.833-6s-12.333.873-18.37-.224c-1.712-.31-3.651-1.02-4.161-2.683a2.834,2.834,0,0,1-.107-1.05,63.433,63.433,0,0,1,8.048-1.843,44.376,44.376,0,0,1,12.827-.272,33.824,33.824,0,0,1,10.137,3.009,27.73,27.73,0,0,1,8.419,6.137,28.448,28.448,0,0,1,3.206,4.341C338.307,725.816,338.643,726.372,339,726.922Z" transform="translate(-231.296 -569.208)" fill="url(#linear-gradient-3)"/>
      <path id="Path_201980" data-name="Path 201980" d="M340.232,707.089l-1.105,2.844-.1.254c-.354-.55-.69-1.106-1.034-1.66a28.462,28.462,0,0,0-3.206-4.341,27.725,27.725,0,0,0-8.419-6.137,33.823,33.823,0,0,0-10.137-3.009,44.386,44.386,0,0,0-12.827.272,63.425,63.425,0,0,0-8.048,1.843,2.155,2.155,0,0,1,.027-.24,5.033,5.033,0,0,1,.787-1.967c1.889-2.943,5.422-4.382,8.845-5.1a33.834,33.834,0,0,1,30.2,8.885C337.558,701.051,339.615,703.847,340.232,707.089Z" transform="translate(-231.327 -552.474)" fill="url(#linear-gradient-4)"/>
      <path id="Path_201981" data-name="Path 201981" d="M339.127,726l-.1.254c-.354-.55-.69-1.106-1.034-1.66a28.457,28.457,0,0,0-3.206-4.341,27.726,27.726,0,0,0-8.419-6.137,33.826,33.826,0,0,0-10.137-3.009,44.384,44.384,0,0,0-12.827.272,63.423,63.423,0,0,0-8.048,1.843,2.156,2.156,0,0,1,.027-.24,62.023,62.023,0,0,1,9.541-2.042,42.512,42.512,0,0,1,12.578.14,33.513,33.513,0,0,1,10,3.364,27.345,27.345,0,0,1,8.154,6.466,38.328,38.328,0,0,1,3.14,4.57C338.908,725.656,339.017,725.828,339.127,726Z" transform="translate(-231.327 -568.542)" fill="#fff"/>
      <path id="Path_201982" data-name="Path 201982" d="M798.117,310.3l-.947,9.958c.972-.628,2.016-1.161,3.026-1.709a19.481,19.481,0,0,0,2.872-1.813,10.475,10.475,0,0,0,2.242-2.544,16.134,16.134,0,0,1,1.968-2.7,7.668,7.668,0,0,1,2.171-1.477c1.647-.784,3.447-1.168,5.112-1.9a8.219,8.219,0,0,0,2.311-1.457,12.087,12.087,0,0,0,2-2.63,25.53,25.53,0,0,1,1.816-2.756,9.819,9.819,0,0,1,2.062-1.9,12.782,12.782,0,0,1,5.212-2.025c4.529-.746,9.027.673,13.223,2.255.248.094.5.188.745.285.49-2.574-3.156-4.828-5.5-5.4-1.6-.393-3.289.068-4.93-.077-8.318-.726-13.581-3.877-18.032,5.479a8.976,8.976,0,0,1-1.8,2.951C807.823,305.852,798.692,303.119,798.117,310.3Z" transform="translate(-608.542 -254.901)" fill="url(#linear-gradient-5)"/>
      <path id="Path_201983" data-name="Path 201983" d="M803.146,343.2c6.62,2.84,13.816-2.639,9.864-10.461-2.826-4.075,1.247-6.285,4.819-6.969,1.773-.342,3.915-.31,4.93-1.8,1.813-3.426-2.527-8.2,5.126-9.572,4.318-.776,12.035,3.422,13.7-2.034.007-.026.016-.053.021-.079-3.983-1.529-8.162-3.018-12.482-2.7a13.743,13.743,0,0,0-5.473,1.509,10.307,10.307,0,0,0-2.267,1.626,12.356,12.356,0,0,0-1.9,2.441c-.58.931-1.115,1.895-1.784,2.768a7.813,7.813,0,0,1-2.111,1.94,25.134,25.134,0,0,1-4.855,1.933,12.5,12.5,0,0,0-2.415,1.11,7.507,7.507,0,0,0-2.134,2.086c-.638.907-1.169,1.887-1.877,2.744a10.541,10.541,0,0,1-2.423,2.09c-1.617,1.057-3.411,1.822-5.023,2.888a9.98,9.98,0,0,0,6.275,10.488Z" transform="translate(-608.267 -267.1)" fill="url(#linear-gradient-6)"/>
      <path id="Path_201984" data-name="Path 201984" d="M797.1,331.855l-.023.257c1.611-1.065,3.406-1.831,5.023-2.888a10.544,10.544,0,0,0,2.423-2.09c.708-.856,1.239-1.837,1.877-2.744a7.5,7.5,0,0,1,2.134-2.086,12.522,12.522,0,0,1,2.415-1.11,25.147,25.147,0,0,0,4.855-1.933,7.811,7.811,0,0,0,2.111-1.94c.669-.873,1.2-1.837,1.784-2.768a12.349,12.349,0,0,1,1.9-2.441,10.316,10.316,0,0,1,2.267-1.626,13.742,13.742,0,0,1,5.473-1.509c4.32-.314,8.5,1.174,12.482,2.7.019-.067.035-.133.047-.2-.249-.1-.5-.19-.745-.285-4.2-1.582-8.694-3-13.223-2.255a12.778,12.778,0,0,0-5.212,2.025,9.817,9.817,0,0,0-2.062,1.9,25.552,25.552,0,0,0-1.816,2.756,12.087,12.087,0,0,1-2,2.63,8.227,8.227,0,0,1-2.311,1.456c-1.665.736-3.465,1.119-5.112,1.9a7.668,7.668,0,0,0-2.171,1.477,16.111,16.111,0,0,0-1.968,2.7A10.464,10.464,0,0,1,803,328.333a19.484,19.484,0,0,1-2.872,1.813C799.115,330.694,798.071,331.227,797.1,331.855Z" transform="translate(-608.471 -266.502)" fill="#fff"/>
      <path id="Path_201985" data-name="Path 201985" d="M426.164,288.281a.167.167,0,0,1-.145-.173.18.18,0,0,1,.133-.2c.442-.047.893-.107,1.343-.178.08-.013.152.061.162.165a.184.184,0,0,1-.127.21q-.681.107-1.366.181Zm4.015-.723a.161.161,0,0,1-.142-.153.192.192,0,0,1,.115-.221q1.327-.332,2.625-.767c.079-.025.157.035.177.136a.2.2,0,0,1-.1.23q-1.306.437-2.643.772a.106.106,0,0,1-.028,0Zm5.228-1.744a.155.155,0,0,1-.138-.131.2.2,0,0,1,.094-.237q1.289-.538,2.539-1.163c.075-.038.159.011.188.108a.21.21,0,0,1-.083.244q-1.257.629-2.555,1.17A.124.124,0,0,1,435.407,285.814Zm5.039-2.521a.148.148,0,0,1-.133-.111.215.215,0,0,1,.072-.25q1.235-.726,2.419-1.534a.13.13,0,0,1,.2.079.22.22,0,0,1-.061.255q-1.191.813-2.434,1.544A.12.12,0,0,1,440.446,283.293Zm4.775-3.27a.142.142,0,0,1-.124-.09.224.224,0,0,1,.048-.259q1.159-.919,2.245-1.924a.125.125,0,0,1,.2.044.227.227,0,0,1-.034.263q-1.094,1.012-2.262,1.939a.118.118,0,0,1-.076.028Zm4.387-4.081a.133.133,0,0,1-.111-.067.23.23,0,0,1,.017-.266q1.04-1.14,1.965-2.376a.123.123,0,0,1,.206,0,.231.231,0,0,1,0,.267q-.935,1.248-1.986,2.4a.128.128,0,0,1-.094.044Zm3.738-5.043a.126.126,0,0,1-.088-.038.228.228,0,0,1-.028-.264,24.145,24.145,0,0,0,1.452-2.916.13.13,0,0,1,.2-.077.22.22,0,0,1,.059.256,24.549,24.549,0,0,1-1.477,2.965A.137.137,0,0,1,453.348,270.9Zm2.509-6.165a.118.118,0,0,1-.042-.008.2.2,0,0,1-.1-.236,18.418,18.418,0,0,0,.473-3.393c0-.1.071-.186.153-.178a.178.178,0,0,1,.137.2A18.893,18.893,0,0,1,456,264.6a.156.156,0,0,1-.139.134Zm.285-6.925a.161.161,0,0,1-.142-.151,18.049,18.049,0,0,0-.838-3.279.216.216,0,0,1,.071-.251.134.134,0,0,1,.193.092,18.545,18.545,0,0,1,.859,3.362.193.193,0,0,1-.114.223.121.121,0,0,1-.029,0Zm-2.217-6.337a.138.138,0,0,1-.118-.079q-.246-.445-.513-.879a16.269,16.269,0,0,0-1.225-1.726.231.231,0,0,1-.005-.267.123.123,0,0,1,.205-.007,16.577,16.577,0,0,1,1.252,1.764q.271.441.522.894a.227.227,0,0,1-.033.263A.123.123,0,0,1,453.924,251.473Zm-3.847-4.815a.123.123,0,0,1-.082-.034,23.81,23.81,0,0,0-2.289-1.8.22.22,0,0,1-.06-.255.13.13,0,0,1,.2-.077,24.106,24.106,0,0,1,2.317,1.823.226.226,0,0,1,.037.262A.139.139,0,0,1,450.077,246.658Zm-4.734-3.33a.118.118,0,0,1-.058-.015q-1.227-.688-2.5-1.283a.207.207,0,0,1-.087-.242c.027-.1.11-.149.186-.114q1.284.6,2.521,1.292a.214.214,0,0,1,.076.248A.15.15,0,0,1,445.343,243.328Zm-5.077-2.391a.112.112,0,0,1-.042-.008q-1.286-.509-2.595-.955a.2.2,0,0,1-.1-.231c.02-.1.1-.161.178-.135q1.314.448,2.606.959a.2.2,0,0,1,.1.235.157.157,0,0,1-.139.134Zm-5.225-1.794a.113.113,0,0,1-.032,0c-.85-.253-1.738-.5-2.639-.735a.193.193,0,0,1-.114-.222c.016-.1.093-.168.171-.148.9.236,1.794.484,2.647.737a.2.2,0,0,1,.109.226A.159.159,0,0,1,435.041,239.143Zm-5.3-1.388a.112.112,0,0,1-.026,0q-1.328-.306-2.663-.58a.188.188,0,0,1-.121-.216c.012-.1.087-.172.166-.157.913.188,1.811.383,2.669.581a.191.191,0,0,1,.118.219.162.162,0,0,1-.143.156Zm-5.339-1.1-.021,0q-1.336-.245-2.677-.465a.185.185,0,0,1-.126-.211c.01-.1.083-.176.162-.163.909.15,1.811.306,2.681.466a.187.187,0,0,1,.124.213.164.164,0,0,1-.144.162Zm-5.363-.884h-.017q-1.341-.2-2.685-.378a.183.183,0,0,1-.13-.207c.008-.1.081-.18.159-.168.9.121,1.809.248,2.689.378a.184.184,0,0,1,.128.209.166.166,0,0,1-.144.168Zm-5.377-.721h-.014q-1.345-.163-2.691-.311a.181.181,0,0,1-.133-.2c.007-.1.076-.181.157-.172q1.358.149,2.694.311a.182.182,0,0,1,.131.206.166.166,0,0,1-.144.171Zm-5.386-.595h-.011q-1.338-.135-2.694-.259a.179.179,0,0,1-.135-.2.167.167,0,0,1,.155-.175q1.357.125,2.7.259a.18.18,0,0,1,.134.2A.168.168,0,0,1,408.276,234.455Zm-5.392-.5h-.009q-1.342-.113-2.7-.219a.178.178,0,0,1-.136-.2c0-.1.076-.185.154-.177q1.356.106,2.7.219a.178.178,0,0,1,.136.2A.168.168,0,0,1,402.884,233.958Zm-5.4-.421h-.008q-1.344-.1-2.7-.188a.177.177,0,0,1-.138-.2c0-.1.071-.186.152-.179q1.354.091,2.7.188a.178.178,0,0,1,.137.2.168.168,0,0,1-.145.178Zm-5.4-.364h-.007q-1.346-.085-2.7-.165a.176.176,0,0,1-.139-.2c0-.1.073-.192.152-.18q1.353.081,2.7.165a.176.176,0,0,1,.138.2.169.169,0,0,1-.145.18Zm-5.393-.322h-.006q-1.348-.077-2.7-.15a.176.176,0,0,1-.139-.2c0-.1.073-.188.151-.181q1.351.074,2.7.15a.176.176,0,0,1,.139.2A.169.169,0,0,1,386.7,232.852Zm-5.405-.3h-.006l-2.7-.142a.176.176,0,0,1-.14-.2c0-.1.068-.19.151-.181l2.7.142a.176.176,0,0,1,.139.2A.17.17,0,0,1,381.292,232.556Zm-5.4-.281h-.006l-2.7-.139a.176.176,0,0,1-.14-.2c0-.1.073-.192.151-.181l2.7.139a.176.176,0,0,1,.14.2A.169.169,0,0,1,375.892,232.275Zm-5.4-.28h-.006l-2.7-.144a.176.176,0,0,1-.139-.2c0-.1.068-.195.151-.181l2.7.144a.176.176,0,0,1,.139.2.169.169,0,0,1-.145.181Zm-5.4-.292h-.006q-1.355-.076-2.7-.155a.176.176,0,0,1-.139-.2c0-.1.073-.187.152-.18q1.345.079,2.7.155a.176.176,0,0,1,.139.2A.17.17,0,0,1,365.09,231.7Zm-5.4-.318h-.007q-1.356-.085-2.7-.174a.177.177,0,0,1-.138-.2c0-.1.07-.187.152-.179q1.343.09,2.7.174a.176.176,0,0,1,.138.2A.169.169,0,0,1,359.691,231.385Zm-5.4-.36h-.008q-1.35-.1-2.7-.2a.178.178,0,0,1-.136-.2c0-.1.073-.182.154-.177q1.34.1,2.7.2a.178.178,0,0,1,.137.2A.169.169,0,0,1,354.292,231.025Zm-5.4-.421h-.01q-1.36-.115-2.7-.24a.179.179,0,0,1-.135-.2c.006-.1.076-.181.155-.175q1.336.124,2.7.24a.178.178,0,0,1,.136.2.168.168,0,0,1-.145.177Zm-5.392-.5h-.012q-1.348-.138-2.695-.291a.181.181,0,0,1-.132-.2c.007-.1.077-.181.157-.172q1.331.152,2.693.291a.18.18,0,0,1,.133.2.167.167,0,0,1-.145.174Zm-5.385-.615h-.014q-1.347-.17-2.69-.361a.183.183,0,0,1-.129-.208c.009-.1.081-.181.16-.167.866.123,1.77.244,2.687.361a.182.182,0,0,1,.131.206A.166.166,0,0,1,338.12,229.486Zm-5.374-.766-.018,0q-1.344-.215-2.683-.456a.187.187,0,0,1-.124-.213c.011-.1.085-.175.164-.161.862.156,1.763.309,2.678.456a.185.185,0,0,1,.126.21.164.164,0,0,1-.144.166Zm-5.354-.973-.023,0q-1.338-.276-2.668-.59a.191.191,0,0,1-.117-.22c.014-.1.09-.169.169-.152.857.2,1.752.4,2.661.589a.189.189,0,0,1,.121.216.163.163,0,0,1-.143.159Zm-5.317-1.267a.108.108,0,0,1-.03,0q-1.328-.364-2.639-.787a.2.2,0,0,1-.106-.229c.019-.1.1-.163.176-.138q1.306.42,2.629.784a.194.194,0,0,1,.112.224A.161.161,0,0,1,322.075,226.479Zm-5.24-1.707a.111.111,0,0,1-.041-.008q-1.305-.5-2.572-1.1a.208.208,0,0,1-.087-.242c.028-.1.111-.147.186-.113q1.258.592,2.556,1.092a.2.2,0,0,1,.1.235A.156.156,0,0,1,316.835,224.773Zm-5.058-2.42a.119.119,0,0,1-.061-.017,21.494,21.494,0,0,1-2.387-1.647.224.224,0,0,1-.047-.26.128.128,0,0,1,.2-.062,21.269,21.269,0,0,0,2.356,1.626.215.215,0,0,1,.071.251.148.148,0,0,1-.132.109Zm-4.512-3.7a.128.128,0,0,1-.1-.049,12.291,12.291,0,0,1-1.732-2.649.224.224,0,0,1,.047-.26.128.128,0,0,1,.2.061,11.912,11.912,0,0,0,1.68,2.569.231.231,0,0,1,.01.267A.133.133,0,0,1,307.264,218.655Zm-2.716-5.835a.158.158,0,0,1-.14-.14,25.992,25.992,0,0,1-.47-3.483.181.181,0,0,1,.132-.2c.08-.01.15.068.157.172a25.533,25.533,0,0,0,.462,3.418.2.2,0,0,1-.1.231A.116.116,0,0,1,304.548,212.82Zm-.461-6.945h-.013a.181.181,0,0,1-.132-.2,27.279,27.279,0,0,1,.468-3.475c.02-.1.1-.162.177-.135a.2.2,0,0,1,.1.23,26.815,26.815,0,0,0-.459,3.414.167.167,0,0,1-.145.172Zm1.337-6.754a.117.117,0,0,1-.057-.015.213.213,0,0,1-.077-.248,31.172,31.172,0,0,1,1.228-3.144.128.128,0,0,1,.2-.067.222.222,0,0,1,.051.258,30.775,30.775,0,0,0-1.211,3.1.149.149,0,0,1-.134.115Zm2.72-6.033a.124.124,0,0,1-.087-.038.228.228,0,0,1-.029-.264q.806-1.392,1.733-2.709a.123.123,0,0,1,.205-.012.231.231,0,0,1,.009.267q-.916,1.3-1.715,2.681A.138.138,0,0,1,308.144,193.087Zm3.627-5.179a.132.132,0,0,1-.107-.06.231.231,0,0,1,.008-.267q.985-1.184,2.055-2.294a.124.124,0,0,1,.2.03.229.229,0,0,1-.023.265q-1.061,1.1-2.039,2.276A.128.128,0,0,1,311.772,187.908Zm4.21-4.382a.139.139,0,0,1-.119-.081.227.227,0,0,1,.036-.263q1.1-1,2.265-1.927a.128.128,0,0,1,.2.062.224.224,0,0,1-.048.259q-1.155.922-2.251,1.915A.123.123,0,0,1,315.981,183.526Zm4.594-3.677a.145.145,0,0,1-.128-.1.22.22,0,0,1,.058-.256q1.182-.835,2.408-1.6a.132.132,0,0,1,.194.088.217.217,0,0,1-.068.252q-1.219.765-2.4,1.6a.12.12,0,0,1-.07.023Zm4.858-3.055a.149.149,0,0,1-.134-.114.213.213,0,0,1,.076-.248q1.238-.69,2.508-1.318c.074-.036.159.012.187.109a.21.21,0,0,1-.084.244c-.844.417-1.684.859-2.5,1.312a.12.12,0,0,1-.057.015Zm5.043-2.5a.154.154,0,0,1-.138-.129.206.206,0,0,1,.091-.239q1.277-.558,2.579-1.058c.077-.031.158.028.18.127a.2.2,0,0,1-.1.235q-1.3.5-2.569,1.054a.117.117,0,0,1-.046.01Zm5.176-1.992a.158.158,0,0,1-.141-.142.2.2,0,0,1,.1-.23q1.306-.437,2.63-.82c.078-.022.156.041.173.143a.2.2,0,0,1-.11.225q-1.318.381-2.62.817A.133.133,0,0,1,335.652,172.3Zm5.269-1.524a.162.162,0,0,1-.143-.154.192.192,0,0,1,.116-.22q1.326-.325,2.664-.6c.079-.015.154.054.166.157a.188.188,0,0,1-.121.216q-1.334.272-2.656.6a.11.11,0,0,1-.027,0Zm5.333-1.087a.165.165,0,0,1-.144-.165.185.185,0,0,1,.126-.211q1.34-.22,2.687-.389c.078-.012.151.066.159.17a.182.182,0,0,1-.131.206c-.895.112-1.8.243-2.679.388Zm5.373-.676a.168.168,0,0,1-.145-.176.179.179,0,0,1,.135-.2c.889-.079,1.8-.143,2.7-.19.079-.012.148.077.151.181a.176.176,0,0,1-.139.2c-.9.047-1.8.111-2.691.19h-.01Zm5.425-.285a.171.171,0,0,1-.145-.186.173.173,0,0,1,.143-.191q.676-.012,1.358-.012a.2.2,0,0,1,0,.377q-.68,0-1.354.012Z" transform="translate(-237.777 -160.967)" fill="#325899"/>
      <path id="Path_201986" data-name="Path 201986" d="M510.482,161.61l7.979.477-2.386-3.808Z" transform="translate(-393.038 -153.402)" fill="url(#linear-gradient-7)"/>
      <path id="Path_201987" data-name="Path 201987" d="M532.584,168.056l10.405-2.843-12.885-.588Z" transform="translate(-407.788 -158.173)" fill="url(#linear-gradient-8)"/>
      <path id="Path_201988" data-name="Path 201988" d="M533.632,145.667l-15.989-7.028,2.27,3.488Z" transform="translate(-398.421 -138.639)" fill="url(#linear-gradient-8)"/>
      <path id="Path_201989" data-name="Path 201989" d="M528.239,156.07l-12.912-.556-4.845,1.723,4.048-4.775Z" transform="translate(-393.038 -149.03)" fill="url(#linear-gradient-7)"/>
      <path id="Path_201990" data-name="Path 201990" d="M557.171,391.224h-107.5c-.3,0-.551-.153-.551-.343V280.762c0-.189.246-.343.551-.343h107.5c.3,0,.551.153.551.343V390.881C557.722,391.07,557.475,391.224,557.171,391.224Z" transform="translate(-363.261 -245.216)" fill="#fff"/>
      <path id="Path_201991" data-name="Path 201991" d="M540.707,242.164H451.925c-6.029,0-10.913,3.151-10.913,7.04v107.42c0,2.121,1.459,4.027,3.765,5.319l.232.127a14.907,14.907,0,0,0,6.916,1.594h88.782a14.907,14.907,0,0,0,6.916-1.594c2.443-1.292,4-3.251,4-5.445V249.2C551.626,245.315,546.735,242.164,540.707,242.164Zm8.606,111.716c0,4.083-5.425,7.392-12.118,7.392H455.444c-6.692,0-12.118-3.309-12.118-7.392V256.172c0-2.539,3.374-4.6,7.538-4.6h90.914c4.162,0,7.536,2.058,7.536,4.6V353.88Z" transform="translate(-355.152 -216.459)" fill="url(#linear-gradient-8)"/>
      <path id="Path_201992" data-name="Path 201992" d="M484.19,259.707a3.057,3.057,0,1,1-3.057-3.057A3.058,3.058,0,0,1,484.19,259.707Z" transform="translate(-368.678 -227.348)" fill="#fff"/>
      <path id="Path_201993" data-name="Path 201993" d="M486.195,262.7a2.068,2.068,0,1,1-2.068-2.068A2.068,2.068,0,0,1,486.195,262.7Z" transform="translate(-371.672 -230.343)" fill="url(#linear-gradient-12)"/>
      <path id="Path_201994" data-name="Path 201994" d="M515.375,262.7a2.068,2.068,0,1,1-2.068-2.068A2.069,2.069,0,0,1,515.375,262.7Z" transform="translate(-393.607 -230.343)" fill="#fff"/>
      <path id="Path_201995" data-name="Path 201995" d="M619.6,553.839a6.87,6.87,0,1,0-7.438,0l-1.549,12.841a1.6,1.6,0,0,0,1.591,1.794h7.354a1.6,1.6,0,0,0,1.591-1.794Z" transform="translate(-474.713 -440.371)" fill="#1f1c80"/>
      <path id="Path_201996" data-name="Path 201996" d="M558.342,359.955a19.309,19.309,0,1,1,17.312,21.118A19.309,19.309,0,0,1,558.342,359.955Z" transform="translate(-437.089 -293.806)" fill="#bcc5f7"/>
      <ellipse id="Ellipse_10557" data-name="Ellipse 10557" cx="7.496" cy="7.496" rx="7.496" ry="7.496" transform="translate(132.685 55.095)" fill="#fff"/>
      <path id="Path_201997" data-name="Path 201997" d="M614.511,427.714a1.631,1.631,0,0,0-2.04.029,7.493,7.493,0,0,1-9.35.1,1.613,1.613,0,0,0-2.045.036,7.079,7.079,0,0,0-2.433,5.6v.219a2.276,2.276,0,0,0,2.276,2.276h14.008a2.276,2.276,0,0,0,2.276-2.276v-.219a7,7,0,0,0-2.692-5.76Z" transform="translate(-467.455 -357.567)" fill="#fff"/>
      <path id="Path_201998" data-name="Path 201998" d="M770.445,183.914h-8.589a5.831,5.831,0,0,0-5.831,5.831V202h2.786v-11.9A3.392,3.392,0,0,1,762.2,186.7h7.9a3.392,3.392,0,0,1,3.392,3.392V202h2.786v-12.25A5.831,5.831,0,0,0,770.445,183.914Z" transform="translate(-577.613 -172.672)" fill="url(#linear-gradient-8)"/>
      <path id="Path_201999" data-name="Path 201999" d="M730.537,238.4v4.476a16.454,16.454,0,0,0,32.908,0V238.4a4.842,4.842,0,0,0-4.842-4.842H735.379A4.842,4.842,0,0,0,730.537,238.4Z" transform="translate(-558.454 -209.992)" fill="url(#linear-gradient-14)"/>
      <circle id="Ellipse_10558" data-name="Ellipse 10558" cx="6.864" cy="6.864" r="6.864" transform="translate(182.224 28.872)" fill="#fff"/>
      <ellipse id="Ellipse_10559" data-name="Ellipse 10559" cx="5.975" cy="5.975" rx="5.975" ry="5.975" transform="translate(183.113 29.76)" fill="url(#linear-gradient-14)"/>
      <path id="Path_202000" data-name="Path 202000" d="M796.19,273.01a1.4,1.4,0,1,0-2.121,1.2l-.254,3.2a.226.226,0,0,0,.225.244h1.5a.226.226,0,0,0,.225-.244l-.254-3.2a1.4,1.4,0,0,0,.676-1.2Z" transform="translate(-605.703 -238.595)" fill="#fff"/>
      <path id="Path_202001" data-name="Path 202001" d="M771.224,731.1a30.986,30.986,0,0,1-9.727-4.422l-8.769.016-8.769.016a30.993,30.993,0,0,1-9.71,4.458,22.7,22.7,0,0,1,2.541,12.73,22.191,22.191,0,0,1-2.5,8.212,18.885,18.885,0,0,0,5.439,13.062,18.488,18.488,0,0,0,26.146-.049,18.883,18.883,0,0,0,5.391-13.082,22.19,22.19,0,0,1-2.533-8.2A22.694,22.694,0,0,1,771.224,731.1Z" transform="translate(-569.686 -592.869)" fill="url(#linear-gradient-16)"/>
      <path id="Path_202002" data-name="Path 202002" d="M759.483,774.939a16.227,16.227,0,0,1-11.558-4.762,16.765,16.765,0,0,1-4.794-11.034,24.178,24.178,0,0,0,2.48-8.5,24.424,24.424,0,0,0-1.683-11.578,36.976,36.976,0,0,0,7.345-3.67l16.272-.03a36.983,36.983,0,0,0,7.359,3.643,24.428,24.428,0,0,0-1.64,11.585,24.173,24.173,0,0,0,2.512,8.49,16.77,16.77,0,0,1-4.753,11.052A16.228,16.228,0,0,1,759.483,774.939Z" transform="translate(-576.363 -599.397)" fill="url(#linear-gradient-17)"/>
      <path id="Path_202003" data-name="Path 202003" d="M764.395,778.527a14.623,14.623,0,0,1-10.416-4.292,15.143,15.143,0,0,1-4.309-9.728,23.967,23.967,0,0,0,1.01-18.848,37.347,37.347,0,0,0,6.131-3.14l15.033-.028a37.35,37.35,0,0,0,6.143,3.117,23.963,23.963,0,0,0,1.08,18.844,15.148,15.148,0,0,1-4.273,9.744A14.62,14.62,0,0,1,764.395,778.527Z" transform="translate(-581.278 -604.754)" fill="#fff"/>
      <path id="Path_202004" data-name="Path 202004" d="M773.914,785.267l-3.142,4.755,8.182,4.784,10.715-11.617-4.787-3.622-6.126,9.885Z" transform="translate(-597.141 -632.624)" fill="url(#linear-gradient-16)"/>
      <path id="Path_202005" data-name="Path 202005" d="M370.9,465.5H329.216a2.532,2.532,0,0,0-2.332,2.694v20.641a2.537,2.537,0,0,0,2.332,2.7H370.9a2.537,2.537,0,0,0,2.331-2.7V468.2A2.532,2.532,0,0,0,370.9,465.5Zm1.688,23.118a2.32,2.32,0,0,1-2.27,2.371H329.795a2.319,2.319,0,0,1-2.266-2.371V471.641a2.324,2.324,0,0,1,2.266-2.376h40.526a2.325,2.325,0,0,1,2.27,2.376v16.978Z" transform="translate(-255.027 -384.343)" fill="url(#linear-gradient-19)"/>
      <path id="Path_202006" data-name="Path 202006" d="M374.542,476.138v16.978a2.32,2.32,0,0,1-2.27,2.371H331.745a2.319,2.319,0,0,1-2.266-2.371V476.138a2.324,2.324,0,0,1,2.266-2.376h40.526A2.325,2.325,0,0,1,374.542,476.138Zm-36.567-4.205a.419.419,0,1,0-.417.45A.435.435,0,0,0,337.975,471.933Zm-2.115,0a.419.419,0,1,0-.417.45A.435.435,0,0,0,335.86,471.933Zm-2.115,0a.419.419,0,1,0-.417.45A.435.435,0,0,0,333.745,471.933Zm30.184.45h8.084a.456.456,0,0,0,0-.9h-8.084a.456.456,0,0,0,0,.9Z" transform="translate(-256.977 -388.839)" fill="#fff"/>
      <path id="Path_202007" data-name="Path 202007" d="M380.282,494.182H341.936a.3.3,0,1,1,0-.6h38.346a.3.3,0,1,1,0,.6Zm-8.7,5.745H341.936a.3.3,0,1,1,0-.6h29.65a.3.3,0,0,1,0,.6Zm-14.75-2.793H341.911a.275.275,0,1,1,0-.55h14.925a.275.275,0,1,1,0,.55Zm7.971,0h-5.453a.275.275,0,1,1,0-.55h5.453a.275.275,0,1,1,0,.55Zm15.5,0H367.592a.275.275,0,0,1,0-.55h12.715a.275.275,0,0,1,0,.55Zm.042,2.726h-6.166a.233.233,0,0,1,0-.467h6.166a.233.233,0,0,1,0,.467Zm-.067,2.819H341.936a.3.3,0,0,1,0-.6h38.346a.3.3,0,0,1,0,.6Zm-8.7,5.745H341.936a.3.3,0,1,1,0-.6h29.65a.3.3,0,0,1,0,.6Zm-14.75-2.793H341.911a.275.275,0,1,1,0-.55h14.925a.275.275,0,1,1,0,.55Zm7.971,0h-5.453a.275.275,0,1,1,0-.55h5.453a.275.275,0,1,1,0,.55Zm15.5,0H367.592a.275.275,0,0,1,0-.55h12.715a.275.275,0,1,1,0,.55Zm.042,2.726h-6.166a.233.233,0,0,1,0-.467h6.166a.233.233,0,0,1,0,.467Z" transform="translate(-266.115 -405.451)" fill="#daddf2"/>
      <path id="Path_202008" data-name="Path 202008" d="M319.168,516.922h-3.36a2.281,2.281,0,0,0-2.281,2.281v4.792h1.09v-4.657a1.327,1.327,0,0,1,1.327-1.327h3.089a1.327,1.327,0,0,1,1.327,1.327V524h1.09V519.2A2.282,2.282,0,0,0,319.168,516.922Z" transform="translate(-244.986 -422.996)" fill="url(#linear-gradient-20)"/>
      <path id="Path_202009" data-name="Path 202009" d="M303.557,538.237v1.751a6.436,6.436,0,0,0,12.873,0v-1.751a1.894,1.894,0,0,0-1.894-1.894h-9.085A1.894,1.894,0,0,0,303.557,538.237Z" transform="translate(-237.491 -437.595)" fill="url(#linear-gradient-14)"/>
      <ellipse id="Ellipse_10560" data-name="Ellipse 10560" cx="2.685" cy="2.685" rx="2.685" ry="2.685" transform="translate(70.033 100.823)" fill="#fff"/>
      <circle id="Ellipse_10561" data-name="Ellipse 10561" cx="2.337" cy="2.337" r="2.337" transform="translate(70.38 101.17)" fill="url(#linear-gradient-22)"/>
      <path id="Path_202010" data-name="Path 202010" d="M328.77,550a.778.778,0,1,0-1.18.665l-.141,1.781a.126.126,0,0,0,.125.136h.836a.126.126,0,0,0,.125-.136l-.141-1.781a.777.777,0,0,0,.377-.666Z" transform="translate(-255.274 -447.274)" fill="#fff"/>
      <path id="Path_202011" data-name="Path 202011" d="M788.278,492.693H769.059a.338.338,0,0,0-.338.338v23.913a.338.338,0,0,0,.338.338h15.332a.337.337,0,0,0,.239-.1l3.888-3.887a.338.338,0,0,0,.1-.239V493.031A.338.338,0,0,0,788.278,492.693Z" transform="translate(-587.157 -404.783)" fill="url(#linear-gradient-19)"/>
      <path id="Path_202012" data-name="Path 202012" d="M791.914,500.582H776.648a.179.179,0,0,1,0-.358h15.266a.179.179,0,1,1,0,.358Zm-10.7,3.5h-4.569a.179.179,0,0,1,0-.358h4.569a.179.179,0,0,1,0,.358Zm8.071,0h-7.079a.179.179,0,0,1,0-.358h7.079a.179.179,0,0,1,0,.358Zm-5.043-1.85h-7.6a.179.179,0,0,1,0-.358h7.6a.179.179,0,1,1,0,.358Zm7.672.151h-5.762c-.1,0-.176-.114-.176-.255s.079-.254.176-.254h5.762c.1,0,.176.114.176.254S792.014,502.384,791.916,502.384Zm.021,1.7h-1.486a.156.156,0,1,1,0-.312h1.486a.156.156,0,1,1,0,.312Zm-.023,1.85H776.648a.179.179,0,1,1,0-.358h15.266a.179.179,0,0,1,0,.358Zm-10.7,3.5h-4.569a.179.179,0,1,1,0-.358h4.569a.179.179,0,0,1,0,.358Zm8.071,0h-7.079a.179.179,0,1,1,0-.358h7.079a.179.179,0,0,1,0,.358Zm-5.043-1.85h-7.6a.179.179,0,0,1,0-.358h7.6a.179.179,0,1,1,0,.358Zm7.669,0h-5.849a.179.179,0,0,1,0-.358h5.849a.179.179,0,0,1,0,.358Zm.023,1.85h-1.486a.156.156,0,1,1,0-.312h1.486a.156.156,0,1,1,0,.312Zm-.023,1.85H776.648a.179.179,0,0,1,0-.358h15.266a.179.179,0,0,1,0,.358Zm-10.7,3.5h-4.569a.179.179,0,0,1,0-.358h4.569a.179.179,0,0,1,0,.358Zm8.071,0h-7.079a.179.179,0,0,1,0-.358h7.079a.179.179,0,0,1,0,.358Zm-5.043-1.85h-7.6a.179.179,0,0,1,0-.358h7.6a.179.179,0,1,1,0,.358Zm7.669,0h-5.849a.179.179,0,0,1,0-.358h5.849a.179.179,0,0,1,0,.358Zm.023,1.85h-1.486a.156.156,0,1,1,0-.312h1.486a.156.156,0,1,1,0,.312Zm-.023,1.85H776.648a.179.179,0,0,1,0-.358h15.266a.179.179,0,0,1,0,.358Zm-10.7,3.5h-4.569a.179.179,0,1,1,0-.358h4.569a.179.179,0,1,1,0,.358Zm8.071,0h-7.079a.179.179,0,1,1,0-.358h7.079a.179.179,0,1,1,0,.358Zm-5.043-1.85h-7.6a.179.179,0,1,1,0-.358h7.6a.179.179,0,1,1,0,.358Zm7.669,0h-5.849a.179.179,0,1,1,0-.358h5.849a.179.179,0,1,1,0,.358Zm.023,1.85h-1.486a.156.156,0,1,1,0-.312h1.486a.156.156,0,1,1,0,.312Z" transform="translate(-592.981 -410.444)" fill="#fff"/>
      <path id="Path_202013" data-name="Path 202013" d="M836.481,575.274l-4.086,4.085v-4.085Z" transform="translate(-635.021 -466.859)" fill="url(#linear-gradient-19)"/>
      <path id="Path_202014" data-name="Path 202014" d="M771.846,469.523h-2.081a1.413,1.413,0,0,0-1.413,1.413V473.9h.675v-2.884a.822.822,0,0,1,.822-.822h1.913a.822.822,0,0,1,.822.822V473.9h.675v-2.968a1.413,1.413,0,0,0-1.413-1.413Z" transform="translate(-586.88 -387.366)" fill="#1f1c80"/>
      <path id="Path_202015" data-name="Path 202015" d="M768.912,481.422h-6.317a.963.963,0,0,0-.963.963v4.9a.963.963,0,0,0,.963.963h6.317a.963.963,0,0,0,.963-.963v-4.9A.963.963,0,0,0,768.912,481.422Z" transform="translate(-581.828 -396.31)" fill="url(#linear-gradient-14)"/>
      <ellipse id="Ellipse_10562" data-name="Ellipse 10562" cx="1.874" cy="1.874" rx="1.874" ry="1.874" transform="translate(182.131 87.039)" fill="#fff"/>
      <ellipse id="Ellipse_10563" data-name="Ellipse 10563" cx="1.55" cy="1.55" rx="1.55" ry="1.55" transform="translate(182.454 87.363)" fill="url(#linear-gradient-26)"/>
      <path id="Path_202016" data-name="Path 202016" d="M777.119,493.458a.576.576,0,1,0-.624,0l-.13,1.077a.135.135,0,0,0,.134.151h.617a.135.135,0,0,0,.134-.151Z" transform="translate(-592.802 -404.56)" fill="#fff"/>
      <path id="Path_202017" data-name="Path 202017" d="M387.471,308.293a.441.441,0,0,1-.253.654l-1.477.431a.441.441,0,0,1-.551-.528l.365-1.494a.44.44,0,0,1,.733-.214l1.111,1.063A.453.453,0,0,1,387.471,308.293Zm-1.932.709a.092.092,0,0,0,.106.041l1.477-.431a.093.093,0,0,0,.038-.157l-1.111-1.063a.093.093,0,0,0-.155.045l-.365,1.494a.089.089,0,0,0,.011.07Z" transform="translate(-298.846 -265.211)" fill="url(#linear-gradient-27)"/>
      <path id="Path_202018" data-name="Path 202018" d="M1130.706,527.654a.441.441,0,0,1-.253.654l-1.477.431a.441.441,0,0,1-.551-.528l.365-1.494a.441.441,0,0,1,.733-.214l1.111,1.063a.441.441,0,0,1,.071.088Zm-1.932.71a.091.091,0,0,0,.106.041l1.477-.431a.093.093,0,0,0,.039-.157l-1.111-1.063a.094.094,0,0,0-.155.045l-.365,1.494a.091.091,0,0,0,.011.07Z" transform="translate(-857.539 -430.106)" fill="url(#linear-gradient-28)"/>
      <path id="Path_202019" data-name="Path 202019" d="M232.256,456.79l1.008-1.008a.586.586,0,1,0-.828-.828l-1.008,1.008-1.008-1.008a.586.586,0,1,0-.828.828l1.008,1.008-1.006,1.006a.586.586,0,1,0,.828.828l1.006-1.006,1.006,1.006a.586.586,0,1,0,.828-.828Z" transform="translate(-181.762 -376.285)" fill="url(#linear-gradient-29)"/>
      <path id="Path_202020" data-name="Path 202020" d="M899.218,679.567l1.008-1.008a.586.586,0,1,0-.828-.828l-1.008,1.008-1.008-1.008a.586.586,0,1,0-.828.828l1.008,1.008-1.006,1.006a.586.586,0,0,0,.828.828l1.006-1.006L899.4,681.4a.586.586,0,1,0,.828-.828l-1.006-1.006Z" transform="translate(-683.12 -543.748)" fill="url(#linear-gradient-30)"/>
      <path id="Path_202021" data-name="Path 202021" d="M254.838,621.068a1.24,1.24,0,1,1,1.24-1.24A1.242,1.242,0,0,1,254.838,621.068Zm0-2.093a.852.852,0,1,0,.852.852A.853.853,0,0,0,254.838,618.975Z" transform="translate(-199.937 -499.418)" fill="url(#linear-gradient-8)"/>
      <path id="Path_202022" data-name="Path 202022" d="M940.016,390.133a1.24,1.24,0,1,1,1.24-1.24A1.242,1.242,0,0,1,940.016,390.133Zm0-2.093a.852.852,0,1,0,.852.852A.853.853,0,0,0,940.016,388.04Z" transform="translate(-714.987 -325.823)" fill="url(#linear-gradient-32)"/>
      <path id="Path_202033" data-name="Path 202033" d="M901.955,487.37c2.651,1.974,12.4,7.995,16.131,8.5,3.9.53,13.6-2.59,15.624-3.26l0,.044s-11.391,4.628-15.779,4.283c-3.859-.3-14.185-6.72-16.584-8.33A12.81,12.81,0,0,0,901.955,487.37Z" transform="translate(-686.853 -400.782)" fill="#e6e7e8"/>
      <path id="Path_202042" data-name="Path 202042" d="M945.243,528.3c4.929-1.5,17.377-16.037,17.377-16.037s-11.258,16.554-16.683,18.394c-4.292,1.455-16.867,1.17-21.611.725v-1.734C929.257,530.239,940.992,529.6,945.243,528.3Z" transform="translate(-704.125 -419.498)" fill="#e6e7e8"/>
      <path id="Path_202047" data-name="Path 202047" d="M234.822,756.872c.334-2,2.734-.145,3.4.746a28.53,28.53,0,0,1-.824-3.041c-5.4.679-3.731-4.52-.064-.309a24.553,24.553,0,0,1-.473-3.833c-5.354-.2-2.952-5.008-.012-.375a10.845,10.845,0,0,1,.553-4.127c-5.445-1.037-2.1-5.421.085-.22.581-1.462,1.435-2.824,1.965-4.3-5.528-1.014-2.133-5.473.062-.173a6.58,6.58,0,0,0,.269-3.552c-5.654.524-3.583-4.781-.031-.15a8.347,8.347,0,0,0-1.728-3.493c-5.272-.06-2.988-4.756.075-.4a8.425,8.425,0,0,1,1.9,3.557c1.03-5.459,5.05-1.879.089.362a6.6,6.6,0,0,1-.239,3.721c3.4-4.512,5.473.582-.1.3-.559,1.531-1.445,2.924-2.013,4.442,3.257-4.809,5.862.323-.038.1a11.093,11.093,0,0,0-.513,4.035c2.638-4.89,5.457-.28.011.331a23.8,23.8,0,0,0,.473,3.745c1.4-5.492,5.391-1.638.048.231a27.638,27.638,0,0,0,.848,3.134c1.436-5.386,5.311-1.566.095.276a21.3,21.3,0,0,0,1.242,2.873c-.216,1.111-1.428-2.463-1.557-2.758C237.206,758.116,235.37,758.057,234.822,756.872Z" transform="translate(-191.673 -596.968)" fill="url(#linear-gradient-33)"/>
      <path id="Path_202048" data-name="Path 202048" d="M240.576,804.881c.872-1.721,2.529.646,2.885,1.647a27.219,27.219,0,0,1,.114-3c-5.112-.919-2.11-5.175.03-.3a23.385,23.385,0,0,1,.66-3.623c-4.815-1.707-1.263-5.4.1-.345a10.339,10.339,0,0,1,1.677-3.6c-4.661-2.492-.367-5.53.14-.176.945-1.166,2.109-2.162,3.012-3.358-4.743-2.5-.385-5.588.105-.14a6.271,6.271,0,0,0,1.255-3.156c-5.3-1.131-1.9-5.37.014-.145a7.961,7.961,0,0,0-.579-3.67c-4.76-1.523-1.357-5.177.183-.347a8.036,8.036,0,0,1,.722,3.779c2.49-4.676,5.131-.274-.021.354a6.29,6.29,0,0,1-1.276,3.319c4.381-3.139,4.815,2.085-.179.24-.944,1.234-2.146,2.25-3.095,3.47,4.332-3.451,5.243,1.961-.063.082a10.574,10.574,0,0,0-1.614,3.526c3.778-3.7,5.014,1.315-.084.3a22.688,22.688,0,0,0-.635,3.543c2.832-4.6,5.373.042-.022.224a26.4,26.4,0,0,0-.119,3.093c2.839-4.494,5.279.085.008.278a20.331,20.331,0,0,0,.313,2.968c-.513.949-.6-2.646-.632-2.953-1.079-.2-2.734-.78-2.9-2.014Z" transform="translate(-196.852 -634.9)" fill="url(#linear-gradient-19)"/>
      <path id="Path_202049" data-name="Path 202049" d="M247.978,847.333c-.055.707-.986,12.57-1.073,13.671H238.69c-.1-1.157-1.12-12.915-1.184-13.671h10.472Z" transform="translate(-194.544 -683.821)" fill="url(#linear-gradient-35)"/>
      <path id="Path_202050" data-name="Path 202050" d="M237.506,847.333l.082.951h3.163a4.93,4.93,0,0,1,4.916,5.316l-.581,7.4h1.82c.086-1.1,1.018-12.964,1.073-13.671Z" transform="translate(-194.544 -683.821)" fill="#e6e7e8"/>
      <path id="Path_202051" data-name="Path 202051" d="M244.692,841.331H234.631a1.013,1.013,0,1,1,0-1.983h10.062a1.013,1.013,0,1,1,0,1.983Z" transform="translate(-191.464 -677.819)" fill="url(#linear-gradient-36)"/>
      <path id="Path_202052" data-name="Path 202052" d="M1060.109,338.775l-3.223-.959.1-.322a4.154,4.154,0,0,1,.584-1.28,3.081,3.081,0,0,1,.834-.772,17.82,17.82,0,0,1,2.1-1q.854-.355.992-.822a.987.987,0,0,0-.06-.807,1.233,1.233,0,0,0-.758-.507,1.4,1.4,0,0,0-1.115.1,2.438,2.438,0,0,0-.919,1.241l-3.169-1.387a4.676,4.676,0,0,1,2.188-2.529,5.127,5.127,0,0,1,3.853-.058,5.449,5.449,0,0,1,2.756,1.66,3.348,3.348,0,0,1,.716,3.241,2.8,2.8,0,0,1-.813,1.272,7.16,7.16,0,0,1-2.115,1.152,4.554,4.554,0,0,0-1.406.768A2.319,2.319,0,0,0,1060.109,338.775Zm-3.588-.135,3.452,1.027-.906,3.045-3.452-1.027Z" transform="translate(-802.711 -281.987)" fill="url(#linear-gradient-37)"/>
      <path id="Path_202053" data-name="Path 202053" d="M1090.267,361.967l2.092,3.072L1090,366.645l-5.142,2.633-1.294-1.9,4.344-3.806Zm-7.745,5.429,1.952,2.867-2.535,1.726-1.952-2.867Z" transform="translate(-821.137 -306.516)" fill="url(#linear-gradient-38)"/>
      <path id="Path_202054" data-name="Path 202054" d="M343.114,847.472h.014a.479.479,0,0,0,.48-.476l-.04-2.369a2.483,2.483,0,0,0-2.526-2.442c-.054,0-.107,0-.158.008a1.352,1.352,0,0,0-.186.023.735.735,0,0,0-.11.019,2.474,2.474,0,0,0-.284.075.662.662,0,0,0-.1.035.746.746,0,0,0-.076.03,1.153,1.153,0,0,0-.137.062q-.067.031-.132.067a0,0,0,0,1,0,0,2.483,2.483,0,0,0-1.26,2.2l.04,2.363a.473.473,0,0,0,.482.466l.462-.008a.634.634,0,0,1,.645.624l.023,1.342a.247.247,0,0,1,0,.045.22.22,0,0,1-.007.059.357.357,0,0,1-.01.059.337.337,0,0,1-.019.057.294.294,0,0,1-.022.054.34.34,0,0,1-.027.054.509.509,0,0,1-.108.137c-.014.014-.028.026-.044.04a.647.647,0,0,1-.2.111.675.675,0,0,1-.107.022.659.659,0,0,1-.073.007l-5.031.085a.538.538,0,0,1-.545-.53l-.026-1.534a.536.536,0,0,1,.527-.548h.011a.56.56,0,0,0,.169-.028.6.6,0,0,0,.383-.551l-.05-2.939a.561.561,0,0,0-.17-.395.493.493,0,0,0-.083-.069.654.654,0,0,0-.077-.044l-.028-.011a.7.7,0,0,0-.108-.032c-.028-.005-.059-.008-.088-.01H334.5a.589.589,0,0,1-.429-.187.739.739,0,0,1-.061-.084s0,0,0,0a.284.284,0,0,1-.038-.078.589.589,0,0,1-.021-.067.486.486,0,0,1-.013-.11l-.037-2.137-2,.034a3.585,3.585,0,0,1-.121-7.169l47.36-.8.121,7.169-30.663.517.035,2.09a.586.586,0,0,1-.577.6l-.414.007a.571.571,0,0,0-.563.579l.05,2.938a.572.572,0,0,0,.582.56l.584-.01a.416.416,0,0,1,.424.407l.03,1.78a.416.416,0,0,1-.41.424l-5.152.087a.636.636,0,0,1-.645-.624l-.023-1.342a.641.641,0,0,1,.071-.3.577.577,0,0,1,.063-.1.6.6,0,0,1,.206-.17.163.163,0,0,1,.039-.02.131.131,0,0,1,.045-.018.234.234,0,0,1,.062-.018.424.424,0,0,1,.059-.012c.017,0,.034,0,.05-.006Z" transform="translate(-256.84 -689.067)" fill="url(#linear-gradient-39)"/>
      <path id="Path_202055" data-name="Path 202055" d="M352.619,861.711a.571.571,0,0,0-.561.58v.018l.268,0a.587.587,0,0,0,.577-.6v0Zm-8.489-.21a2.486,2.486,0,0,1,3.709,2.121l.039,2.3a.634.634,0,0,1,.243-.053.474.474,0,0,0,.466-.482l-.04-2.363a2.485,2.485,0,0,0-4.417-1.521Zm-10.194-2.343a5.077,5.077,0,0,0,2.089.745l47.285-.8-.015-.9Zm10.582,9.381-4.943.083a.538.538,0,0,1-.547-.529L339,866.577a.565.565,0,0,1-.179.035.537.537,0,0,0-.528.547l.026,1.535a.538.538,0,0,0,.547.529l5.031-.085A.632.632,0,0,0,344.519,868.538Zm8.5.03,0-.173-4.851.082a.634.634,0,0,1-.645-.624l-.023-1.342c0-.019,0-.036,0-.055a.469.469,0,0,1-.088.01.634.634,0,0,0-.624.645l.023,1.342a.634.634,0,0,0,.645.624l5.153-.087A.416.416,0,0,0,353.019,868.568Z" transform="translate(-260.328 -679.541)" fill="#e6e7e8"/>
      <path id="Path_202056" data-name="Path 202056" d="M340.161,869.239l-.05-2.941a.561.561,0,0,0-.17-.395.652.652,0,0,0-.083-.069q-.038-.023-.077-.044a.271.271,0,0,0-.028-.011.7.7,0,0,0-.108-.032c-.028-.005-.059-.007-.088-.01h-.028a.52.52,0,0,1-.412-.188.748.748,0,0,1-.061-.084s0,0,0,0a.286.286,0,0,1-.038-.078.59.59,0,0,1-.021-.067.489.489,0,0,1-.013-.11l-.036-2.138-2,.034a3.563,3.563,0,0,1-1.978-.556l4.687-.079.036,2.14a.538.538,0,0,0,.547.527.571.571,0,0,1,.579.563l.05,2.936a.568.568,0,0,1-.56.579A.627.627,0,0,0,340.161,869.239Z" transform="translate(-261.103 -682.745)" fill="#e6e7e8"/>
      <path id="Path_202057" data-name="Path 202057" d="M511.446,836.821l-.139-8.222a.9.9,0,0,1,.889-.92l.968-.016a.9.9,0,0,1,.92.889l.139,8.222a.9.9,0,0,1-.889.92l-.968.016a.905.905,0,0,1-.92-.889Z" transform="translate(-394.442 -685.102)" fill="url(#linear-gradient-40)"/>
      <path id="Path_202058" data-name="Path 202058" d="M514.212,837.79a1.384,1.384,0,0,1-2.346-.977l-.122-7.254a1.384,1.384,0,0,1,.029-.3,1.381,1.381,0,0,0-.431,1.023l.122,7.254a1.388,1.388,0,0,0,2.748.252Z" transform="translate(-393.684 -657.782)" fill="#e6e7e8"/>
      <path id="Path_202059" data-name="Path 202059" d="M470.653,827.684a4.987,4.987,0,1,1-4.45,5.042A4.765,4.765,0,0,1,470.653,827.684Z" transform="translate(-360.536 -685.117)" fill="url(#linear-gradient-41)"/>
      <path id="Path_202060" data-name="Path 202060" d="M474.674,839.555a4.324,4.324,0,0,1-3.139,1.466,4.765,4.765,0,0,1-4.617-4.889,5.3,5.3,0,0,1,.6-2.544,5.189,5.189,0,0,0-1.31,3.576,4.765,4.765,0,0,0,4.617,4.889A4.467,4.467,0,0,0,474.674,839.555Z" transform="translate(-359.753 -661.035)" fill="#e6e7e8"/>
      <path id="Path_202061" data-name="Path 202061" d="M541.141,819.047a9.3,9.3,0,0,0,7.926-13.912,9.305,9.305,0,1,0-17.538-4.178,4.676,4.676,0,1,0,.151,8.856c0,.029,0,.058,0,.087a9.317,9.317,0,0,0,9.462,9.148Zm-.043-2.538a6.763,6.763,0,0,1-6.551-8.854,9.281,9.281,0,0,0,12.8-.216,6.764,6.764,0,0,1-6.248,9.07Zm-.228-13.534a6.752,6.752,0,0,1,5.113,2.211,6.753,6.753,0,0,1-10.148.171A6.751,6.751,0,0,1,540.87,802.975Zm-.151-8.94a6.764,6.764,0,0,1,6.551,8.853,9.281,9.281,0,0,0-12.8.216,6.764,6.764,0,0,1,6.248-9.069Zm-12.742,11.411a2.138,2.138,0,1,1,2.174,2.1A2.14,2.14,0,0,1,527.977,805.446Z" transform="translate(-405.064 -657.915)" fill="url(#linear-gradient-42)"/>
      <path id="Path_202062" data-name="Path 202062" d="M577.246,810.429h0v0l0,0Zm-13.232.223c.045.049.092.1.138.144a6.745,6.745,0,0,1,9.587.135q.221-.215.422-.45a6.754,6.754,0,0,0-10.148.171ZM568.9,799.33a6.777,6.777,0,0,0-6.127,4.154,6.76,6.76,0,0,1,12.572,4.608c.035.031.071.061.1.092a6.764,6.764,0,0,0-6.551-8.853Zm6.222,18.913a6.743,6.743,0,0,0,.406-5.509,9.281,9.281,0,0,1-12.8.216,6.787,6.787,0,0,0-.179.686,9.276,9.276,0,0,0,12.694-.308,6.743,6.743,0,0,1-.121,4.916Z" transform="translate(-432.176 -635.283)" fill="#e6e7e8"/>
      <path id="Path_202063" data-name="Path 202063" d="M541.141,854.243a9.317,9.317,0,0,0,8.365-5.574,9.3,9.3,0,0,1-17.543-4.167c0-.029,0-.058,0-.087a4.67,4.67,0,0,1-5.921-6.1,4.667,4.667,0,0,0,5.637,6.69c0,.029,0,.058,0,.087a9.317,9.317,0,0,0,9.462,9.148Z" transform="translate(-404.28 -664.591)" fill="#e6e7e8"/>
      <path id="Path_202064" data-name="Path 202064" d="M537.164,819.29a2.136,2.136,0,0,1,3.814,1.811,2.137,2.137,0,1,0-3.814-1.811Zm3.463-3.845a9.246,9.246,0,0,1,.783-3.885,9.238,9.238,0,0,0-1.051,3.811C540.448,815.394,540.539,815.417,540.627,815.445Z" transform="translate(-413.095 -644.477)" fill="#e6e7e8"/>
      <path id="Path_202065" data-name="Path 202065" d="M497.019,836.6l-.122-7.254a1.389,1.389,0,1,1,2.777-.047l.122,7.254a1.389,1.389,0,1,1-2.777.047Z" transform="translate(-383.609 -685.309)" fill="url(#linear-gradient-43)"/>
      <path id="Path_202066" data-name="Path 202066" d="M499.724,837.669a1.382,1.382,0,0,1-2.129-1.146l-.122-7.254a1.371,1.371,0,0,1,.072-.448,1.384,1.384,0,0,0-.649,1.193l.122,7.254a1.385,1.385,0,0,0,2.7.4Z" transform="translate(-382.825 -657.452)" fill="#e6e7e8"/>
      <path id="Path_202067" data-name="Path 202067" d="M460.28,837.224l-.122-7.254a1.389,1.389,0,0,1,2.777-.047l.122,7.254a1.389,1.389,0,1,1-2.777.047Z" transform="translate(-355.992 -685.775)" fill="url(#linear-gradient-44)"/>
      <path id="Path_202068" data-name="Path 202068" d="M462.984,838.289a1.382,1.382,0,0,1-2.129-1.146l-.122-7.254a1.372,1.372,0,0,1,.072-.448,1.383,1.383,0,0,0-.648,1.193l.122,7.254a1.385,1.385,0,0,0,2.7.4Z" transform="translate(-355.208 -657.918)" fill="#e6e7e8"/>
      <path id="Path_202069" data-name="Path 202069" d="M429.466,837.744l-.122-7.254a1.389,1.389,0,1,1,2.777-.047l.122,7.254a1.389,1.389,0,1,1-2.777.047Z" transform="translate(-332.829 -686.166)" fill="url(#linear-gradient-45)"/>
      <path id="Path_202070" data-name="Path 202070" d="M432.171,838.809a1.382,1.382,0,0,1-2.129-1.146l-.122-7.254a1.372,1.372,0,0,1,.072-.448,1.383,1.383,0,0,0-.648,1.193l.122,7.254a1.385,1.385,0,0,0,2.7.4Z" transform="translate(-332.046 -658.309)" fill="#e6e7e8"/>
      <path id="Path_202071" data-name="Path 202071" d="M374.4,901.355H96.544a.257.257,0,1,0,0,.514H374.4a.257.257,0,1,0,0-.514Zm-284.012.514H71.737a.257.257,0,1,1,0-.514H90.389a.257.257,0,1,1,0,.514Z" transform="translate(-71.48 -724.173)" fill="#1f1c80"/>
    </g>
    <g id="Group_196387" data-name="Group 196387" transform="translate(1381.154 70.794)">
      <g id="Group_192218" data-name="Group 192218" transform="translate(57.77 61.751)">
        <path id="Path_188697" data-name="Path 188697" d="M1175.189,457a17.4,17.4,0,0,0-7.059,11.306C1173.932,464.148,1175.189,457,1175.189,457Z" transform="translate(-1156.754 -457)" fill="#d9c6f3"/>
        <path id="Path_188698" data-name="Path 188698" d="M1163.363,508.92a14.539,14.539,0,0,0-8.383,8C1160.818,514.755,1163.363,508.92,1163.363,508.92Z" transform="translate(-1146.211 -498.268)" fill="#d9c6f3"/>
        <path id="Path_188699" data-name="Path 188699" d="M1155.033,550.18a14.538,14.538,0,0,0-8.383,8C1152.487,556.015,1155.033,550.18,1155.033,550.18Z" transform="translate(-1139.532 -531.063)" fill="#d9c6f3"/>
        <path id="Path_188700" data-name="Path 188700" d="M1150.227,595.06a12.89,12.89,0,0,0-7.437,7.1C1147.969,600.238,1150.227,595.06,1150.227,595.06Z" transform="translate(-1136.437 -566.735)" fill="#d9c6f3"/>
        <path id="Path_188701" data-name="Path 188701" d="M1148.09,491.95a15.3,15.3,0,0,1,.825,11.5A16.732,16.732,0,0,1,1148.09,491.95Z" transform="translate(-1140.16 -484.78)" fill="#d9c6f3"/>
        <path id="Path_188702" data-name="Path 188702" d="M1127.842,538.46s4.763,4.417,3.344,10.6A12.643,12.643,0,0,1,1127.842,538.46Z" transform="translate(-1124.335 -521.747)" fill="#d9c6f3"/>
        <path id="Path_188703" data-name="Path 188703" d="M1110.74,589.45s5.847,2.425,6.416,8.773A11.931,11.931,0,0,1,1110.74,589.45Z" transform="translate(-1110.74 -562.276)" fill="#d9c6f3"/>
        <path id="Path_188704" data-name="Path 188704" d="M1148.373,482.643c.111-.213-10.331,18.887-7.8,34.24,1.14,1.483,1.181-.408,1.181-.408s-3.51-9.378,6.618-33.831Z" transform="translate(-1134.341 -477.381)" fill="#d9c6f3"/>
      </g>
      <g id="Group_192219" data-name="Group 192219" transform="translate(61.824 71.189)">
        <path id="Path_188705" data-name="Path 188705" d="M1229.765,503a24,24,0,0,1-3.659,15.481C1225.2,510.415,1229.765,503,1229.765,503Z" transform="translate(-1207.195 -503)" fill="#bca6d5"/>
        <path id="Path_188706" data-name="Path 188706" d="M1203.576,554.72a18.37,18.37,0,0,1-.2,13.461C1200.916,561.9,1203.576,554.72,1203.576,554.72Z" transform="translate(-1188.23 -544.109)" fill="#bca6d5"/>
        <path id="Path_188707" data-name="Path 188707" d="M1176.856,598.12a18.371,18.371,0,0,1-.2,13.461C1174.2,605.3,1176.856,598.12,1176.856,598.12Z" transform="translate(-1166.806 -578.605)" fill="#bca6d5"/>
        <path id="Path_188708" data-name="Path 188708" d="M1148.051,645.01a16.3,16.3,0,0,1-.181,11.943C1145.691,651.378,1148.051,645.01,1148.051,645.01Z" transform="translate(-1143.823 -615.875)" fill="#bca6d5"/>
        <path id="Path_188709" data-name="Path 188709" d="M1216.912,572.59a20.156,20.156,0,0,0-9.352,9.823C1213.865,579.26,1216.912,572.59,1216.912,572.59Z" transform="translate(-1192.422 -558.313)" fill="#bca6d5"/>
        <path id="Path_188710" data-name="Path 188710" d="M1191.474,630.75a14.007,14.007,0,0,0-10.444,7.146C1187.855,636.96,1191.474,630.75,1191.474,630.75Z" transform="translate(-1171.151 -604.54)" fill="#bca6d5"/>
        <path id="Path_188711" data-name="Path 188711" d="M1160.567,688.038a11.1,11.1,0,0,0-11.207,3.209C1155.552,692.953,1160.567,688.038,1160.567,688.038Z" transform="translate(-1145.758 -649.742)" fill="#bca6d5"/>
        <path id="Path_188712" data-name="Path 188712" d="M1152.842,542.141c.085-.275-7.14,24.78-20.633,36.837-1.935.5-.519-1.245-.519-1.245s9.624-5.909,21.152-35.594Z" transform="translate(-1131.191 -534.109)" fill="#bca6d5"/>
      </g>
      <path id="Path_193906" data-name="Path 193906" d="M.03.067,6.3,0l-.03,2.911L0,2.978Z" transform="translate(62.748 127.169) rotate(-18.89)" fill="#ffb7b8" stroke="#4f2524" stroke-width="0.38"/>
      <path id="Path_193907" data-name="Path 193907" d="M0,0,7.049.011l0,2.921L0,2.921Z" transform="matrix(0.999, 0.046, -0.046, 0.999, 34.857, 129.317)" fill="#ffb7b8" stroke="#4f2524" stroke-width="0.41"/>
      <path id="Path_188724" data-name="Path 188724" d="M987.24,494.35l1.417,58.492c0,1.563,7.824,1.563,7.824,0,0-.371,3.467-45.281,3.467-45.281s15.836,42.731,15.877,42.908c.307,1.3,7.54-.523,7.233-1.826l-13.584-56.6a32.932,32.932,0,0,1-22.232,2.31Z" transform="translate(-953.95 -423.1)" fill="#2f2e40" stroke="#4f2524" stroke-width="0.45"/>
      <path id="Path_188725" data-name="Path 188725" d="M887.1,331.237a32.83,32.83,0,0,0,3.7,1.643c0-.183,11.362-17.708,11.326-20.083s-10.8-15.705-12.737-16.618-8.5-1.7-9.879-2.922a31.491,31.491,0,0,1-.525-4.011l-10.06-.9s.176,2.718-.706,3.995c-1.354.716-7.762.183-10.409,2.191S849.7,303.3,849.7,303.3l-12.173-10.59-3.352,4.2s13.408,16.616,14.466,17.164,10.5-6.664,10.5-6.664l5.376,25.042a25.89,25.89,0,0,0,22.232-2.31c.706-6.939-.264-20.715.176-21l5.38,5.751-5.2,16.341Z" transform="translate(-831.23 -261.199)" fill="#a060f4" stroke="#4f2524" stroke-width="0.49"/>
      <g id="Group_192222" data-name="Group 192222" transform="translate(3.024 32.924)">
        <path id="Path_188726" data-name="Path 188726" d="M866.1,354.96s-6.74-26.876-6.145-32.21c-.595.205,0,5.95-10.089,11.746-1.058-.548-14.04-16.723-14.04-16.723l.809-1.282-2.089,2.618s13.408,16.616,14.466,17.164,10.5-6.664,10.5-6.664l5.376,25.042a21.415,21.415,0,0,0,4.182,1.112,18.141,18.141,0,0,1-2.961-.8Z" transform="translate(-834.55 -316.49)" fill="#8856d8"/>
        <path id="Path_188727" data-name="Path 188727" d="M1094.887,403.4s5.344-17.859,5.342-17.859l-6.353-5.529c-.091.057-2.18-2.257-2.686-1.323l7.253,7.665-5.2,16.341" transform="translate(-1040.319 -365.752)" fill="#8856d8"/>
      </g>
      <g id="Group_192232" data-name="Group 192232" transform="translate(33.643 0)">
        <g id="Group_192223" data-name="Group 192223" transform="translate(0 13.373)">
          <path id="Path_188728" data-name="Path 188728" d="M992.525,222.935s-.848-2.349-2.624-1.59c-1.833,1.278-.276,4.12.046,4.538s1.173,1.686,1.574,1.645,1-4.592,1-4.592Z" transform="translate(-989.023 -221.194)" fill="#ffb7b8" stroke="#4f2524" stroke-width="0.37"/>
          <path id="Path_188729" data-name="Path 188729" d="M992.525,222.935s-.848-2.349-2.624-1.59c-1.833,1.278-.276,4.12.046,4.538s1.173,1.686,1.574,1.645,1-4.592,1-4.592Z" transform="translate(-989.023 -221.194)" fill="none" stroke="#4f2524" stroke-width="0.89"/>
          <path id="Path_188730" data-name="Path 188730" d="M995.768,229.961c-.535-.862-1.211-2.472-2.438-1.887a1.069,1.069,0,0,1,.392-.213c1.118-.222,1.752,1.2,2.046,2.1h0Z" transform="translate(-992.476 -226.474)" fill="#4f2524"/>
          <path id="Path_188731" data-name="Path 188731" d="M998.013,231.021a1.2,1.2,0,0,1,.184-1.691,2.131,2.131,0,0,0-.184,1.691Z" transform="translate(-996.022 -227.661)" fill="#4f2524"/>
        </g>
        <g id="Group_192224" data-name="Group 192224" transform="translate(2.466)">
          <path id="Path_188732" data-name="Path 188732" d="M1002.253,171.313c-.1-.158.008-5.293-.085-6.005s-.395-6.032,1.2-5.067c.478.289.476,1.079.476,1.079s-.747-4.854,2.541-4.678a5.966,5.966,0,0,1,3.788,1.781c.951,1.186,1.328,1.664,1.322,1.647-.03-.088-2.032-2.107-.5-3.086,1.758-.718,4.077,3.763,4.171,3.89s-.817-1.848.648-1.3,3.233,2.509,3.213,4-.987,9.39-1.447,9.454-15.326-1.717-15.326-1.717Z" transform="translate(-1001.96 -156.509)" fill="#2f2e40"/>
          <path id="Path_188733" data-name="Path 188733" d="M1001.868,170.75c.016.033,0-.008,0-.027,0-.053-.008-.1-.01-.158-.008-.168-.01-.336-.012-.5-.008-.507-.006-1.011-.006-1.518,0-1.067.016-2.136-.012-3.2a16.483,16.483,0,0,1,.119-4.809c.073-.271.216-.755.553-.771.5-.025.716.644.72,1.063l.252-.035a6.451,6.451,0,0,1,.242-3.079,2.082,2.082,0,0,1,1.538-1.4,4.921,4.921,0,0,1,3.605,1.087,4.463,4.463,0,0,1,.791.7c.242.291.476.593.712.888a5.306,5.306,0,0,0,.549.683.127.127,0,0,0,.18,0h0a.141.141,0,0,0,.02-.16,2.814,2.814,0,0,0-.345-.431,4.415,4.415,0,0,1-.545-.89,1.424,1.424,0,0,1-.1-1.089.859.859,0,0,1,.848-.55,2.848,2.848,0,0,1,1.689,1.114,12.72,12.72,0,0,1,1.33,1.818c.153.246.3.5.444.749.048.084.143.341.277.285a.138.138,0,0,0,.093-.127,1.248,1.248,0,0,0-.109-.371,1.636,1.636,0,0,1-.089-.646c.1-.7,1.425.222,1.671.4a5.786,5.786,0,0,1,1.875,2.249,3.307,3.307,0,0,1,.216,1.678c-.1,1.307-.256,2.612-.426,3.908s-.349,2.636-.636,3.929c-.044.2-.091.4-.151.593-.026.082-.107.242-.117.283,0,.012.042,0,.024-.006s-.048,0-.071,0c-.085,0-.172-.01-.258-.016-.767-.062-1.532-.148-2.3-.232-2.515-.273-5.027-.566-7.54-.862-1.683-.2-3.368-.449-5.055-.6-.028,0-.056-.006-.083-.01-.163-.021-.163.246,0,.265q2.289.274,4.577.542c2.634.31,5.269.618,7.905.907.819.09,1.639.183,2.46.25a.934.934,0,0,0,.464,0c.212-.113.273-.552.325-.759a36.423,36.423,0,0,0,.668-3.958c.178-1.321.355-2.749.462-4.13a3.769,3.769,0,0,0-.121-1.608,5.663,5.663,0,0,0-1.673-2.314,5.326,5.326,0,0,0-1.16-.786,1.444,1.444,0,0,0-.955-.213c-.474.135-.377.765-.28,1.135.024.09.052.181.081.271.012.035.036.16.04.107l.093-.127h0l.125.035c.034.027-.024-.045-.042-.074l-.143-.252q-.232-.4-.478-.792a11.435,11.435,0,0,0-1.512-1.963,2.518,2.518,0,0,0-1.766-.927,1.234,1.234,0,0,0-.969,1.631,3.584,3.584,0,0,0,.585,1.155,6.438,6.438,0,0,1,.448.572l.02-.16h.18a4.713,4.713,0,0,1-.494-.613,9.1,9.1,0,0,0-1.36-1.5,5.554,5.554,0,0,0-3.724-1.35,2.247,2.247,0,0,0-1.871,1.233,5.074,5.074,0,0,0-.488,2.191,7.705,7.705,0,0,0,.073,1.418c.024.15.252.111.252-.035a1.359,1.359,0,0,0-.626-1.239.639.639,0,0,0-.813.154,2.387,2.387,0,0,0-.424,1.124,10.793,10.793,0,0,0-.147,1.639,22.678,22.678,0,0,0,.087,2.407c.085,1.02.034,2.064.032,3.088,0,.642,0,1.284,0,1.929,0,.213,0,.429.014.642a.832.832,0,0,0,.044.32c.075.152.3.018.22-.133Z" transform="translate(-1001.465 -156.012)" fill="#4f2524"/>
        </g>
        <g id="Group_192225" data-name="Group 192225" transform="translate(16.947 15.458)">
          <path id="Path_188734" data-name="Path 188734" d="M1074.688,232.651s1.328-2.1,2.9-.95c1.514,1.668-.611,4.083-1.015,4.415s-1.5,1.375-1.887,1.243,0-4.708,0-4.708Z" transform="translate(-1074.517 -231.358)" fill="#ffb7b8" stroke="#4f2524" stroke-width="0.37"/>
          <path id="Path_188735" data-name="Path 188735" d="M1074.688,232.651s1.328-2.1,2.9-.95c1.514,1.668-.611,4.083-1.015,4.415s-1.5,1.375-1.887,1.243,0-4.708,0-4.708Z" transform="translate(-1074.517 -231.358)" fill="none" stroke="#4f2524" stroke-width="0.89"/>
          <path id="Path_188736" data-name="Path 188736" d="M1074.53,239.668c.476-.806,1.4-2.052,2.444-1.58a1.085,1.085,0,0,1,.337.3c-1.072-.851-2.073.564-2.781,1.282Z" transform="translate(-1074.527 -236.625)" fill="#4f2524"/>
          <path id="Path_188737" data-name="Path 188737" d="M1081.07,240.483a2.135,2.135,0,0,0,.18-1.693,1.2,1.2,0,0,1-.18,1.693Z" transform="translate(-1079.771 -237.265)" fill="#4f2524"/>
        </g>
        <path id="Path_188738" data-name="Path 188738" d="M996.242,185.645c.27-.144.3-2.772,3.853-3.5a12.231,12.231,0,0,1,7.013.989,4.557,4.557,0,0,1,2.666,4.345c-.1,3.235.063,13.518.063,13.518a4.983,4.983,0,0,1-2.7,5.106c-1.768,1.2-9.408,1.034-12.262-1.578-2.732-2.107-1.493-5.207-1.53-5.441s2.894-13.438,2.894-13.438Z" transform="translate(-992.29 -176.638)" fill="#ffb7b8" stroke="#4f2524" stroke-width="0.37"/>
        <path id="Path_188739" data-name="Path 188739" d="M996.316,185.645c.18-.359.3-2.772,3.853-3.5a12.23,12.23,0,0,1,7.013.989,4.558,4.558,0,0,1,2.666,4.345c-.1,3.235.1,13.143.107,13.574a4.967,4.967,0,0,1-3.027,5.184c-2.292,1.065-9.124.9-11.978-1.709-2.256-1.791-1.8-3.709-1.53-5.441s2.894-13.438,2.894-13.438Z" transform="translate(-992.364 -176.638)" fill="none"/>
        <path id="Path_188740" data-name="Path 188740" d="M1018.111,201.03a9.136,9.136,0,0,1,.634,3.894c-.307,1.446-.952,5.66-.952,5.66s-.238.636.632,1.126a7.132,7.132,0,0,0,2.228.648c.743.086-2.159.451-2.963-.109s-1.108-.909-.912-1.315.946-3.867.946-3.867l.386-2.177-2.521-1.775.06-1.592,2.464-.494Z" transform="translate(-1010.324 -191.794)" fill="#e79e9c"/>
        <path id="Path_188741" data-name="Path 188741" d="M1015.51,261.9c.012,0,.073.1.222.24a7.466,7.466,0,0,0,4.825.765c2.809-.7,2.785-1.091,2.977-1.2,0,0-.969,2.952-2.535,3.9-1.7.812-2.912.345-3.33-.045-.339-.291-.432-.4-.983-1.549A9.318,9.318,0,0,0,1015.51,261.9Z" transform="translate(-1010.26 -240.017)" fill="#833231"/>
        <path id="Path_188742" data-name="Path 188742" d="M1027.242,264.766s-.333,1.389.212,1.641a4.4,4.4,0,0,0,3.677-.734,3.5,3.5,0,0,0,.991-1.6,11.273,11.273,0,0,1-2.242.72,9.009,9.009,0,0,1-2.64-.025Z" transform="translate(-1019.586 -241.901)" fill="#fff"/>
        <path id="Path_188743" data-name="Path 188743" d="M1027.148,265.107c.006.076,1.3.435,4.541-.529a4,4,0,0,0,.416-.985,8.723,8.723,0,0,1-4.858.853s-.107.583-.1.659Z" transform="translate(-1019.591 -241.507)" fill="#becbce"/>
        <path id="Path_188744" data-name="Path 188744" d="M1013.845,261.92s0-.025,0,0,0,0,0-.006a.147.147,0,0,1,0-.027.907.907,0,0,1,.036-.144c0-.014.01-.029.014-.043s.006-.014.008-.023a.016.016,0,0,1,0-.01h0a.739.739,0,0,1,.046-.09c.008-.014.018-.031.028-.045a.115.115,0,0,1,.014-.018h0l.012-.016a.543.543,0,0,1,.075-.078.045.045,0,0,0,.01-.008h0l.026-.018a.382.382,0,0,1,.056-.031c.014-.008,0,0,0,0l.022-.008a.191.191,0,0,1,.032-.01.469.469,0,0,1,.073-.016.09.09,0,0,0,.059-.109.086.086,0,0,0-.1-.062.771.771,0,0,0-.573.669c-.006.033-.012.068-.016.1a.087.087,0,0,0,.085.088.089.089,0,0,0,.085-.088h0Z" transform="translate(-1008.783 -239.58)" fill="#4c1f1f"/>
        <path id="Path_188745" data-name="Path 188745" d="M1054.122,259.476a.241.241,0,0,1-.024-.012c-.01,0-.01-.008,0,0s-.01-.014,0,0a.275.275,0,0,0,.022.033.8.8,0,0,0,.085.115,1.072,1.072,0,0,0,.385.265,2.086,2.086,0,0,0,.412.125.087.087,0,0,0,.105-.062.089.089,0,0,0-.059-.109,1.527,1.527,0,0,1-.595-.232l-.02-.014s-.022-.018-.01-.008c-.012-.01-.026-.021-.038-.033a.448.448,0,0,1-.06-.062c-.008-.008-.014-.018-.022-.027a.036.036,0,0,1-.01-.014h0a.482.482,0,0,1-.028-.043.2.2,0,0,0-.087-.088.086.086,0,0,0-.105.062.092.092,0,0,0,.059.109h0Z" transform="translate(-1041.171 -238.107)" fill="#4c1f1f"/>
        <path id="Path_188746" data-name="Path 188746" d="M1015.249,261.74c.115.09.184.222.313.3a4.317,4.317,0,0,0,.436.213,7.242,7.242,0,0,0,1.915.513,7.618,7.618,0,0,0,3.045-.174,8.72,8.72,0,0,0,1.877-.673c.186-.1.319-.267.494-.373l-.083-.068a11.247,11.247,0,0,1-.573,1.375,6.7,6.7,0,0,1-1.582,2.23,3.314,3.314,0,0,1-3.064.54,2.31,2.31,0,0,1-1.233-1.258,16.645,16.645,0,0,0-1.477-2.714c-.046-.06-.127.025-.081.084a16.353,16.353,0,0,1,1.459,2.692,2.469,2.469,0,0,0,1.169,1.26,3.452,3.452,0,0,0,2.973-.271,5.434,5.434,0,0,0,1.76-2.164,11.383,11.383,0,0,0,.755-1.738.059.059,0,0,0-.083-.068c-.129.078-.224.209-.355.291a5.988,5.988,0,0,1-1.54.616,7.521,7.521,0,0,1-1.594.345,8.964,8.964,0,0,1-1.484,0,7.451,7.451,0,0,1-2.075-.472,4.672,4.672,0,0,1-.581-.269c-.139-.078-.212-.211-.335-.31-.059-.045-.115.057-.057.1Z" transform="translate(-1010.029 -239.806)" fill="#4c1f1f"/>
        <g id="Group_192226" data-name="Group 192226" transform="translate(12.494 8.086)">
          <path id="Path_188747" data-name="Path 188747" d="M1052.083,196.111a.79.79,0,0,1,.924-.671,2.9,2.9,0,0,1,1.576.786s.612.47.43,1.007c-.242.6-.591.466-.618.447a4.626,4.626,0,0,0-1.822-.761c-.7-.074-.491-.806-.491-.806Z" transform="translate(-1052.051 -195.425)" fill="#552424"/>
          <path id="Path_188748" data-name="Path 188748" d="M1052.083,196.111a.79.79,0,0,1,.924-.671,2.9,2.9,0,0,1,1.576.786s.612.47.43,1.007c-.242.6-.591.466-.618.447a4.626,4.626,0,0,0-1.822-.761c-.7-.074-.491-.806-.491-.806Z" transform="translate(-1052.051 -195.425)" fill="#2f2e40" stroke="#4f2524" stroke-width="0.43"/>
        </g>
        <path id="Path_188749" data-name="Path 188749" d="M1000.267,183.47s-1.956,4.089-1.915,5.861a3.038,3.038,0,0,0,1.838,2.513l-2.787.341s-2.946,7.73-2.361,10.332a3.918,3.918,0,0,0,1.267,2.876s2.2,2.32,9.285,1.621c2.936-.322,3.134-.9,3.291-.862s-1.051,2-6.343,1.912a14.074,14.074,0,0,1-7.633-2.56s-2.174-1.372-1.108-5.781c1.14-4.715,2.934-13.19,2.934-13.19s.468-1.545.874-1.81a9.261,9.261,0,0,1,2.66-1.251Z" transform="translate(-992.617 -177.837)" fill="#e79e9c"/>
        <g id="Group_192227" data-name="Group 192227" transform="translate(4.846 8.127)">
          <path id="Path_188750" data-name="Path 188750" d="M1016.41,196.453a.76.76,0,0,0-.72-.817,2.724,2.724,0,0,0-1.615.382s-.66.3-.6.833c.1.607.452.556.482.546a4.355,4.355,0,0,1,1.838-.306c.662.084.616-.636.616-.636Z" transform="translate(-1013.471 -195.623)" fill="#552424"/>
          <path id="Path_188751" data-name="Path 188751" d="M1016.41,196.453a.76.76,0,0,0-.72-.817,2.724,2.724,0,0,0-1.615.382s-.66.3-.6.833c.1.607.452.556.482.546a4.355,4.355,0,0,1,1.838-.306c.662.084.616-.636.616-.636Z" transform="translate(-1013.471 -195.623)" fill="#2f2e40" stroke="#4f2524" stroke-width="0.43"/>
        </g>
        <path id="Path_188752" data-name="Path 188752" d="M996.316,185.645c.18-.359.3-2.772,3.853-3.5a12.23,12.23,0,0,1,7.013.989,4.558,4.558,0,0,1,2.666,4.345c-.1,3.235.1,13.143.107,13.574a4.967,4.967,0,0,1-3.027,5.184c-2.292,1.065-9.124.9-11.978-1.709-2.256-1.791-1.8-3.709-1.53-5.441s2.894-13.438,2.894-13.438Z" transform="translate(-992.364 -176.638)" fill="none" stroke="#4f2524" stroke-width="0.89"/>
        <path id="Path_188753" data-name="Path 188753" d="M1022.692,221.812c-.131.97-.519,2.343-.733,3.313-.131.55-.262,1.1-.381,1.649-.079.484-.349,1.139.059,1.531a4.093,4.093,0,0,0,3.572.648,9.255,9.255,0,0,1-.936.152,3.6,3.6,0,0,1-2.71-.691c-.5-.435-.26-1.137-.151-1.68.42-1.645.753-3.313,1.279-4.924h0Z" transform="translate(-1014.871 -208.311)" fill="#843616"/>
        <g id="Group_192229" data-name="Group 192229" transform="translate(3.906 11.374)">
          <ellipse id="Ellipse_9298" data-name="Ellipse 9298" cx="1.931" cy="1.998" rx="1.931" ry="1.998" fill="#fff"/>
          <ellipse id="Ellipse_9299" data-name="Ellipse 9299" cx="1.931" cy="1.998" rx="1.931" ry="1.998" fill="none" stroke="#843616" stroke-width="0.44"/>
          <g id="Group_192228" data-name="Group 192228" transform="translate(0.002 1.231)">
            <ellipse id="Ellipse_9300" data-name="Ellipse 9300" cx="1.013" cy="1.048" rx="1.013" ry="1.048" fill="#642e2a" stroke="#4f2524" stroke-width="0.39"/>
            <ellipse id="Ellipse_9301" data-name="Ellipse 9301" cx="0.264" cy="0.273" rx="0.264" ry="0.273" transform="translate(0.422 0.326)" fill="#fff"/>
          </g>
        </g>
        <g id="Group_192231" data-name="Group 192231" transform="translate(10.894 12.25)">
          <ellipse id="Ellipse_9302" data-name="Ellipse 9302" cx="1.931" cy="1.998" rx="1.931" ry="1.998" transform="translate(0.026)" fill="#fff"/>
          <ellipse id="Ellipse_9303" data-name="Ellipse 9303" cx="1.931" cy="1.998" rx="1.931" ry="1.998" transform="translate(0.026)" fill="none" stroke="#843616" stroke-width="0.44"/>
          <g id="Group_192230" data-name="Group 192230" transform="translate(0 1.073)">
            <ellipse id="Ellipse_9304" data-name="Ellipse 9304" cx="1.013" cy="1.048" rx="1.013" ry="1.048" fill="#642e2a" stroke="#4f2524" stroke-width="0.39"/>
            <ellipse id="Ellipse_9305" data-name="Ellipse 9305" cx="0.264" cy="0.273" rx="0.264" ry="0.273" transform="translate(0.422 0.324)" fill="#fff"/>
          </g>
        </g>
      </g>
      <path id="Path_188754" data-name="Path 188754" d="M958.756,794.1c-.737-.076-9.215,3.211-8.367,5.037s15.766-.365,16.444-.913-.17-2.739-.509-3.469-3.221,1.461-7.57-.654Z" transform="translate(-924.356 -663.192)" fill="#2f2e40" stroke="#4f2524" stroke-width="0.44"/>
      <path id="Path_188755" data-name="Path 188755" d="M1135.878,777.234c-.135-.339,4.145,1,6.615-1.734,2.91,2.281,5.027,9.585,3.186,9.117-1.51.285-6.979-.445-9.8-7.384Z" transform="translate(-1073.122 -648.404)" fill="#2f2e40" stroke="#4f2524" stroke-width="0.45"/>
      <path id="Path_188756" data-name="Path 188756" d="M825.6,268.509a15.757,15.757,0,0,0,1.364-5.113c.046-2.212-1.711-5.5-1.711-5.5s-.757,5.9-1.352,6.247-2.006-1.846-3.241-2.394-1.588,1.1-1.235,2.009a9.739,9.739,0,0,0,2.117,2.739c0-.183-1.411,4.667.706,6.208A34.948,34.948,0,0,0,825.6,268.509Z" transform="translate(-819.296 -236.996)" fill="#ffb7b8" stroke="#4f2524" stroke-width="0.39"/>
      <path id="Path_188757" data-name="Path 188757" d="M1101.18,497.382l1.695,7.437s.6,1.691,1.833,1.508a29.225,29.225,0,0,0,4.057-1.278,3.162,3.162,0,0,0,.529-2.556.937.937,0,0,0-1.552-.632l-1.094,1.362s-.353-3.1-1.764-4.2a11.541,11.541,0,0,0-3.7-1.643Z" transform="translate(-1045.305 -427.344)" fill="#ffb7b8" stroke="#4f2524" stroke-width="0.39"/>
      <path id="Path_188758" data-name="Path 188758" d="M1005.95,307.83s4.057,4.2,11.291.913" transform="translate(-968.952 -276.683)" fill="#a060f4" stroke="#4f2524" stroke-width="0.49"/>
      <path id="Path_188759" data-name="Path 188759" d="M959.343,354.019a14.266,14.266,0,0,1,.616-7.029" transform="translate(-931.429 -307.809)" fill="#8856d8" stroke="#4f2524" stroke-width="0.5"/>
      <line id="Line_88984" data-name="Line 88984" x1="2.293" y1="2.374" transform="translate(53.758 45.935)" fill="#a060f4" stroke="#4f2524" stroke-width="0.49"/>
    </g>
  </g>
</svg>
