<svg xmlns="http://www.w3.org/2000/svg" xmlns:xlink="http://www.w3.org/1999/xlink" width="120" height="100" viewBox="0 0 120 100">
  <defs>
    <linearGradient id="linear-gradient" x1="0.5" y1="1.021" x2="0.5" y2="0.021" gradientUnits="objectBoundingBox">
      <stop offset="0" stop-color="#fff"/>
      <stop offset="1" stop-color="#fff" stop-opacity="0"/>
    </linearGradient>
  </defs>
  <g id="Visual_Studio" data-name="Visual Studio" transform="translate(-837 -1332)">
    <rect id="Rectangle_153327" data-name="Rectangle 153327" width="120" height="100" transform="translate(837 1332)" fill="#fff" opacity="0"/>
    <rect id="Rectangle_153312" data-name="Rectangle 153312" width="100" height="100" rx="16" transform="translate(847 1332)" fill="#eef2f8"/>
    <g id="Visual_Studio-2" data-name="Visual_Studio" transform="translate(859.5 1344.5)">
      <path id="Path_180937" data-name="Path 180937" d="M10.836,63.44a3.112,3.112,0,0,1-3.234.51l-5.68-2.4A3.141,3.141,0,0,1,0,58.673v-33.5A3.141,3.141,0,0,1,1.922,22.29L7.6,19.934a3.112,3.112,0,0,1,3.234.51l1.273,1.06a1.719,1.719,0,0,0-1.8-.134,1.737,1.737,0,0,0-.937,1.548V60.927a1.737,1.737,0,0,0,.937,1.548,1.719,1.719,0,0,0,1.8-.134Z" transform="translate(0 -4.422)" fill="#52218a"/>
      <path id="Path_180938" data-name="Path 180938" d="M1.922,57.383A3.141,3.141,0,0,1,0,54.5v-.259a1.8,1.8,0,0,0,3.125,1.217L51.563,1.625A4.669,4.669,0,0,1,56.891.714L72.344,8.19A4.714,4.714,0,0,1,75,12.439v.181a2.96,2.96,0,0,0-4.836-2.3L12.109,58.168l-1.273,1.1a3.112,3.112,0,0,1-3.234.51Z" transform="translate(0 -0.249)" fill="#6c33af"/>
      <path id="Path_180939" data-name="Path 180939" d="M1.922,22.286A3.141,3.141,0,0,0,0,25.168v.259A1.8,1.8,0,0,1,3.125,24.21L51.563,78.044a4.669,4.669,0,0,0,5.328.911l15.453-7.476A4.714,4.714,0,0,0,75,67.23v-.181a2.96,2.96,0,0,1-4.836,2.3L12.109,21.5l-1.273-1.1A3.112,3.112,0,0,0,7.6,19.93Z" transform="translate(0 -4.418)" fill="#854cc7"/>
      <path id="Path_180940" data-name="Path 180940" d="M71.328,74.785A4.669,4.669,0,0,1,66,73.874a2.748,2.748,0,0,0,4.688-1.955V3.6A2.748,2.748,0,0,0,66,1.625,4.669,4.669,0,0,1,71.328.714L86.781,8.182a4.714,4.714,0,0,1,2.656,4.249V63.068a4.714,4.714,0,0,1-2.656,4.249Z" transform="translate(-14.438 -0.249)" fill="#b179f1"/>
      <g id="Group_190576" data-name="Group 190576" opacity="0.25">
        <path id="Path_180941" data-name="Path 180941" d="M53.82,75.13a4.665,4.665,0,0,0,3.07-.346l15.453-7.468A4.714,4.714,0,0,0,75,63.067V12.43a4.714,4.714,0,0,0-2.656-4.249L56.891.713a4.638,4.638,0,0,0-5.328.911L26.656,29.314,12.109,17.33l-1.273-1.1a3.113,3.113,0,0,0-2.82-.652,1.985,1.985,0,0,0-.414.141l-5.68,2.4A3.14,3.14,0,0,0,0,20.762V54.735a3.14,3.14,0,0,0,1.922,2.647L7.6,59.737a1.985,1.985,0,0,0,.414.141,3.113,3.113,0,0,0,2.82-.652l1.273-1.06L26.656,46.183l24.906,27.69A4.681,4.681,0,0,0,53.82,75.13Zm2.43-53.339L36.883,37.748,56.25,53.706ZM9.375,26.966l9.7,10.782-9.7,10.782Z" transform="translate(0 -0.248)" fill-rule="evenodd" fill="url(#linear-gradient)"/>
      </g>
    </g>
  </g>
</svg>
