<svg xmlns="http://www.w3.org/2000/svg" width="120" height="100" viewBox="0 0 120 100">
  <g id="XD" transform="translate(8 -2)">
    <rect id="Rectangle_153330" data-name="Rectangle 153330" width="120" height="100" transform="translate(-8 2)" fill="#fff" opacity="0"/>
    <path id="Path_203232" data-name="Path 203232" d="M2,38.19c0-12.668,0-19,2.465-23.84A22.619,22.619,0,0,1,14.35,4.465C19.189,2,25.523,2,38.19,2H65.81c12.668,0,19,0,23.84,2.465a22.619,22.619,0,0,1,9.885,9.885C102,19.189,102,25.523,102,38.19V65.81c0,12.668,0,19-2.465,23.84a22.619,22.619,0,0,1-9.885,9.885C84.811,102,78.477,102,65.81,102H38.19c-12.668,0-19,0-23.84-2.465A22.619,22.619,0,0,1,4.465,89.65C2,84.811,2,78.477,2,65.81Z" fill="#eef2f8"/>
    <path id="Path_203233" data-name="Path 203233" d="M44.023,10.733,31.546,31.856l13.349,22.43c.278.509,0,.621-.4.621H34.967c-.671,0-1.141-.024-1.409-.483q-1.343-2.683-2.684-5.332t-2.851-5.4q-1.51-2.751-2.985-5.573c-.895,1.835-1.89,3.67-2.851,5.5s-1.913,3.658-2.851,5.47-1.9,3.613-2.884,5.4c-.179.413-.493.455-.939.455H6.322c-.361,0-.4-.271-.2-.593L19.068,32.544,6.456,10.664a.37.37,0,0,1,.335-.619h9.459a1.084,1.084,0,0,1,1.006.482q1.208,2.753,2.683,5.5t2.985,5.435c1.006,1.789,2,3.6,2.851,5.436q1.341-2.821,2.717-5.5T31.311,16q1.442-2.717,2.784-5.4a.71.71,0,0,1,.805-.551h8.788C44.023,10.045,44.162,10.5,44.023,10.733Z" transform="translate(10.286 20.673)" fill="#470137"/>
    <path id="Path_203234" data-name="Path 203234" d="M34.644,58.473c-5.916.092-12.113-2.344-15.228-7.74A18.976,18.976,0,0,1,17.135,41a18.326,18.326,0,0,1,2.281-9.013c3.92-7.008,11.818-9.634,19.32-8.944V9.485c0-.32.134-.482.4-.482h8.452a.364.364,0,0,1,.4.413V50.079c0,1.678.166,3.349.269,5.023a.728.728,0,0,1-.4.688A34.033,34.033,0,0,1,34.644,58.473Zm4.092-8.532V31.158a9.577,9.577,0,0,0-12.075,9.426C26.515,47.265,32.274,51.88,38.736,49.941Z" transform="translate(38.917 18)" fill="#470137"/>
  </g>
</svg>
