<svg width="161" height="166" viewBox="0 0 161 166" fill="none" xmlns="http://www.w3.org/2000/svg">
<g clip-path="url(#clip0_182_2639)">
<path d="M94.5765 120.739C100.823 117.132 106.333 112.379 110.818 106.73L119.849 113.946C114.461 120.72 107.846 126.418 100.349 130.744L94.5765 120.739ZM65.7381 128.462C72.9587 128.46 80.1154 127.109 86.8396 124.478L91.0524 135.244C82.9848 138.396 74.3998 140.015 65.7383 140.018L65.7381 128.462ZM36.8266 120.757C43.0976 124.338 49.9776 126.726 57.1185 127.802L55.3999 139.226C46.8281 137.941 38.5704 135.072 31.0484 130.765L36.8266 120.757ZM15.7231 99.5856C19.3295 105.833 24.081 111.344 29.7288 115.832L22.5131 124.863C15.7278 119.474 10.0203 112.854 5.69024 105.349L15.7231 99.5856ZM7.96722 70.7349C7.98202 77.9488 9.33939 85.097 11.97 91.8142L1.20939 96.0299C-1.94622 87.9704 -3.57171 79.3932 -3.58377 70.7379L7.96722 70.7349ZM15.6771 41.8262C12.0941 48.0942 9.70616 54.9732 8.63487 62.1131L-2.79738 60.3966C-1.5075 51.8261 1.36339 43.5699 5.66914 36.048L15.6771 41.8262ZM36.8434 20.7199C30.5971 24.3267 25.0871 29.0793 20.6023 34.7284L11.5711 27.5127C16.9608 20.7286 23.581 15.0214 31.085 10.6899L36.8434 20.7199ZM65.7212 12.9863C58.5007 12.9877 51.344 14.3386 44.6198 16.9696L40.4069 6.204C48.4658 3.05006 57.042 1.42627 65.6961 1.41584L65.7212 12.9863ZM94.6078 20.6768C88.3368 17.0958 81.4568 14.7071 74.3158 13.6316L76.0402 2.19723C84.6107 3.4864 92.8665 6.35914 100.386 10.6688L94.6078 20.6768ZM115.736 41.8625C112.124 35.6079 107.364 30.0912 101.706 25.602L108.921 16.5708C115.707 21.9591 121.414 28.5796 125.744 36.0846L115.736 41.8625ZM123.453 70.7238C123.446 63.5023 122.093 56.3454 119.464 49.6194L130.225 45.4037C133.381 53.4632 135.006 62.0404 135.018 70.6957L123.453 70.7238ZM115.757 99.6074C119.34 93.3394 121.728 86.4604 122.799 79.3205L134.232 81.037C132.942 89.6075 130.071 97.8637 125.765 105.386L115.757 99.6074Z" fill="#FAFAFA"/>
<path d="M35.693 53.3824C31.0956 61.3453 29.8498 70.8083 32.2295 79.6897C34.6093 88.5712 40.4197 96.1435 48.3826 100.741C56.3455 105.338 65.8085 106.584 74.6899 104.204C83.5713 101.824 91.1436 96.014 95.741 88.0512C100.338 80.0883 101.584 70.6253 99.2044 61.7439C96.8247 52.8624 91.0142 45.2901 83.0514 40.6928C75.0885 36.0954 65.6255 34.8496 56.7441 37.2294C47.8626 39.6091 40.2903 45.4196 35.693 53.3824Z" stroke="#FAFAFA" stroke-width="6" stroke-linejoin="round"/>
<path d="M83.0518 40.6928L65.7174 70.7168L95.7414 88.0512" stroke="#FAFAFA" stroke-width="6" stroke-linejoin="round"/>
</g>
<defs>
<clipPath id="clip0_182_2639">
<rect width="138.675" height="138.675" fill="white" transform="translate(40.3379 -24) rotate(30)"/>
</clipPath>
</defs>
</svg>
