<svg width="100" height="80" viewBox="0 0 100 80" fill="none" xmlns="http://www.w3.org/2000/svg">
<g clip-path="url(#clip0_90_2617)">
<g filter="url(#filter0_d_90_2617)">
<path d="M11.0314 10.4549C10.8428 5.01569 15.0641 0 20.7699 0H79.2373C84.9432 0 89.1645 5.01569 88.9758 10.4549C88.7945 15.6798 89.0299 22.448 90.7266 27.9667C92.4287 33.5024 95.299 37.0014 100 37.451V42.549C95.299 42.9986 92.4287 46.4976 90.7266 52.0333C89.0299 57.552 88.7945 64.3202 88.9758 69.5453C89.1645 74.9843 84.9432 80 79.2373 80H20.7699C15.0641 80 10.8428 74.9843 11.0316 69.5453C11.2127 64.3202 10.9773 57.552 9.28047 52.0333C7.57852 46.4976 4.70117 42.9986 0 42.549V37.451C4.70098 37.0014 7.57852 33.5024 9.28047 27.9667C10.9773 22.448 11.2127 15.6798 11.0314 10.4549Z" fill="url(#paint0_linear_90_2617)"/>
<path d="M52.1684 61.266C61.4061 61.266 66.9727 56.7252 66.9727 49.2356C66.9727 43.5742 63.0008 39.4756 57.1031 38.8268V38.5909C61.4361 37.8833 64.8363 33.8437 64.8363 29.3323C64.8363 22.9042 59.7812 18.717 52.0781 18.717H34.7461V61.266H52.1684ZM41.4863 24.1131H50.4533C55.3279 24.1131 58.0961 26.295 58.0961 30.2462C58.0961 34.4629 54.8766 36.8217 49.0391 36.8217H41.4863V24.1131ZM41.4863 55.8701V41.8641H50.393C56.7721 41.8641 60.082 44.2229 60.082 48.8229C60.082 53.4227 56.8625 55.8701 50.7842 55.8701H41.4863Z" fill="url(#paint1_linear_90_2617)"/>
<path d="M11.0314 10.4549C10.8428 5.01569 15.0641 0 20.7699 0H79.2373C84.9432 0 89.1645 5.01569 88.9758 10.4549C88.7945 15.6798 89.0299 22.448 90.7266 27.9667C92.4287 33.5024 95.299 37.0014 100 37.451V42.549C95.299 42.9986 92.4287 46.4976 90.7266 52.0333C89.0299 57.552 88.7945 64.3202 88.9758 69.5453C89.1645 74.9843 84.9432 80 79.2373 80H20.7699C15.0641 80 10.8428 74.9843 11.0316 69.5453C11.2127 64.3202 10.9773 57.552 9.28047 52.0333C7.57852 46.4976 4.70117 42.9986 0 42.549V37.451C4.70098 37.0014 7.57852 33.5024 9.28047 27.9667C10.9773 22.448 11.2127 15.6798 11.0314 10.4549Z" stroke="white"/>
<path d="M52.1684 61.266C61.4061 61.266 66.9727 56.7252 66.9727 49.2356C66.9727 43.5742 63.0008 39.4756 57.1031 38.8268V38.5909C61.4361 37.8833 64.8363 33.8437 64.8363 29.3323C64.8363 22.9042 59.7812 18.717 52.0781 18.717H34.7461V61.266H52.1684ZM41.4863 24.1131H50.4533C55.3279 24.1131 58.0961 26.295 58.0961 30.2462C58.0961 34.4629 54.8766 36.8217 49.0391 36.8217H41.4863V24.1131ZM41.4863 55.8701V41.8641H50.393C56.7721 41.8641 60.082 44.2229 60.082 48.8229C60.082 53.4227 56.8625 55.8701 50.7842 55.8701H41.4863Z" stroke="white"/>
</g>
</g>
<defs>
<filter id="filter0_d_90_2617" x="-16.5" y="-12.5" width="133" height="113" filterUnits="userSpaceOnUse" color-interpolation-filters="sRGB">
<feFlood flood-opacity="0" result="BackgroundImageFix"/>
<feColorMatrix in="SourceAlpha" type="matrix" values="0 0 0 0 0 0 0 0 0 0 0 0 0 0 0 0 0 0 127 0" result="hardAlpha"/>
<feOffset dy="4"/>
<feGaussianBlur stdDeviation="8"/>
<feColorMatrix type="matrix" values="0 0 0 0 0 0 0 0 0 0 0 0 0 0 0 0 0 0 0.15 0"/>
<feBlend mode="normal" in2="BackgroundImageFix" result="effect1_dropShadow_90_2617"/>
<feBlend mode="normal" in="SourceGraphic" in2="effect1_dropShadow_90_2617" result="shape"/>
</filter>
<linearGradient id="paint0_linear_90_2617" x1="14.8592" y1="2.11726" x2="102.506" y2="71.4198" gradientUnits="userSpaceOnUse">
<stop stop-color="#9013FE"/>
<stop offset="1" stop-color="#6610F2"/>
</linearGradient>
<linearGradient id="paint1_linear_90_2617" x1="37.7943" y1="21.5176" x2="57.4403" y2="54.6133" gradientUnits="userSpaceOnUse">
<stop stop-color="white"/>
<stop offset="1" stop-color="#F1E5FC"/>
</linearGradient>
<clipPath id="clip0_90_2617">
<rect width="100" height="80" fill="white"/>
</clipPath>
</defs>
</svg>
