<svg width="50" height="50" viewBox="0 0 50 50" fill="none" xmlns="http://www.w3.org/2000/svg">
<path d="M30.8931 47.1042H19.1074L20.5806 38.2649H29.4199L30.8931 47.1042Z" stroke="black" stroke-width="2" stroke-linecap="round" stroke-linejoin="round"/>
<path d="M14.6875 47.104H35.3125" stroke="black" stroke-width="2" stroke-linecap="round" stroke-linejoin="round"/>
<path d="M8.79422 2.90771H41.2049C41.2049 2.90771 47.0978 2.90771 47.0978 8.80057V32.372C47.0978 32.372 47.0978 38.2649 41.2049 38.2649H8.79422C8.79422 38.2649 2.90137 38.2649 2.90137 32.372V8.80057C2.90137 8.80057 2.90137 2.90771 8.79422 2.90771Z" stroke="black" stroke-width="2" stroke-linecap="round" stroke-linejoin="round"/>
<path d="M8.79492 20.5864C8.79492 22.9307 9.7262 25.179 11.3839 26.8367C13.0416 28.4944 15.2899 29.4256 17.6342 29.4256C19.9785 29.4256 22.2268 28.4944 23.8845 26.8367C25.5422 25.179 26.4735 22.9307 26.4735 20.5864C26.4735 18.242 25.5422 15.9937 23.8845 14.336C22.2268 12.6783 19.9785 11.7471 17.6342 11.7471C15.2899 11.7471 13.0416 12.6783 11.3839 14.336C9.7262 15.9937 8.79492 18.242 8.79492 20.5864Z" stroke="black" stroke-width="2" stroke-linecap="round" stroke-linejoin="round"/>
<path d="M17.6338 11.7471V20.5864L23.8841 26.8367" stroke="black" stroke-width="2" stroke-linecap="round" stroke-linejoin="round"/>
<path d="M32.3662 14.6934H38.2591" stroke="black" stroke-width="2" stroke-linecap="round" stroke-linejoin="round"/>
<path d="M32.3662 20.5862H38.2591" stroke="black" stroke-width="2" stroke-linecap="round" stroke-linejoin="round"/>
<path d="M32.3662 26.479H38.2591" stroke="black" stroke-width="2" stroke-linecap="round" stroke-linejoin="round"/>
</svg>
