<svg width="50" height="50" viewBox="0 0 50 50" fill="none" xmlns="http://www.w3.org/2000/svg">
<path d="M41.2049 2.90186H8.79422C5.5397 2.90186 2.90137 5.54019 2.90137 8.79471V41.2054C2.90137 44.4601 5.5397 47.0983 8.79422 47.0983H41.2049C44.4596 47.0983 47.0978 44.4601 47.0978 41.2054V8.79471C47.0978 5.54019 44.4596 2.90186 41.2049 2.90186Z" stroke="black" stroke-width="2" stroke-linecap="round" stroke-linejoin="round"/>
<path d="M16.1604 41.2054C15.7536 41.2054 15.4238 40.8756 15.4238 40.4688C15.4238 40.062 15.7536 39.7322 16.1604 39.7322" stroke="black" stroke-width="2"/>
<path d="M16.1611 41.2054C16.568 41.2054 16.8977 40.8756 16.8977 40.4688C16.8977 40.062 16.568 39.7322 16.1611 39.7322" stroke="black" stroke-width="2"/>
<path d="M25.0003 41.2054C24.5935 41.2054 24.2637 40.8756 24.2637 40.4688C24.2637 40.062 24.5935 39.7322 25.0003 39.7322" stroke="black" stroke-width="2"/>
<path d="M25 41.2054C25.4068 41.2054 25.7366 40.8756 25.7366 40.4688C25.7366 40.062 25.4068 39.7322 25 39.7322" stroke="black" stroke-width="2"/>
<path d="M33.8391 41.2054C33.4323 41.2054 33.1025 40.8756 33.1025 40.4688C33.1025 40.062 33.4323 39.7322 33.8391 39.7322" stroke="black" stroke-width="2"/>
<path d="M33.8389 41.2054C34.2457 41.2054 34.5755 40.8756 34.5755 40.4688C34.5755 40.062 34.2457 39.7322 33.8389 39.7322" stroke="black" stroke-width="2"/>
<path d="M12.639 16.1606L8.79492 20.5803L12.639 24.9999" stroke="black" stroke-width="2" stroke-linecap="round" stroke-linejoin="round"/>
<path d="M37.3613 16.1606L41.2054 20.5803L37.3613 24.9999" stroke="black" stroke-width="2" stroke-linecap="round" stroke-linejoin="round"/>
</svg>
