<svg width="50" height="50" viewBox="0 0 50 50" fill="none" xmlns="http://www.w3.org/2000/svg">
<path d="M8.56243 24.9999V24.5051C8.56243 23.3242 9.0214 22.1915 9.8384 21.3563C10.6554 20.5212 11.7633 20.052 12.9188 20.052C14.0742 20.052 15.1822 20.5212 15.9992 21.3563C16.8162 22.1915 17.2751 23.3242 17.2751 24.5051V24.9999H22.5801V30.9374H22.0962C20.9407 30.9374 19.8326 31.4067 19.0158 32.2417C18.1988 33.0769 17.7398 34.2096 17.7398 35.3905C17.7398 36.5715 18.1988 37.7042 19.0158 38.5394C19.8326 39.3744 20.9407 39.8437 22.0962 39.8437H22.5801V45.7812H4.6708C4.1574 45.7812 3.66479 45.5726 3.30181 45.2015C2.93863 44.8304 2.73458 44.3269 2.73458 43.802V24.9999H8.56243Z" stroke="black" stroke-width="2" stroke-linecap="round" stroke-linejoin="round"/>
<path d="M22.0958 30.9375H22.5799V25H27.4395V25.4948C27.4395 26.6758 27.8985 27.8084 28.7155 28.6436C29.5324 29.4787 30.6405 29.9479 31.7959 29.9479C32.9512 29.9479 34.0593 29.4787 34.8762 28.6436C35.6932 27.8084 36.1522 26.6758 36.1522 25.4948V25H42.4253V30.9375H42.9093C44.0647 30.9375 45.1727 31.4068 45.9897 32.2418C46.8067 33.077 47.2656 34.2097 47.2656 35.3906C47.2656 36.5716 46.8067 37.7043 45.9897 38.5395C45.1727 39.3745 44.0647 39.8438 42.9093 39.8438H42.4253V43.8021C42.4253 44.327 42.2213 44.8305 41.8582 45.2016C41.4951 45.5726 41.0026 45.7812 40.4891 45.7812H22.5799V39.8438H22.0958C20.9403 39.8438 19.8324 39.3745 19.0154 38.5395C18.1984 37.7043 17.7394 36.5716 17.7394 35.3906C17.7394 34.2097 18.1984 33.077 19.0154 32.2418C19.8324 31.4068 20.9403 30.9375 22.0958 30.9375Z" stroke="black" stroke-width="2" stroke-linecap="round" stroke-linejoin="round"/>
<path d="M22.5793 19.0625H23.0634C24.2188 19.0625 25.3267 18.5933 26.1437 17.7582C26.9607 16.9231 27.4197 15.7904 27.4197 14.6094C27.4197 13.4283 26.9607 12.2957 26.1437 11.4605C25.3267 10.6254 24.2188 10.1562 23.0634 10.1562H22.5793V4.21875H40.4887C41.0022 4.21875 41.4946 4.42727 41.8577 4.79843C42.2208 5.1696 42.4248 5.673 42.4248 6.19792V10.1562H41.9408C40.7854 10.1562 39.6774 10.6254 38.8604 11.4605C38.0434 12.2957 37.5845 13.4283 37.5845 14.6094C37.5845 15.7904 38.0434 16.9231 38.8604 17.7582C39.6774 18.5933 40.7854 19.0625 41.9408 19.0625H42.4248V25H36.113V25.4948C36.113 26.6758 35.654 27.8084 34.8371 28.6436C34.0201 29.4787 32.912 29.9479 31.7567 29.9479C30.6013 29.9479 29.4932 29.4787 28.6763 28.6436C27.8593 27.8084 27.4003 26.6758 27.4003 25.4948V25H22.5407L22.5793 19.0625Z" stroke="black" stroke-width="2" stroke-linecap="round" stroke-linejoin="round"/>
<path d="M8.56183 4.21875V4.71354C8.56183 5.89459 9.0208 7.02725 9.8378 7.86238C10.6548 8.69751 11.7627 9.16667 12.9182 9.16667C14.0736 9.16667 15.1815 8.69751 15.9985 7.86238C16.8155 7.02725 17.2745 5.89459 17.2745 4.71354V4.21875H22.5795V10.1562H23.0636C24.219 10.1562 25.327 10.6254 26.144 11.4605C26.961 12.2957 27.4199 13.4283 27.4199 14.6094C27.4199 15.7904 26.961 16.9231 26.144 17.7582C25.327 18.5933 24.219 19.0625 23.0636 19.0625H22.5795V25H17.2551V24.5052C17.2551 23.3242 16.7962 22.1916 15.9792 21.3564C15.1622 20.5212 14.0542 20.0521 12.8988 20.0521C11.7435 20.0521 10.6354 20.5212 9.8184 21.3564C9.0014 22.1916 8.54243 23.3242 8.54243 24.5052V25H2.73417V6.19792C2.73417 5.673 2.93803 5.1696 3.30121 4.79843C3.66418 4.42727 4.1568 4.21875 4.67019 4.21875H8.56183Z" stroke="black" stroke-width="2" stroke-linecap="round" stroke-linejoin="round"/>
</svg>
