<svg width="47" height="47" viewBox="0 0 47 47" fill="none" xmlns="http://www.w3.org/2000/svg">
<path d="M3.94643 1H42.25C42.25 1 45.1964 1 45.1964 3.94643V42.25C45.1964 42.25 45.1964 45.1964 42.25 45.1964H3.94643C3.94643 45.1964 1 45.1964 1 42.25V3.94643C1 3.94643 1 1 3.94643 1Z" stroke="black" stroke-width="2" stroke-linecap="round" stroke-linejoin="round"/>
<path d="M9.34821 7.875H25.0625C25.0625 7.875 26.5357 7.875 26.5357 9.34821V25.0625C26.5357 25.0625 26.5357 26.5357 25.0625 26.5357H9.34821C9.34821 26.5357 7.875 26.5357 7.875 25.0625V9.34821C7.875 9.34821 7.875 7.875 9.34821 7.875Z" stroke="black" stroke-width="2" stroke-linecap="round" stroke-linejoin="round"/>
<path d="M27.0269 31.4465H36.8484C36.8484 31.4465 38.3216 31.4465 38.3216 32.9197V36.8483C38.3216 36.8483 38.3216 38.3215 36.8484 38.3215H27.0269C27.0269 38.3215 25.5537 38.3215 25.5537 36.8483V32.9197C25.5537 32.9197 25.5537 31.4465 27.0269 31.4465Z" stroke="black" stroke-width="2" stroke-linecap="round" stroke-linejoin="round"/>
<path d="M7.875 38.3215H14.75" stroke="black" stroke-width="2" stroke-linecap="round" stroke-linejoin="round"/>
<path d="M7.875 32.4285H17.6964" stroke="black" stroke-width="2" stroke-linecap="round" stroke-linejoin="round"/>
<path d="M8.30762 8.30713L26.104 26.1036" stroke="black" stroke-width="2" stroke-linecap="round" stroke-linejoin="round"/>
<path d="M26.104 8.30713L8.30762 26.1036" stroke="black" stroke-width="2" stroke-linecap="round" stroke-linejoin="round"/>
<path d="M38.3213 25.5535V8.36597" stroke="black" stroke-width="2" stroke-linecap="round" stroke-linejoin="round"/>
</svg>
