<svg width="50" height="50" viewBox="0 0 50 50" fill="none" xmlns="http://www.w3.org/2000/svg">
<path d="M47.0978 19.1072V10.5626C47.098 9.97359 46.9214 9.39809 46.5914 8.91036C46.2612 8.42263 45.7923 8.04503 45.2455 7.82633L33.4598 3.11204C32.7573 2.83114 31.974 2.83114 31.2715 3.11204L18.7276 8.13079C18.0253 8.41169 17.2418 8.41169 16.5394 8.13079L4.92264 3.48329C4.69849 3.39345 4.45571 3.3601 4.21565 3.38615C3.97558 3.41221 3.7456 3.49687 3.54595 3.63268C3.3463 3.76849 3.18309 3.95131 3.07069 4.16504C2.95829 4.37875 2.90015 4.61683 2.90139 4.85829V33.091C2.90129 33.68 3.07771 34.2554 3.40788 34.7431C3.73805 35.2308 4.20683 35.6086 4.75371 35.8272L16.5394 40.5415C17.2418 40.8224 18.0253 40.8224 18.7276 40.5415L24.3867 38.2767" stroke="black" stroke-width="2" stroke-linecap="round" stroke-linejoin="round"/>
<path d="M17.6338 8.34082V40.7515" stroke="black" stroke-width="2" stroke-linecap="round" stroke-linejoin="round"/>
<path d="M32.3662 2.90186V17.634" stroke="black" stroke-width="2" stroke-linecap="round" stroke-linejoin="round"/>
<path d="M38.2592 23.6721C40.6036 23.6721 42.8519 24.6034 44.5096 26.261C46.1672 27.9187 47.0985 30.167 47.0985 32.5114C47.0985 36.2848 41.8185 43.4643 39.4201 46.5325C39.2824 46.7089 39.1062 46.8515 38.9051 46.9495C38.7039 47.0477 38.4829 47.0986 38.2592 47.0986C38.0355 47.0986 37.8145 47.0477 37.6133 46.9495C37.4122 46.8515 37.236 46.7089 37.0983 46.5325C34.6999 43.4662 29.4199 36.2848 29.4199 32.5114C29.4199 30.167 30.3512 27.9187 32.0089 26.261C33.6665 24.6034 35.9148 23.6721 38.2592 23.6721Z" stroke="black" stroke-width="2" stroke-linecap="round" stroke-linejoin="round"/>
<path d="M38.2591 33.2501C37.8523 33.2501 37.5225 32.9203 37.5225 32.5135C37.5225 32.1067 37.8523 31.7769 38.2591 31.7769" stroke="black" stroke-width="2"/>
<path d="M38.2588 33.2501C38.6656 33.2501 38.9954 32.9203 38.9954 32.5135C38.9954 32.1067 38.6656 31.7769 38.2588 31.7769" stroke="black" stroke-width="2"/>
</svg>
