<svg width="247" height="247" viewBox="0 0 247 247" fill="none" xmlns="http://www.w3.org/2000/svg">
<g clip-path="url(#clip0_151_3739)">
<path d="M220.35 135.908L227.874 122.875L220.706 118.737C222.221 114.169 222.841 109.352 222.529 104.549L230.587 102.39L226.68 87.8486L218.618 90.0144C216.49 85.7062 213.552 81.8479 209.965 78.6503L214.104 71.4823L201.071 63.9578L196.933 71.1258C192.368 69.615 187.554 68.995 182.755 69.3006L180.599 61.2525L166.055 65.1496L168.211 73.1977C163.9 75.3285 160.041 78.2721 156.846 81.867L149.678 77.7285L142.154 90.7612L149.322 94.8997C147.806 99.4661 147.185 104.282 147.493 109.083L139.441 111.246L143.345 125.777L151.397 123.614C153.527 127.927 156.47 131.788 160.063 134.986L155.924 142.154L168.957 149.679L173.096 142.511C177.662 144.024 182.476 144.642 187.276 144.329L189.439 152.381L203.971 148.477L201.808 140.425C206.121 138.3 209.984 135.361 213.182 131.769L220.35 135.908ZM177.49 119.851C174.912 118.363 172.834 116.144 171.517 113.474C170.201 110.805 169.705 107.805 170.094 104.854C170.483 101.903 171.738 99.1337 173.7 96.8957C175.662 94.658 178.244 93.0525 181.119 92.2822C183.994 91.5118 187.033 91.6114 189.851 92.5679C192.67 93.5248 195.141 95.2957 196.953 97.6571C198.765 100.018 199.836 102.864 200.03 105.834C200.225 108.804 199.535 111.765 198.047 114.343C196.051 117.799 192.764 120.321 188.909 121.354C185.054 122.387 180.946 121.846 177.49 119.851Z" fill="#FADA9A"/>
<path d="M137.818 203.614L165.196 156.195L117.776 128.817C117.789 126.184 117.106 123.595 115.795 121.311C114.484 119.029 112.592 117.132 110.312 115.816C108.032 114.499 105.444 113.81 102.812 113.816C100.179 113.822 97.5945 114.525 95.3208 115.853L60.9339 95.9993L80.7872 61.6125C83.395 61.6038 85.9558 60.9176 88.2186 59.6212L122.605 79.4745L130.13 66.4417L95.743 46.5885C95.7457 44.2856 95.2183 42.013 94.2016 39.9468C93.1848 37.8804 91.7061 36.0759 89.8799 34.673C88.0538 33.27 85.9292 32.3063 83.6707 31.8563C81.4122 31.4064 79.0805 31.4824 76.856 32.0785C74.6316 32.6745 72.5743 33.7745 70.8434 35.2934C69.1124 36.8123 67.7543 38.7093 66.8743 40.8373C65.9943 42.9654 65.6159 45.2675 65.7685 47.5654C65.9212 49.8631 66.6007 52.095 67.7544 54.088L20.5235 135.894C18.2207 135.892 15.9482 136.419 13.8816 137.436C11.8155 138.453 10.011 139.931 8.60804 141.757C7.20511 143.584 6.24126 145.708 5.79147 147.967C5.34131 150.225 5.41738 152.557 6.01345 154.781C6.60952 157.006 7.70955 159.063 9.22842 160.794C10.7473 162.525 12.6444 163.883 14.7724 164.763C16.9004 165.643 19.2028 166.021 21.5004 165.869C23.7984 165.716 26.0301 165.037 28.0231 163.883L109.829 211.114C109.827 213.416 110.354 215.689 111.371 217.756C112.388 219.822 113.866 221.627 115.693 223.029C117.519 224.432 119.643 225.396 121.902 225.846C124.16 226.296 126.492 226.22 128.716 225.624C130.941 225.028 132.998 223.928 134.729 222.409C136.46 220.89 137.818 218.993 138.698 216.865C139.578 214.737 139.956 212.435 139.804 210.137C139.651 207.839 138.972 205.607 137.818 203.614ZM69.9343 170.703L35.5475 150.85C35.5346 148.243 34.8489 145.683 33.5563 143.419L53.4095 109.032L87.7963 128.885C87.8048 131.493 88.4911 134.054 89.7876 136.317L69.9343 170.703ZM117.354 198.081L82.967 178.228L102.82 143.841C105.428 143.832 107.989 143.146 110.252 141.85L144.638 161.703L124.785 196.09C122.177 196.096 119.616 196.782 117.354 198.081Z" fill="#FADA9A"/>
</g>
<defs>
<clipPath id="clip0_151_3739">
<rect width="180.587" height="180.587" fill="white" transform="translate(90.2935) rotate(30)"/>
</clipPath>
</defs>
</svg>
