<svg width="208" height="184" viewBox="0 0 208 184" fill="none" xmlns="http://www.w3.org/2000/svg">
<g clip-path="url(#clip0_182_2624)">
<path d="M181.35 72.9078L188.874 59.8751L181.706 55.7366C183.221 51.1687 183.841 46.3517 183.529 41.5492L191.587 39.39L187.68 24.8486L179.618 27.0143C177.49 22.7061 174.552 18.8478 170.965 15.6502L175.104 8.48218L162.071 0.957741L157.933 8.12573C153.368 6.61488 148.554 5.99492 143.755 6.30053L141.599 -1.74759L127.055 2.14951L129.211 10.1976C124.9 12.3284 121.041 15.272 117.846 18.8669L110.678 14.7284L103.154 27.7611L110.322 31.8996C108.806 36.466 108.185 41.2816 108.493 46.0832L100.441 48.2462L104.345 62.7774L112.397 60.6144C114.527 64.9267 117.47 68.7883 121.063 71.986L116.924 79.154L129.957 86.6785L134.096 79.5105C138.662 81.0241 143.476 81.6421 148.276 81.3292L150.439 89.3811L164.971 85.4764L162.808 77.4245C167.121 75.2996 170.984 72.3608 174.182 68.7693L181.35 72.9078ZM138.49 56.8508C135.912 55.3625 133.834 53.1436 132.517 50.4742C131.201 47.8048 130.705 44.8047 131.094 41.8537C131.483 38.903 132.738 36.1336 134.7 33.8956C136.662 31.6579 139.244 30.0524 142.119 29.2821C144.994 28.5117 148.033 28.6113 150.851 29.5678C153.67 30.5247 156.141 32.2956 157.953 34.657C159.765 37.0182 160.836 39.8639 161.03 42.8337C161.225 45.8039 160.535 48.7649 159.047 51.3425C157.051 54.799 153.764 57.3213 149.909 58.3541C146.054 59.3871 141.946 58.8463 138.49 56.8508Z" fill="#FAFAFA"/>
<path d="M98.8175 140.614L126.195 93.1948L78.7756 65.8171C78.7884 63.1841 78.1051 60.5948 76.7942 58.3115C75.483 56.0288 73.5918 54.1323 71.3117 52.8159C69.0315 51.4994 66.4437 50.8099 63.8112 50.8157C61.1783 50.8222 58.594 51.5248 56.3203 52.8525L21.9335 32.9993L41.7867 -1.38753C44.3945 -1.39622 46.9553 -2.08239 49.2181 -3.37877L83.6049 16.4745L91.1294 3.44175L56.7426 -16.4115C56.7452 -18.7144 56.2178 -20.987 55.2011 -23.0532C54.1843 -25.1196 52.7056 -26.9241 50.8795 -28.327C49.0533 -29.73 46.9287 -30.6937 44.6702 -31.1437C42.4117 -31.5936 40.08 -31.5176 37.8555 -30.9215C35.6312 -30.3255 33.5738 -29.2255 31.8429 -27.7066C30.1119 -26.1877 28.7538 -24.2907 27.8738 -22.1627C26.9938 -20.0346 26.6155 -17.7325 26.7681 -15.4346C26.9207 -13.1369 27.6002 -10.905 28.754 -8.91199L-18.477 72.8944C-20.7798 72.8916 -23.0523 73.4189 -25.1188 74.4361C-27.185 75.4527 -28.9895 76.9314 -30.3925 78.7575C-31.7954 80.5836 -32.7592 82.7083 -33.209 84.9666C-33.6592 87.2255 -33.5831 89.5571 -32.987 91.7814C-32.391 94.0057 -31.2909 96.0632 -29.7721 97.7942C-28.2532 99.5251 -26.3561 100.883 -24.2281 101.763C-22.1001 102.643 -19.7977 103.021 -17.5001 102.869C-15.2021 102.716 -12.9703 102.037 -10.9774 100.883L70.8289 148.114C70.8262 150.416 71.3536 152.689 72.3706 154.756C73.3874 156.822 74.8659 158.627 76.692 160.029C78.5183 161.432 80.6428 162.396 82.9011 162.846C85.16 163.296 87.4916 163.22 89.7159 162.624C91.9402 162.028 93.9975 160.928 95.7287 159.409C97.4596 157.89 98.8174 155.993 99.6976 153.865C100.578 151.737 100.956 149.435 100.803 147.137C100.651 144.839 99.9711 142.607 98.8175 140.614ZM30.9338 107.703L-3.45298 87.8502C-3.46593 85.2432 -4.1516 82.683 -5.44423 80.4188L14.409 46.032L48.7958 65.8852C48.8043 68.4932 49.4907 71.0538 50.7871 73.3167L30.9338 107.703ZM78.3534 135.081L43.9665 115.228L63.8198 80.8411C66.4278 80.8325 68.9882 80.1464 71.2512 78.8498L105.638 98.7031L85.7848 133.09C83.1765 133.096 80.6151 133.782 78.3534 135.081Z" fill="#FAFAFA"/>
</g>
<defs>
<clipPath id="clip0_182_2624">
<rect width="180.587" height="180.587" fill="white" transform="translate(51.293 -63) rotate(30)"/>
</clipPath>
</defs>
</svg>
