<svg width="64" height="80" viewBox="0 0 64 80" fill="none" xmlns="http://www.w3.org/2000/svg">
<path d="M2.47297 73.7174L0.00287092 7.68357C-0.0787068 5.50273 1.58799 3.6545 3.75896 3.51837L59.7409 0.0079694C61.9507 -0.130597 63.8541 1.55436 63.9922 3.77143C63.9974 3.85496 64 3.93863 64 4.02233V75.9778C64 78.1992 62.2051 80 59.991 80C59.931 80 59.8711 79.9986 59.8111 79.9959L6.29926 77.5846C4.21519 77.4907 2.55121 75.8089 2.47297 73.7174Z" fill="#FF4785"/>
<path d="M47.2592 9.83327L47.6416 0.606047L55.3296 0L55.6608 9.51572C55.6723 9.84689 55.4141 10.1247 55.084 10.1363C54.9426 10.1412 54.8041 10.0958 54.693 10.008L51.7283 7.66477L48.2181 10.3362C47.955 10.5365 47.5798 10.4848 47.3802 10.2208C47.2962 10.1097 47.2534 9.97264 47.2592 9.83327ZM37.4269 30.1531C37.4269 31.718 47.9331 30.968 49.3434 29.8687C49.3434 19.2124 43.6442 13.6126 33.2081 13.6126C22.7719 13.6126 16.9247 19.2995 16.9247 27.8298C16.9247 42.6868 36.9088 42.9711 36.9088 51.075C36.9088 53.3497 35.7986 54.7003 33.3561 54.7003C30.1734 54.7003 28.9152 53.0696 29.0632 47.5249C29.0632 46.322 16.9247 45.947 16.5546 47.5249C15.6122 60.9617 23.9561 64.8374 33.5041 64.8374C42.7561 64.8374 50.0096 59.8896 50.0096 50.9328C50.0096 35.0095 29.7293 35.436 29.7293 27.5455C29.7293 24.3466 32.0978 23.9201 33.5041 23.9201C34.9844 23.9201 37.649 24.1819 37.4269 30.1531Z" fill="white"/>
</svg>
