<svg width="80" height="80" viewBox="0 0 80 80" fill="none" xmlns="http://www.w3.org/2000/svg">
<g clip-path="url(#clip0_90_2615)">
<path d="M0 39.9999V79.9999H80V-9.91821e-05H0V39.9999ZM64.4672 36.7999C66.3833 37.2446 68.1248 38.2467 69.472 39.6799C70.2137 40.452 70.8584 41.3117 71.392 42.2399C71.392 42.3423 67.936 44.6783 65.8304 45.9839C65.7536 46.0351 65.4464 45.7023 65.1072 45.1967C64.7228 44.5334 64.1767 43.9784 63.5197 43.5833C62.8628 43.1883 62.1165 42.9661 61.3504 42.9375C58.9248 42.7711 57.3632 44.0447 57.376 46.1375C57.3559 46.6586 57.4752 47.1755 57.7216 47.6351C58.2528 48.7423 59.2448 49.4015 62.3552 50.7455C68.0832 53.2095 70.5344 54.8351 72.0576 57.1455C73.76 59.7055 74.1376 63.8399 72.9856 66.8991C71.7056 70.2271 68.5696 72.4863 64.1344 73.2351C62.1087 73.4671 60.062 73.4456 58.0416 73.1711C54.9582 72.6709 52.1138 71.2028 49.92 68.9791C49.184 68.1663 47.7504 66.0479 47.84 65.8943C48.0736 65.7209 48.3196 65.5647 48.576 65.4271L51.52 63.7375L53.8176 62.4063L54.2976 63.1167C55.1077 64.2755 56.1386 65.2629 57.3312 66.0223C59.8912 67.3663 63.3856 67.1807 65.1136 65.6255C65.6938 65.0556 66.0557 64.3003 66.1364 63.4911C66.2171 62.6818 66.0114 61.8699 65.5552 61.1967C64.9152 60.3071 63.6352 59.5583 60.0576 57.9967C55.9296 56.2175 54.1504 55.1167 52.5248 53.3631C51.51 52.2059 50.7607 50.8406 50.3296 49.3631C50.008 47.6751 49.9605 45.9463 50.1888 44.2431C51.04 40.2559 54.0288 37.4719 58.3936 36.6463C60.415 36.3962 62.4625 36.4523 64.4672 36.8127V36.7999ZM45.6896 40.1535V43.4303H35.3024V73.0175H27.936V43.4239H17.5232V40.2239C17.4952 39.1223 17.5252 38.02 17.6128 36.9215C17.6512 36.8703 24.0128 36.8447 31.6928 36.8575H45.6512L45.6896 40.1535Z" fill="#007ACC"/>
</g>
<defs>
<clipPath id="clip0_90_2615">
<rect width="80" height="80" fill="white"/>
</clipPath>
</defs>
</svg>
