<svg width="80" height="80" viewBox="0 0 80 80" fill="none" xmlns="http://www.w3.org/2000/svg">
<path d="M79.7353 11.8407L42.1553 78.9558C41.3794 80.3415 39.386 80.3496 38.5984 78.9707L0.27326 11.8471C-0.584724 10.3444 0.70186 8.52425 2.40685 8.82862L40.0271 15.5446C40.2671 15.5874 40.5128 15.587 40.7527 15.5433L77.5863 8.83824C79.2855 8.52892 80.5782 10.335 79.7353 11.8407Z" fill="url(#paint0_linear_90_2614)"/>
<path d="M57.9476 0.0196952L30.1373 5.46217C29.6802 5.55162 29.3418 5.9385 29.3142 6.40279L27.6035 35.2592C27.5632 35.9389 28.1882 36.4664 28.8524 36.3134L36.5952 34.5287C37.3196 34.3619 37.9742 34.9991 37.8254 35.7267L35.525 46.9771C35.3702 47.7343 36.0819 48.3818 36.8223 48.1572L41.6046 46.706C42.346 46.4812 43.0584 47.1305 42.9016 47.8883L39.2458 65.5601C39.0171 66.6655 40.4893 67.2683 41.1032 66.3206L41.5133 65.6876L64.1747 20.5197C64.5542 19.7634 63.8998 18.9011 63.0682 19.0613L55.0983 20.5976C54.3493 20.7418 53.7121 20.0452 53.9235 19.3134L59.1253 1.30327C59.3369 0.570197 58.6974 -0.127015 57.9476 0.0196952Z" fill="url(#paint1_linear_90_2614)"/>
<defs>
<linearGradient id="paint0_linear_90_2614" x1="-0.662477" y1="-2.65704" x2="53.3111" y2="62.6671" gradientUnits="userSpaceOnUse">
<stop stop-color="#41D1FF"/>
<stop offset="1" stop-color="#BD34FE"/>
</linearGradient>
<linearGradient id="paint1_linear_90_2614" x1="37.8678" y1="1.49732" x2="46.3077" y2="59.4669" gradientUnits="userSpaceOnUse">
<stop stop-color="#FFEA83"/>
<stop offset="0.0833333" stop-color="#FFDD35"/>
<stop offset="1" stop-color="#FFA800"/>
</linearGradient>
</defs>
</svg>
