<svg id="Group_189425" data-name="Group 189425" xmlns="http://www.w3.org/2000/svg" xmlns:xlink="http://www.w3.org/1999/xlink" width="61.333" height="64" viewBox="0 0 61.333 64">
  <defs>
    <linearGradient id="linear-gradient" x1="0.5" x2="0.5" y2="1" gradientUnits="objectBoundingBox">
      <stop offset="0" stop-color="#4d29cf"/>
      <stop offset="1" stop-color="#b32a90"/>
    </linearGradient>
  </defs>
  <path id="Path_180814" data-name="Path 180814" d="M48,12H44L38.667,1.333H29.333l-4,5.333h-8l-8,12,8,9.333H46.667L52,21.333Z" fill="#fff"/>
  <path id="Path_180815" data-name="Path 180815" d="M60,36H1.333V62.667H60Z" fill="#fff"/>
  <path id="Path_180816" data-name="Path 180816" d="M53.333,42.667h-44v6.667h44Z" fill="#e2dbf7"/>
  <path id="Path_180817" data-name="Path 180817" d="M53.333,56h-44v6.667h44Z" fill="#e2dbf7"/>
  <path id="Path_180818" data-name="Path 180818" d="M9.333,18.667h5.333l4,4H45.333l1.333-1.333H52L46.667,28H17.333Z" fill="#e2dbf7"/>
  <path id="Union_38" data-name="Union 38" d="M52,64H1.333A1.333,1.333,0,0,1,0,62.667V36a1.333,1.333,0,0,1,1.333-1.333H60A1.333,1.333,0,0,1,61.333,36V62.667A1.333,1.333,0,0,1,60,64Zm6.666-2.667V50.666H53.333V61.333Zm-8,0V50.666h-40V61.333Zm-48,0H8V50.666H2.667ZM58.667,48V37.334H53.333V48Zm-8,0V37.334h-40V48ZM8,48V37.334H2.667V48ZM41.333,58.667a1.333,1.333,0,1,1,0-2.667H44a1.333,1.333,0,0,1,0,2.667Zm-8,0a1.333,1.333,0,0,1,0-2.667H36a1.333,1.333,0,1,1,0,2.667Zm8-13.333a1.333,1.333,0,1,1,0-2.667H44a1.333,1.333,0,0,1,0,2.667Zm-8,0a1.333,1.333,0,0,1,0-2.667H36a1.333,1.333,0,1,1,0,2.667Zm-16-16a1.334,1.334,0,0,1-1.013-.466l-8-9.333a1.334,1.334,0,0,1-.1-1.607l8-12a1.33,1.33,0,0,1,1.109-.594h7.333l3.6-4.8A1.335,1.335,0,0,1,29.334,0h9.333a1.333,1.333,0,0,1,1.192.737l4.965,9.93H48a1.333,1.333,0,0,1,1.226.808l4,9.333a1.335,1.335,0,0,1-.185,1.358l-5.333,6.667a1.335,1.335,0,0,1-1.041.5ZM11,18.566l6.944,8.1H46.026l4.433-5.543-3.338-7.79H36a1.333,1.333,0,0,1,0-2.667h5.843l-4-8H30l-3.6,4.8A1.333,1.333,0,0,1,25.333,8H18.047Z" fill="url(#linear-gradient)"/>
</svg>
