<svg id="Group_189427" data-name="Group 189427" xmlns="http://www.w3.org/2000/svg" xmlns:xlink="http://www.w3.org/1999/xlink" width="64" height="50.666" viewBox="0 0 64 50.666">
  <defs>
    <linearGradient id="linear-gradient" x1="0.022" y1="0.025" x2="0.97" y2="0.962" gradientUnits="objectBoundingBox">
      <stop offset="0" stop-color="#4d29cf"/>
      <stop offset="1" stop-color="#b32a90"/>
    </linearGradient>
  </defs>
  <path id="Path_180829" data-name="Path 180829" d="M62.667,9.333H1.333v48H62.667Z" transform="translate(0 -8)" fill="#fff"/>
  <path id="Path_180830" data-name="Path 180830" d="M25.333,20h-24V57.333h24Z" transform="translate(0 -8)" fill="#e2dbf7"/>
  <path id="Path_180831" data-name="Path 180831" d="M54.667,28V38.667H44L38.667,44h2.667v8h-8V49.333l-8,8H62.667V20Zm0,24h-8V44h8Z" transform="translate(0 -8)" fill="#e2dbf7"/>
  <path id="Union_41" data-name="Union 41" d="M17.376,50.666H1.333A1.333,1.333,0,0,1,0,49.333v-48A1.333,1.333,0,0,1,1.333,0H62.667A1.333,1.333,0,0,1,64,1.333v48a1.333,1.333,0,0,1-1.333,1.333ZM26.667,48H61.333V13.333H26.667Zm-24,0H24V13.333H2.667Zm0-37.333H61.333v-8H2.667Zm44,34.666A1.334,1.334,0,0,1,45.333,44V36a1.334,1.334,0,0,1,1.334-1.333h8A1.333,1.333,0,0,1,56,36v8a1.333,1.333,0,0,1-1.333,1.333ZM48,42.666h5.333V37.334H48ZM33.333,45.333A1.333,1.333,0,0,1,32,44V36a1.333,1.333,0,0,1,1.333-1.333h8A1.333,1.333,0,0,1,42.666,36v8a1.333,1.333,0,0,1-1.333,1.333Zm1.334-2.667H40V37.334H34.667ZM9.416,45.333a1.333,1.333,0,0,1,0-2.667h7.961a1.333,1.333,0,0,1,0,2.667Zm0-5.333a1.333,1.333,0,0,1,0-2.667h7.961a1.333,1.333,0,0,1,0,2.667Zm0-5.333a1.333,1.333,0,0,1,0-2.667h7.961a1.333,1.333,0,0,1,0,2.667ZM33.333,32A1.334,1.334,0,0,1,32,30.667V17.333A1.333,1.333,0,0,1,33.333,16H54.667A1.333,1.333,0,0,1,56,17.333V30.667A1.334,1.334,0,0,1,54.667,32Zm1.334-2.667H53.333V18.667H34.667Zm-25.251,0a1.333,1.333,0,0,1,0-2.667h7.961a1.333,1.333,0,0,1,0,2.667Zm0-5.333a1.333,1.333,0,0,1,0-2.667h7.961a1.333,1.333,0,0,1,0,2.667Zm0-5.333a1.333,1.333,0,0,1,0-2.667h7.961a1.333,1.333,0,0,1,0,2.667ZM22.667,8a1.333,1.333,0,0,1,0-2.667h2.667a1.333,1.333,0,1,1,0,2.667Zm-8,0a1.333,1.333,0,0,1,0-2.667h2.667a1.333,1.333,0,1,1,0,2.667Zm-8,0a1.333,1.333,0,0,1,0-2.667H9.333A1.333,1.333,0,1,1,9.333,8Z" fill="url(#linear-gradient)"/>
</svg>
