<svg id="Group_189426" data-name="Group 189426" xmlns="http://www.w3.org/2000/svg" xmlns:xlink="http://www.w3.org/1999/xlink" width="61.334" height="64" viewBox="0 0 61.334 64">
  <defs>
    <linearGradient id="linear-gradient" x1="0.094" y1="0.034" x2="0.961" y2="0.974" gradientUnits="objectBoundingBox">
      <stop offset="0" stop-color="#4d29cf"/>
      <stop offset="1" stop-color="#b32a90"/>
    </linearGradient>
  </defs>
  <path id="Path_180819" data-name="Path 180819" d="M34.667,20h-8L20,24V40l6.667,4h8l6.667-4V24Z" transform="translate(0)" fill="#fff"/>
  <path id="Path_180820" data-name="Path 180820" d="M54.667,1.333H49.333L44,5.333v8l5.333,4h5.333l5.333-4v-8Z" transform="translate(0)" fill="#fff"/>
  <path id="Path_180821" data-name="Path 180821" d="M12,1.333H6.667l-5.333,4v8l5.333,4H12l5.333-4v-8Z" transform="translate(0)" fill="#fff"/>
  <path id="Path_180822" data-name="Path 180822" d="M54.667,46.667H49.333l-5.333,4v8l5.333,4h5.333l5.333-4v-8Z" transform="translate(0)" fill="#fff"/>
  <path id="Path_180823" data-name="Path 180823" d="M12,46.667H6.667l-5.333,4v8l5.333,4H12l5.333-4v-8Z" transform="translate(0)" fill="#fff"/>
  <path id="Path_180824" data-name="Path 180824" d="M52,17.333h2.667l5.333-4v-8l-5.333,4H52Z" transform="translate(0)" fill="#e2dbf7"/>
  <path id="Path_180825" data-name="Path 180825" d="M9.333,17.333H12l5.333-4v-8L12,9.333H9.333Z" transform="translate(0)" fill="#e2dbf7"/>
  <path id="Path_180826" data-name="Path 180826" d="M52,62.667h2.667l5.333-4v-8l-5.333,4H52Z" transform="translate(0)" fill="#e2dbf7"/>
  <path id="Path_180827" data-name="Path 180827" d="M9.333,62.667H12l5.333-4v-8l-5.333,4H9.333Z" transform="translate(0)" fill="#e2dbf7"/>
  <path id="Path_180828" data-name="Path 180828" d="M30.667,44h4l6.667-4V24l-6.667,4h-4Z" transform="translate(0)" fill="#e2dbf7"/>
  <path id="Union_39" data-name="Union 39" d="M49.334,64a1.334,1.334,0,0,1-.8-.266l-5.307-3.981a1.342,1.342,0,0,1-.13-.106l-.006-.006-.015-.014-.016-.016,0,0a1.32,1.32,0,0,1-.243-.333l0-.007-.009-.019-.01-.022,0,0a1.328,1.328,0,0,1-.121-.556v-8a1.329,1.329,0,0,1,.083-.464l0-.007.007-.017a1.324,1.324,0,0,1,.321-.477l0,0,.015-.014.019-.017,0,0q.043-.038.09-.072l1.805-1.354-1.961-1.961a1.334,1.334,0,0,1,1.886-1.885l2.229,2.23,1.361-1.02a1.329,1.329,0,0,1,.8-.267h5.333a1.332,1.332,0,0,1,.8.267l5.333,4a1.333,1.333,0,0,1,.533,1.094V58.64a1.341,1.341,0,0,1-.021.261v0l-.005.026,0,.008,0,.023,0,.009-.005.022,0,.01-.006.022,0,.009-.007.024,0,.007-.009.028h0a1.324,1.324,0,0,1-.388.578l-.015.013-.007.006q-.033.028-.068.053l-5.318,3.989a1.338,1.338,0,0,1-.8.266Zm.445-2.667h4.444L58.667,58V53.333l-3.2,2.4a1.338,1.338,0,0,1-.8.266H49.334a1.334,1.334,0,0,1-.8-.266l-3.2-2.4V58Zm0-8h4.444l3.555-2.666L54.222,48H49.778l-1.9,1.424q-.034.027-.069.052l-1.588,1.191ZM6.666,64a1.333,1.333,0,0,1-.8-.266l-5.3-3.974a1.341,1.341,0,0,1-.231-.206l-.005-.006-.013-.015-.011-.013L.3,59.51l-.015-.019,0,0A1.321,1.321,0,0,1,.161,59.3l0,0-.013-.024,0-.008-.01-.019-.007-.014L.12,59.22.111,59.2l0-.007L.1,59.165h0a1.324,1.324,0,0,1-.072-.243v0l0-.024,0-.011,0-.019,0-.018v-.011l0-.029h0A1.34,1.34,0,0,1,0,58.644V50.69a1.338,1.338,0,0,1,.007-.163h0l0-.022h0q0-.017,0-.034l0-.014,0-.013,0-.018,0-.009.005-.027,0-.008,0-.021,0-.009.006-.024v0L.053,50.3l0-.011,0-.016,0-.012.008-.023.005-.015,0-.009.007-.018v0A1.327,1.327,0,0,1,.3,49.821l0-.005L.318,49.8l.04-.045h0a1.331,1.331,0,0,1,.2-.175L5.867,45.6a1.328,1.328,0,0,1,.8-.267H12a1.329,1.329,0,0,1,.8.267l1.361,1.021,2.23-2.23a1.333,1.333,0,0,1,1.885,1.885l-1.961,1.961,1.795,1.346a1.332,1.332,0,0,1,.241.222l.006.007.012.015.014.017.008.01.011.015,0,.006.036.051,0,0,.033.052,0,.006L18.49,50l.006.01.01.017.01.018,0,.008.012.024h0a1.332,1.332,0,0,1,.135.585v8a1.328,1.328,0,0,1-.121.556l0,0-.01.022-.01.019,0,.007a1.32,1.32,0,0,1-.243.333l0,0-.016.015-.015.014-.006.006a1.342,1.342,0,0,1-.13.105L12.8,63.734A1.334,1.334,0,0,1,12,64Zm.445-2.667h4.445L16,58V53.333l-3.2,2.4A1.334,1.334,0,0,1,12,56H6.666a1.333,1.333,0,0,1-.8-.266l-3.2-2.4V58Zm0-8h4.445l3.555-2.666L13.529,49.48q-.043-.03-.085-.064L11.556,48H7.111L3.556,50.667Zm19.556-8a1.338,1.338,0,0,1-.687-.19L19.325,41.15q-.042-.025-.081-.052a1.326,1.326,0,0,1-.483-.607l0,0-.009-.024,0-.008-.007-.021,0-.011-.006-.02,0-.012-.006-.02,0-.011-.006-.022,0-.009L18.7,40.3v0a1.338,1.338,0,0,1-.034-.333V32.031q0-.032,0-.064V24.033a1.332,1.332,0,0,1,.647-1.176l6.666-4a1.338,1.338,0,0,1,.687-.19h8a1.334,1.334,0,0,1,.686.19l6.666,4a1.332,1.332,0,0,1,.647,1.176v7.935c0,.021,0,.042,0,.063v7.937a1.338,1.338,0,0,1-.034.333v0l-.007.027,0,.008-.006.022,0,.011-.006.02,0,.012-.006.019,0,.011-.007.021,0,.008-.009.024,0,0-.011.027h0a1.326,1.326,0,0,1-.471.578q-.04.027-.081.052l-6.657,3.994a1.334,1.334,0,0,1-.686.19Zm.369-2.667H34.3L40,39.245v-4.89l-4.648,2.788a1.327,1.327,0,0,1-.686.191h-8a1.33,1.33,0,0,1-.687-.191l-4.647-2.788v4.89Zm0-8H34.3L40,31.245v-4.89l-4.648,2.789a1.334,1.334,0,0,1-.686.19h-8a1.338,1.338,0,0,1-.687-.19l-4.647-2.789v4.891Zm0-8H34.3L38.742,24,34.3,21.334H27.036L22.592,24Zm16.021-7.058a1.334,1.334,0,0,1,0-1.886l1.961-1.961L43.2,14.4a1.328,1.328,0,0,1-.357-.4h0l-.014-.025-.008-.014-.006-.011a1.326,1.326,0,0,1-.149-.612v-8A1.33,1.33,0,0,1,42.74,4.9l0-.01,0-.012a1.324,1.324,0,0,1,.333-.508l0,0,.018-.017.017-.015.005,0q.043-.037.089-.071L48.534.266a1.334,1.334,0,0,1,.8-.266h5.333a1.338,1.338,0,0,1,.8.266l5.333,4a1.332,1.332,0,0,1,.533,1.093v7.947a1.341,1.341,0,0,1-.015.227v.007l0,.023,0,.013,0,.016,0,.018,0,.012,0,.021,0,.009-.006.023,0,.008-.006.023,0,.008-.007.022,0,.01-.006.019-.005.016,0,.014-.008.022,0,.007a1.328,1.328,0,0,1-.44.576l-5.333,4a1.332,1.332,0,0,1-.8.267H49.334a1.329,1.329,0,0,1-.8-.267l-1.361-1.02-2.229,2.23a1.334,1.334,0,0,1-1.886,0ZM49.778,16h4.444l4.444-3.333V8l-3.2,2.4a1.338,1.338,0,0,1-.8.266H49.334a1.334,1.334,0,0,1-.8-.266L45.333,8v4.666l2.473,1.854q.042.029.081.061Zm0-8h4.444l3.556-2.667L54.222,2.667H49.778L46.222,5.333ZM16.391,19.609l-2.23-2.23L12.8,18.4a1.329,1.329,0,0,1-.8.267H6.666a1.328,1.328,0,0,1-.8-.267L.553,14.414a1.338,1.338,0,0,1-.148-.124l0,0-.019-.019-.008-.008-.013-.014-.012-.013-.008-.009-.015-.017,0-.005-.017-.021,0,0-.019-.023h0q-.03-.038-.056-.077h0l-.017-.025,0,0-.014-.022,0-.008L.179,14l-.008-.014-.007-.013-.011-.021,0-.006a1.324,1.324,0,0,1-.131-.392v0l0-.027v-.01l0-.018,0-.022v-.007A1.338,1.338,0,0,1,0,13.311V5.356a1.338,1.338,0,0,1,.017-.233h0l0-.022v0q.006-.031.013-.062V5.03l0-.02h0a1.328,1.328,0,0,1,.279-.541l.01-.011.009-.01.019-.021,0,0a1.331,1.331,0,0,1,.2-.174L5.867.266A1.333,1.333,0,0,1,6.666,0H12a1.334,1.334,0,0,1,.8.266L18.111,4.25a1.331,1.331,0,0,1,.239.22l.009.011.007.008a1.322,1.322,0,0,1,.156.24l0,.007.008.015.011.023,0,.008.01.022,0,0a1.332,1.332,0,0,1,.108.526v8a1.326,1.326,0,0,1-.149.612l-.006.012-.008.014a1.328,1.328,0,0,1-.371.428l-1.818,1.363,1.961,1.961a1.333,1.333,0,1,1-1.885,1.886ZM7.111,16h4.445l1.886-1.414q.043-.036.089-.067L16,12.667V8l-3.2,2.4a1.334,1.334,0,0,1-.8.266H6.666a1.333,1.333,0,0,1-.8-.266L2.667,8v4.667Zm0-8h4.445l3.555-2.667L11.556,2.667H7.111L3.555,5.333Z" fill="url(#linear-gradient)"/>
</svg>
