<svg width="50" height="50" viewBox="0 0 50 50" fill="none" xmlns="http://www.w3.org/2000/svg">
<path d="M17.6154 45.3077H1V39.7692C0.999091 36.8594 1.76237 34.0004 3.21346 31.4782C4.66456 28.956 6.75258 26.8591 9.26861 25.3973C11.7846 23.9356 14.6404 23.1602 17.5502 23.1488C20.46 23.1374 23.3218 23.8903 25.8492 25.3323M49 33.3446L33.3446 49M33.3446 33.3446L49 49M25.9231 9.30769C25.9231 13.8959 22.2036 17.6154 17.6154 17.6154C13.0272 17.6154 9.30769 13.8959 9.30769 9.30769C9.30769 4.71948 13.0272 1 17.6154 1C22.2036 1 25.9231 4.71948 25.9231 9.30769Z" stroke="#BD0D1D" stroke-width="2" stroke-linecap="round" stroke-linejoin="round"/>
</svg>
