<svg xmlns="http://www.w3.org/2000/svg" width="21" height="9" viewBox="0 0 21 9">
  <g id="Group_195970" data-name="Group 195970" transform="translate(-360.329 -634.833)">
    <path id="Path_201529" data-name="Path 201529" d="M13.689,12.437s-4.11,4-6.23,4a3.89,3.89,0,0,1-3.771-4,3.89,3.89,0,0,1,3.771-4c2.12,0,6.23,4,6.23,4Z" transform="translate(357.142 626.896)" fill="none" stroke="#f43e9f" stroke-linecap="round" stroke-linejoin="round" stroke-width="1"/>
    <path id="Path_201530" data-name="Path 201530" d="M11.314,12.438s4.111,4,6.226,4a3.891,3.891,0,0,0,3.772-4,3.891,3.891,0,0,0-3.772-4c-2.115,0-6.226,4-6.226,4Z" transform="translate(359.517 626.896)" fill="none" stroke="#f43e9f" stroke-linecap="round" stroke-linejoin="round" stroke-width="1"/>
  </g>
</svg>
