<svg xmlns="http://www.w3.org/2000/svg" width="60" height="60" viewBox="0 0 60 60">
  <path id="headset_1_" data-name="headset (1)" d="M32,4C18.193,4,7,12.954,7,24v4h5c2.761,0,5,1.791,5,4V44c0,2.209-2.239,4-5,4H7c-2.761,0-5-1.791-5-4V24C2,10.745,15.431,0,32,0S62,10.745,62,24V48c0,5.523-5.6,10-12.5,10H38.83a5.333,5.333,0,0,1-4.33,2h-5c-2.761,0-5-1.791-5-4s2.239-4,5-4h5a5.333,5.333,0,0,1,4.33,2H49.5c4.142,0,7.5-2.686,7.5-6H52c-2.761,0-5-1.791-5-4V32c0-2.209,2.239-4,5-4h5V24C57,12.954,45.807,4,32,4Z" transform="translate(-2)" fill="#fff"/>
</svg>
