<svg xmlns="http://www.w3.org/2000/svg" width="40" height="40" viewBox="0 0 40 40">
  <path id="headset_1_" data-name="headset (1)" d="M22,2.667C12.8,2.667,5.333,8.636,5.333,16v2.667H8.667c1.841,0,3.333,1.194,3.333,2.667v8C12,30.806,10.508,32,8.667,32H5.333C3.492,32,2,30.806,2,29.333V16C2,7.163,10.954,0,22,0S42,7.163,42,16V32c0,3.682-3.731,6.667-8.333,6.667H26.553A3.556,3.556,0,0,1,23.667,40H20.333C18.492,40,17,38.806,17,37.333s1.492-2.667,3.333-2.667h3.333A3.556,3.556,0,0,1,26.553,36h7.113c2.761,0,5-1.791,5-4H35.333C33.492,32,32,30.806,32,29.333v-8c0-1.473,1.492-2.667,3.333-2.667h3.333V16C38.667,8.636,31.2,2.667,22,2.667Z" transform="translate(-2)" fill="#f43e9f"/>
</svg>
