<svg xmlns="http://www.w3.org/2000/svg" width="78" height="60" viewBox="0 0 78 60">
  <g id="Group_195994" data-name="Group 195994" transform="translate(-775.187 -3985.487)">
    <path id="Path_201580" data-name="Path 201580" d="M15.509,9.785,4.147,24.7a2.434,2.434,0,0,0-.327,2.144A1.556,1.556,0,0,0,5.2,28.061H27.934a1.555,1.555,0,0,0,1.387-1.214,2.434,2.434,0,0,0-.326-2.146L17.63,9.785a1.262,1.262,0,0,0-2.121,0Z" transform="translate(797.617 4017.426)" fill="#fff"/>
    <path id="Path_201581" data-name="Path 201581" d="M55.643,47.516H70.687a2.484,2.484,0,0,0,2.438-2.529V9.586a2.484,2.484,0,0,0-2.438-2.529H7.312A2.484,2.484,0,0,0,4.875,9.586v35.4a2.484,2.484,0,0,0,2.437,2.529H22.357l-4.875,5.057H7.312A7.453,7.453,0,0,1,0,44.987V9.586A7.453,7.453,0,0,1,7.312,2H70.687A7.453,7.453,0,0,1,78,9.586v35.4a7.453,7.453,0,0,1-7.313,7.586H60.518Z" transform="translate(775.187 3983.487)" fill="#fff"/>
  </g>
</svg>
