<svg xmlns="http://www.w3.org/2000/svg" width="41.5" height="41.5" viewBox="0 0 41.5 41.5">
  <g id="Group_195992" data-name="Group 195992" transform="translate(-0.208 -0.208)">
    <path id="Path_201720" data-name="Path 201720" d="M30.385,28.921H6.748L3.676,16.63a1.827,1.827,0,0,1,1.764-2.255H31.694a1.8,1.8,0,0,1,1.764,2.255Z" transform="translate(2.392 12.038)" fill="none" stroke="#f43e9f" stroke-linecap="round" stroke-linejoin="round" stroke-width="1.5"/>
    <path id="Path_201721" data-name="Path 201721" d="M.958,22.042h40" transform="translate(0 18.917)" fill="none" stroke="#f43e9f" stroke-linecap="round" stroke-linejoin="round" stroke-width="1.5"/>
    <path id="Path_201722" data-name="Path 201722" d="M11.5,11.5v2.727" transform="translate(9.458 9.458)" fill="none" stroke="#f43e9f" stroke-linecap="round" stroke-linejoin="round" stroke-width="1.5"/>
    <path id="Path_201723" data-name="Path 201723" d="M8.625,2.616a10.564,10.564,0,0,0,7.582,3.218,10.745,10.745,0,0,0,4.182-.909" transform="translate(6.879 1.488)" fill="none" stroke="#f43e9f" stroke-linecap="round" stroke-linejoin="round" stroke-width="1.5"/>
    <path id="Path_201724" data-name="Path 201724" d="M8.146,7.322A6.364,6.364,0,1,0,14.509.958,6.364,6.364,0,0,0,8.146,7.322" transform="translate(6.449 0)" fill="none" stroke="#f43e9f" stroke-linecap="round" stroke-linejoin="round" stroke-width="1.5"/>
    <path id="Path_201725" data-name="Path 201725" d="M10.3,19.044a2.273,2.273,0,1,0,2.273-2.273A2.273,2.273,0,0,0,10.3,19.044" transform="translate(8.384 14.188)" fill="none" stroke="#f43e9f" stroke-linecap="round" stroke-linejoin="round" stroke-width="1.5"/>
    <path id="Path_201726" data-name="Path 201726" d="M24.221,15.415a9.091,9.091,0,0,0-17.273,0" transform="translate(5.374 7.361)" fill="none" stroke="#f43e9f" stroke-linecap="round" stroke-linejoin="round" stroke-width="1.5"/>
  </g>
</svg>
