<svg xmlns="http://www.w3.org/2000/svg" width="1920.702" height="1082.301" viewBox="0 0 1920.702 1082.301">
  <g id="Group_172226" data-name="Group 172226" transform="translate(0 0.311)">
    <g id="Group_172225" data-name="Group 172225">
      <rect id="Rectangle_147704" data-name="Rectangle 147704" width="1920" height="1080" fill="#c5d5ff"/>
      <g id="Group_171380" data-name="Group 171380" transform="translate(18.276 43.991)">
        <path id="Path_94256" data-name="Path 94256" d="M0,0,369.629,159.078V726.314L0,567.236Z" transform="translate(-18.276 224.727)" fill="#92bdff"/>
        <path id="Path_94254" data-name="Path 94254" d="M0,0,269.544,116V529.65L0,413.645Z" transform="translate(441.613 104.978)" fill="#92bdff"/>
        <path id="Path_94255" data-name="Path 94255" d="M0,98l222.474-.254v339.41L0,341.41Z" transform="translate(128.879 -142.048)" fill="#92bdff"/>
      </g>
    </g>
    <g id="Group_171381" data-name="Group 171381" transform="translate(1438.067 682.048)">
      <path id="Path_94256-2" data-name="Path 94256" d="M0,0,305.009,131.267V239.336L0,238.069Z" transform="translate(-18.276 160.605)" fill="#d8e7ff"/>
      <path id="Path_94254-2" data-name="Path 94254" d="M0,0,121.421,95.724v241.33L0,336.33Z" transform="translate(361.213 61.792)" fill="#d8e7ff"/>
      <path id="Path_94255-2" data-name="Path 94255" d="M0,0,183.58,79.008V360.731L0,281.723Z" transform="translate(103.152 -234.048)" fill="#d8e7ff"/>
    </g>
  </g>
</svg>
